<svg width="103" height="90" viewBox="0 0 103 90" fill="none" xmlns="http://www.w3.org/2000/svg">
<g clip-path="url(#clip0_211_771)">
<path fill-rule="evenodd" clip-rule="evenodd" d="M94.2642 63.4491C94.1577 63.2402 93.6552 62.1305 93.1416 60.9874C91.1389 56.5341 89.8348 53.9495 89.3427 53.4667C88.9588 53.0777 88.5024 52.9806 87.9548 53.1587C87.3259 53.3632 87.0514 53.8631 87.0792 54.7406C87.1011 55.4799 87.1458 55.6961 87.8955 59.8618C88.1665 61.3662 88.3851 62.6712 88.3805 62.7753C88.3761 62.8807 87.773 62.1367 87.022 61.1339C83.5761 56.4672 79.2929 52.4797 74.3899 49.3741C72.4627 48.1613 68.0542 45.929 66.128 45.191C61.9318 43.6099 57.4889 42.7773 52.5613 42.6667C51.5976 42.633 50.7915 42.5728 50.777 42.5256C50.7582 42.4677 50.6204 41.7675 50.4522 40.9731C49.4822 36.2116 46.5894 31.7912 42.125 28.2789C37.5179 24.6454 32.9018 22.7246 24.6605 21.0167C16.4299 19.3045 10.0099 19.3962 6.4948 21.2951C4.88104 22.1527 4.28637 22.9757 4.57299 23.9367C4.7729 24.5911 5.00996 24.5657 5.1229 23.8866C5.22861 23.2221 5.44367 22.9338 6.19523 22.5102C10.018 20.3314 18.3668 20.707 28.567 23.5277C33.9109 24.9933 37.3741 26.658 40.9227 29.4524C45.0218 32.6723 47.6938 36.6501 48.6632 40.9761C49.1055 42.9271 49.1842 42.7349 47.8354 42.9029C42.5491 43.5514 37.7676 45.9504 36.1008 48.7801C34.0865 52.2462 36.0515 56.4673 39.8816 56.8825C41.576 57.0647 43.8548 56.3512 45.5058 55.1339C48.1066 53.1972 49.7201 50.9526 50.4733 48.2019C50.7364 47.2294 50.9789 45.3248 50.8808 45.0234C50.7984 44.7675 51.0767 44.7156 52.3584 44.7361C55.7141 44.8043 59.4664 45.2959 62.1557 46.0431C66.5681 47.2579 72.0378 49.9823 75.9951 52.9255C79.3951 55.4605 82.5158 58.5217 84.9455 61.7171C86.0417 63.1485 87.8516 65.9024 87.7927 66.0369C87.7662 66.0719 87.2169 65.9287 86.5592 65.7301C83.1421 64.6415 80.3055 64.4314 77.8065 65.0617C76.4293 65.4183 76.018 65.6165 76.2675 65.8318C76.3204 65.8778 77.0365 66.0191 77.8522 66.1527C80.0187 66.4776 84.436 68.0262 90.1868 70.4659C91.3211 70.9456 92.5562 71.3799 93.0018 71.4414C94.7606 71.7058 95.8645 70.7822 95.858 69.0616C95.8572 68.5483 95.7006 67.8664 95.1447 66.1188C94.7638 64.868 94.3593 63.6633 94.2642 63.4491ZM93.1199 68.1652C93.0854 68.2142 92.7073 68.0797 92.2752 67.8608L91.4877 67.4608L91.2439 65.4441C91.102 64.3344 90.9442 63.1778 90.8845 62.8752C90.7658 62.1944 90.8274 61.7893 90.9872 62.1997C91.0395 62.3628 91.3737 63.1146 91.7172 63.8908C92.3221 65.2364 93.2217 67.9655 93.1199 68.1652ZM48.9921 46.5357C48.572 49.2432 47.1493 51.4789 44.7043 53.3003C41.7087 55.5314 38.4935 55.2638 37.6339 52.7024C37.1833 51.358 37.6442 49.9241 38.8996 48.7581C40.0852 47.6532 41.4111 46.9016 43.5938 46.1296C45.461 45.4589 46.4267 45.2228 48.3581 44.9432L49.1208 44.8368L49.1097 45.3162C49.0936 45.725 49.0544 46.1327 48.9923 46.5371L48.9921 46.5357Z" fill="#EF4565" style="fill:#EF4565;fill:color(display-p3 0.9373 0.2706 0.3961);fill-opacity:1;"/>
</g>
<defs>
<clipPath id="clip0_211_771">
<rect width="102.951" height="33.9715" fill="white" style="fill:white;fill-opacity:1;" transform="matrix(-0.799015 -0.601311 0.602319 -0.798256 82.2598 89.6917)"/>
</clipPath>
</defs>
</svg>
