<svg width="329" height="27" viewBox="0 0 329 27" fill="none" xmlns="http://www.w3.org/2000/svg">
    <path fillRule="evenodd" clipRule="evenodd"
        d="M13.0254 23.2597C9.56108 24.3728 7.45783 25.3914 6.43 26.1774C4.67515 27.5193 2.16471 27.1846 0.822771 25.4298C-0.519167 23.6749 -0.184436 21.1645 1.57041 19.8225C3.73008 18.171 6.91981 16.8186 10.5782 15.6431C14.3353 14.436 18.9712 13.2986 24.3063 12.2285C34.9833 10.087 48.7342 8.16135 64.4164 6.50647C95.7962 3.19508 135.18 0.939793 173.741 0.250641C212.282 -0.438158 250.138 0.434876 278.427 3.41259C292.534 4.89757 304.479 6.92672 312.986 9.63131C317.216 10.9759 320.871 12.5708 323.547 14.5346C326.209 16.4878 328.5 19.2793 328.5 23H320.5C320.5 22.9082 320.487 22.2114 318.815 20.9844C317.157 19.768 314.449 18.4908 310.563 17.2554C302.838 14.7998 291.537 12.8368 277.589 11.3686C249.768 8.4401 212.281 7.56315 173.884 8.24936C135.508 8.93522 96.3605 11.1799 65.2559 14.4623C49.6959 16.1043 36.2163 17.999 25.8796 20.0723C20.7079 21.1096 16.3911 22.1783 13.0254 23.2597Z"
        stroke="#EF4565" style="fill:#EF4565;fill:color(display-p3 0.9373 0.2706 0.3961);fill-opacity:1;" />
</svg>