<svg width="221" height="176" viewBox="0 0 221 176" fill="none" xmlns="http://www.w3.org/2000/svg">
<g clip-path="url(#clip0_69_34)">
<path d="M220.732 42.3842C219.432 38.7588 215.698 40.0518 214.866 44.6459C211.933 60.8747 206.317 92.4633 203.322 107.722C203.052 109.227 200.286 111.974 198.704 111.923C172.705 111.064 85.7385 109.963 85.7385 109.963L56.9615 29.2353L55.3286 23.7924C55.0376 23.0451 54.767 22.3581 54.6004 21.9541C52.6869 17.1169 49.4941 13.9655 46.7799 12.1079C44.0964 10.2398 41.8709 9.57338 41.5588 9.47237L41.4543 9.44219L21.5907 4.62512C20.2595 1.94896 16.0575 0 11.0448 0C4.95049 0 0 2.85764 0 6.40223C0 9.92671 4.95049 12.7948 11.0448 12.7948C13.0209 12.7948 14.851 12.4717 16.474 11.9163L38.3552 17.2485C38.7091 17.36 39.9988 17.8743 41.434 18.9347C43.0354 20.1363 44.8449 21.9642 45.9891 24.8629C47.5077 28.7109 55.6091 50.4932 63.2954 71.2058C67.143 81.5672 70.887 91.6858 73.6849 99.2093C76.1289 105.854 77.855 110.469 78.2297 111.469C78.2923 111.802 78.4792 112.792 78.4688 113.933C78.4792 115.155 78.2711 116.519 77.7096 117.578C77.148 118.649 76.3991 119.527 74.6099 120.305C69.0565 122.668 65.8114 127.929 65.7704 133.383C65.7285 136.816 67.1952 140.463 70.294 143.037C73.3828 145.602 77.7614 146.975 83.159 146.975C84.5942 146.975 86.6536 146.975 89.1286 146.975L96.4505 146.996C90.2522 148.904 85.7385 154.459 85.7385 161.124C85.7385 169.323 92.5817 175.999 101.068 175.999C109.534 175.999 116.398 169.323 116.398 161.124C116.398 154.479 111.895 148.925 105.707 147.005L113.008 147.015C123.293 147.025 134.941 147.056 146.216 147.086C154.088 147.095 161.764 147.106 168.67 147.136L175.451 147.146C169.512 149.186 165.218 154.639 165.218 161.123C165.218 169.322 172.102 175.998 180.557 175.998C189.034 175.998 195.876 169.322 195.876 161.123C195.876 154.67 191.654 149.237 185.747 147.157L192.475 147.177C195.044 147.177 196.521 147.187 196.521 147.187C196.542 147.187 196.542 147.187 196.542 147.187C197.041 147.187 197.353 147.187 197.353 147.187C199.673 147.187 201.535 145.379 201.535 143.146C201.556 140.915 199.683 139.097 197.385 139.077C197.385 139.077 100.966 138.865 83.9929 138.865C79.9783 138.855 77.7527 137.875 76.5882 136.895C75.4236 135.896 74.9868 134.775 74.9449 133.381C74.903 131.159 76.5048 128.615 78.7308 127.736C82.2979 126.281 84.7418 123.757 86.0316 121.151C86.6553 119.909 87.03 118.687 87.2795 117.506C88.0491 117.677 88.8398 117.799 89.672 117.819L198.873 119.98C198.976 119.98 199.019 119.98 199.071 119.98C199.122 119.98 199.174 119.98 199.206 119.98H199.705C199.819 119.98 199.871 119.98 199.912 119.98C202.346 119.98 204.592 119.142 206.36 117.768C208.107 116.385 209.48 114.416 209.896 112.013L220.534 50.5825C220.669 49.8251 220.732 49.0677 220.732 48.3208C220.732 46.7168 221.335 43.8386 220.732 42.3842Z" fill="black" style="fill:black;fill-opacity:1;"/>
</g>
<defs>
<clipPath id="clip0_69_34">
<rect width="221" height="176" fill="white" style="fill:white;fill-opacity:1;"/>
</clipPath>
</defs>
</svg>
