<svg width="586" height="500" viewBox="0 0 586 639" fill="none" xmlns="http://www.w3.org/2000/svg">
<g clip-path="url(#clip0_570_552)">
<path d="M257.21 211.988L257.212 211.986C301.107 183.499 353.533 156.017 407.858 159.35L407.872 159.351C462.083 162.426 519.084 196.499 550.334 248.952L550.338 248.959L550.342 248.965C581.918 301.367 587.551 371.931 558.299 421.99C529.025 472.085 464.258 502.141 409.306 507.132C382.053 509.416 357.365 505.515 332.522 499.549C322.347 497.105 312.185 494.325 301.799 491.483C299.485 490.85 297.16 490.214 294.821 489.578C282.007 486.094 268.819 482.62 254.967 479.707C241.67 476.911 227.795 474.653 214.172 472.436L212.492 472.163C198.3 469.853 184.424 467.565 171.636 464.725C158.84 461.884 147.265 458.516 137.664 454.092C128.057 449.666 120.619 444.269 115.866 437.476C106.366 423.902 106.912 403.569 114.035 380.564C121.105 357.728 134.405 333.101 149.094 311.748C178.51 269.427 213.184 240.509 257.21 211.988Z" fill="#F9D3B7" stroke="#47597D" style="fill:#F9D3B7;fill:color(display-p3 0.9765 0.8275 0.7176);fill-opacity:1;stroke:#47597D;stroke:color(display-p3 0.2784 0.3490 0.4902);stroke-opacity:1;" stroke-width="6"/>
</g>
<g filter="url(#filter0_d_570_552)">
<path d="M306.818 228.194C293.524 250.026 280.583 299.047 351.345 294.459C391.241 291.872 413.954 258.172 387.06 251.852C376.819 249.867 348.159 253.979 341.281 251.639C323.823 245.7 311.555 220.414 306.818 228.194Z" fill="#FD9D24" style="fill:#FD9D24;fill:color(display-p3 0.9922 0.6157 0.1412);fill-opacity:1;"/>
<path d="M351.343 294.46C312.975 296.946 299.215 283.674 296.781 267.521C294.721 253.881 300.731 238.19 306.819 228.193C311.555 220.415 323.824 245.698 341.281 251.637C341.313 251.648 341.339 251.657 341.374 251.663C348.414 253.94 376.863 249.877 387.057 251.853C413.956 258.171 391.241 291.871 351.343 294.46Z" fill="#47597D" style="fill:#47597D;fill:color(display-p3 0.2784 0.3490 0.4902);fill-opacity:1;"/>
<path d="M351.343 294.46C312.975 296.946 299.215 283.674 296.781 267.521L296.788 267.518C304.353 280.833 327.599 285.282 334.721 276.872C342.068 268.191 337.421 267.203 341.374 251.663C348.414 253.94 376.863 249.877 387.057 251.853C413.956 258.171 391.241 291.871 351.343 294.46Z" fill="#FF9343" style="fill:#FF9343;fill:color(display-p3 1.0000 0.5765 0.2627);fill-opacity:1;"/>
<path d="M351.344 294.461C312.974 296.944 299.217 283.675 296.781 267.52L296.788 267.517C304.354 280.831 327.602 285.282 334.724 276.871C342.067 268.19 337.421 267.202 341.375 251.662C341.795 251.799 342.289 251.911 342.851 252.004C348.117 252.88 359.316 252.011 369.556 251.542C376.58 251.229 383.154 251.098 387.055 251.855C413.957 258.171 391.243 291.874 351.344 294.461Z" fill="#47597D" style="fill:#47597D;fill:color(display-p3 0.2784 0.3490 0.4902);fill-opacity:1;"/>
<path d="M356.014 270.994C341.476 273.63 343.526 260.802 343.109 251.706C348.775 252.155 360.496 250.228 371.256 248.81C374.08 252.271 378.373 256.674 383.608 259.755C389.52 263.229 361.376 270.021 356.014 270.994Z" fill="#C97043" style="fill:#C97043;fill:color(display-p3 0.7882 0.4392 0.2627);fill-opacity:1;"/>
<path d="M386.589 253.511C393.818 255.221 397.319 259.036 396.715 264.548C396.09 270.25 391.106 276.823 383.382 282.132C374.534 288.211 363.105 291.984 351.198 292.757C327.439 294.297 311.463 289.862 303.709 279.576C292.376 264.541 301.423 240.705 308.556 228.992C308.848 228.514 309.049 228.43 309.052 228.429C310.424 228.175 314.934 232.909 317.927 236.03C323.949 242.311 331.443 250.126 340.565 253.23C344.464 254.556 353.288 254.094 363.505 253.558C372.508 253.087 381.812 252.599 386.589 253.511ZM342.417 296.468C345.315 296.468 348.34 296.366 351.49 296.162C378.621 294.403 399.162 278.259 400.631 264.873C401.418 257.685 396.658 252.339 387.574 250.205C387.544 250.198 387.517 250.192 387.489 250.186C382.184 249.158 372.568 249.663 363.268 250.15C354.75 250.596 345.093 251.102 341.999 250.049C333.82 247.266 326.684 239.825 320.95 233.845C315.675 228.345 312.172 224.725 308.645 225.033C307.618 225.126 306.166 225.611 305.08 227.396H305.079C295.721 242.767 288.884 266.143 300.42 281.446C307.944 291.43 322.05 296.468 342.417 296.468Z" fill="#094067" style="fill:#094067;fill:color(display-p3 0.0353 0.2510 0.4039);fill-opacity:1;"/>
<path d="M308.591 216.435C319.02 234.026 340.917 244.186 364.215 249.542L371.646 233.392C341.851 230.179 322.18 223.689 308.591 216.435Z" fill="#C97043" style="fill:#C97043;fill:color(display-p3 0.7882 0.4392 0.2627);fill-opacity:1;"/>
<path d="M280.36 376.023C286.044 376.611 306.269 373.263 311.467 373.041C319.174 372.712 334.056 373.804 350.135 376.161C350.135 376.161 331.988 321.898 332.036 315.624C301.952 309.351 272.801 326.446 272.801 326.446C272.801 326.446 272.548 375.215 280.36 376.023Z" fill="#47597D" style="fill:#47597D;fill:color(display-p3 0.2784 0.3490 0.4902);fill-opacity:1;"/>
<path d="M273.849 353.358C274.828 364.802 276.708 375.645 280.36 376.02C286.041 376.611 306.268 373.26 311.466 373.04C319.172 372.711 334.056 373.806 350.135 376.161C350.135 376.161 331.985 321.897 332.038 315.623C326.758 314.523 321.501 314.138 316.435 314.263C292.615 314.823 272.802 326.447 272.802 326.447C272.802 326.447 272.734 340.3 273.849 353.358Z" fill="#47597D" style="fill:#47597D;fill:color(display-p3 0.2784 0.3490 0.4902);fill-opacity:1;"/>
<path d="M273.849 353.358C274.828 364.802 276.708 375.645 280.36 376.02C286.041 376.611 306.268 373.26 311.466 373.04C319.172 372.711 334.056 373.806 350.135 376.161C350.135 376.161 331.985 321.897 332.038 315.623C326.758 314.523 321.501 314.138 316.435 314.263C315.262 320.173 313.433 330.616 312.133 343.955C310.886 356.778 296.031 350.453 294.086 342.065C292.074 333.376 287.071 330.856 287.071 330.856C287.071 330.856 280.245 342.225 273.849 353.358Z" fill="#47597D" style="fill:#47597D;fill:color(display-p3 0.2784 0.3490 0.4902);fill-opacity:1;"/>
<path d="M314.472 370.964C313.347 370.964 312.305 370.983 311.354 371.024C309.332 371.111 305.374 371.617 300.791 372.202C293.768 373.1 284.19 374.325 280.769 374.031C280.225 373.648 277.342 370.653 275.885 349.565C275.225 340.024 275.138 330.687 275.128 327.556C280.364 324.766 304.807 312.762 329.886 317.274C331.446 326.747 343.082 362.211 346.879 373.654C334.441 371.958 322.419 370.964 314.472 370.964ZM350.134 378.179C350.792 378.179 351.426 377.938 351.872 377.504C352.403 376.984 352.591 376.265 352.367 375.598C345.112 353.899 334.329 320.024 334.363 315.637C334.37 314.698 333.632 313.88 332.58 313.661C301.852 307.255 272.725 324.054 271.501 324.772C270.864 325.146 270.481 325.769 270.477 326.437C270.477 326.56 270.424 338.839 271.332 351.062C273.047 374.142 276.552 377.662 280.086 378.028C283.991 378.43 293.276 377.245 301.469 376.198C305.746 375.651 309.787 375.134 311.582 375.057C319.604 374.712 334.584 375.929 349.748 378.152C349.877 378.171 350.006 378.179 350.134 378.179Z" fill="#094067" style="fill:#094067;fill:color(display-p3 0.0353 0.2510 0.4039);fill-opacity:1;"/>
<path d="M294.765 364.928C291.903 371.113 287.087 376.981 274.902 375.892C257.167 374.307 241.505 349.029 245.616 329.481C248.667 314.975 267.752 311.758 280.26 320.298C286.155 324.324 291.75 333.699 294.765 346.087V364.928Z" fill="#47597D" style="fill:#47597D;fill:color(display-p3 0.2784 0.3490 0.4902);fill-opacity:1;"/>
<path d="M250.781 357.253C256.361 367.282 265.328 375.038 274.898 375.89C287.088 376.977 291.901 371.111 294.761 364.927V346.086C294.604 345.448 294.44 344.814 294.276 344.191L294.271 344.185C291.173 332.741 285.844 324.116 280.257 320.298C267.753 311.759 248.663 314.977 245.615 329.48C243.725 338.482 246.024 348.692 250.781 357.253Z" fill="#47597D" style="fill:#47597D;fill:color(display-p3 0.2784 0.3490 0.4902);fill-opacity:1;"/>
<path d="M245.013 334.086C245.103 332.526 245.302 330.986 245.618 329.48C245.302 330.986 245.102 332.526 245.013 334.086Z" fill="#47597D" style="fill:#47597D;fill:color(display-p3 0.2784 0.3490 0.4902);fill-opacity:1;"/>
<path d="M294.761 346.086C294.604 345.448 294.44 344.814 294.276 344.191L294.271 344.185C291.173 332.741 285.844 324.116 280.257 320.298C275.684 317.175 270.227 315.624 264.999 315.624C255.932 315.624 247.549 320.282 245.615 329.48C245.299 330.986 245.1 332.526 245.01 334.086C244.929 335.493 244.939 336.916 245.031 338.347C245.119 336.866 245.314 335.402 245.615 333.971C247.549 324.773 255.934 320.114 264.999 320.114C270.227 320.114 275.684 321.665 280.257 324.788C285.844 328.606 291.663 334.643 294.761 346.086Z" fill="#47597D" style="fill:#47597D;fill:color(display-p3 0.2784 0.3490 0.4902);fill-opacity:1;"/>
<path d="M250.781 357.253C256.361 367.282 265.328 375.038 274.898 375.89C287.088 376.977 291.901 371.111 294.761 364.927V346.086C294.604 345.448 294.44 344.814 294.276 344.191L292.951 341.072C293.999 345.823 287.568 368.405 271.114 369.112C263.296 369.447 256.267 363.9 250.781 357.253Z" fill="#47597D" style="fill:#47597D;fill:color(display-p3 0.2784 0.3490 0.4902);fill-opacity:1;"/>
<path d="M256.71 356.755C259.358 364.515 266.43 369.536 272.505 367.969C278.581 366.403 281.36 358.843 278.711 351.082C276.063 343.321 268.992 338.3 262.917 339.866C256.841 341.432 254.063 348.994 256.71 356.755Z" fill="white" style="fill:white;fill-opacity:1;"/>
<path d="M247.15 339.247C248.123 342.097 250.72 343.941 252.952 343.367C255.184 342.791 256.204 340.014 255.231 337.163C254.259 334.312 251.661 332.468 249.429 333.043C247.199 333.619 246.177 336.396 247.15 339.247Z" fill="white" style="fill:white;fill-opacity:1;"/>
<path d="M269.12 335.863C270.093 338.714 272.69 340.559 274.922 339.983C277.154 339.408 278.174 336.63 277.201 333.78C276.229 330.929 273.631 329.084 271.399 329.66C269.168 330.236 268.147 333.013 269.12 335.863Z" fill="white" style="fill:white;fill-opacity:1;"/>
<path d="M256.663 332.845C257.741 336.007 260.624 338.055 263.1 337.416C265.576 336.778 266.709 333.696 265.629 330.533C264.551 327.369 261.668 325.323 259.191 325.961C256.715 326.599 255.583 329.682 256.663 332.845Z" fill="white" style="fill:white;fill-opacity:1;"/>
<path d="M491.819 342.272C493.945 349.541 492.84 357.699 486.419 363.744C471.655 377.642 450.251 370.628 450.251 370.628L437.718 341.383C441.625 342.325 446.103 338.539 451.39 334.364C457.804 329.291 465.399 323.652 474.592 325.199C482.511 326.537 489.356 333.804 491.819 342.272Z" fill="#47597D" style="fill:#47597D;fill:color(display-p3 0.2784 0.3490 0.4902);fill-opacity:1;"/>
<path d="M479.764 338.539C480.531 338.539 481.059 338.243 481.318 337.46C482.319 334.433 476.159 330.145 470.404 330.145C468.416 330.145 466.477 330.657 464.899 331.908C464.928 332.815 464.942 333.721 464.939 334.626C465.935 335.189 467.527 335.644 469.42 335.898C474.139 336.53 477.763 338.539 479.764 338.539Z" fill="#47597D" style="fill:#47597D;fill:color(display-p3 0.2784 0.3490 0.4902);fill-opacity:1;"/>
<path d="M491.819 342.272C493.945 349.541 492.84 357.699 486.419 363.744C471.655 377.642 450.25 370.628 450.25 370.628L437.718 341.383C441.625 342.325 446.103 338.539 451.39 334.364C454.695 336.081 461.994 343.771 466.444 353.794C470.431 362.775 488.53 356.933 491.819 342.272Z" fill="#47597D" style="fill:#47597D;fill:color(display-p3 0.2784 0.3490 0.4902);fill-opacity:1;"/>
<path d="M462.962 374.452C470.616 374.452 480.201 372.573 488.128 365.111C494.993 358.647 496.96 349.149 493.39 339.705C490.102 331.011 482.9 324.539 475.042 323.218C464.283 321.406 455.794 328.141 448.969 333.552C444.955 336.734 440.802 340.027 438.343 339.437C437.105 339.143 435.823 339.77 435.482 340.845C435.139 341.921 435.866 343.033 437.105 343.33C442.042 344.51 446.704 340.815 452.105 336.534C458.475 331.483 465.691 325.761 474.158 327.183C480.29 328.214 486.243 333.752 488.971 340.965C492.009 348.999 490.416 357.002 484.708 362.374C471.219 375.072 451.887 369.002 451.071 368.738C449.869 368.348 448.529 368.877 448.078 369.921C447.629 370.963 448.234 372.126 449.434 372.519C449.894 372.669 455.513 374.452 462.962 374.452Z" fill="#094067" style="fill:#094067;fill:color(display-p3 0.0353 0.2510 0.4039);fill-opacity:1;"/>
<path d="M294.765 364.928C292.433 367.416 290.31 369.775 287.743 371.315C282.728 374.482 275.688 374.519 270.097 372.415C255.47 366.205 247.282 349.557 247.366 335.861C247.398 330.438 248.796 324.445 253.982 321.036C260.189 316.773 269.396 317.074 276.122 320.404C285.817 325.116 290.825 337.254 294.765 346.087C293.899 335.804 289.465 322.333 278.569 316.769C270.234 312.282 258.623 311.998 250.761 317.534C238.802 325.825 241.961 343.695 246.875 354.566C251.063 363.489 257.492 372.394 267.974 376.591C273.439 378.66 279.848 378.802 285.412 376.88C290.95 374.923 294.382 369.946 294.765 364.928Z" fill="#094067" style="fill:#094067;fill:color(display-p3 0.0353 0.2510 0.4039);fill-opacity:1;"/>
<path d="M400.772 387.304C407.351 387.974 411.819 388.639 416.087 388.028C429.947 386.039 440.487 381.759 448.016 374.541C455.164 367.697 459.598 358.207 461.588 345.529C461.628 345.275 461.669 345.02 461.696 344.765C460.035 348.989 457.913 352.419 455.245 353.558C452.213 354.848 448.999 355.534 444.64 354.848C437.325 353.693 412.061 376.63 400.772 387.304Z" fill="#B25B36" style="fill:#B25B36;fill:color(display-p3 0.6980 0.3569 0.2118);fill-opacity:1;"/>
<path d="M315.285 329.491C313.155 309.092 330.654 287.635 343.101 251.928L345.929 233.716C355.945 218.177 429.545 205.414 431.223 236.237C432.696 263.297 468.895 302.998 461.59 345.531C457.125 371.521 443.102 384.158 416.089 388.031C410.368 388.851 404.288 387.375 393.244 386.668C378.588 385.73 333.821 382.691 323.736 363.356C323.736 363.356 321.191 358.208 318.658 348.08C316.281 338.572 315.285 329.491 315.285 329.491Z" fill="#C97043" style="fill:#C97043;fill:color(display-p3 0.7882 0.4392 0.2627);fill-opacity:1;"/>
<path d="M315.286 329.491C315.286 329.491 316.282 338.574 318.658 348.08C321.194 358.207 323.735 363.356 323.735 363.356C333.821 382.691 378.59 385.731 393.245 386.669C404.291 387.374 410.369 388.849 416.089 388.032C439.855 384.622 453.57 374.433 459.56 354.33C460.384 351.582 461.057 348.651 461.594 345.529C468.899 302.998 432.699 263.295 431.224 236.236C429.544 205.415 355.946 218.179 345.927 233.714L343.104 251.929C332.401 282.63 317.961 302.796 315.481 320.815C315.077 323.754 314.988 326.632 315.286 329.491Z" fill="#C97043" style="fill:#C97043;fill:color(display-p3 0.7882 0.4392 0.2627);fill-opacity:1;"/>
<path d="M315.286 329.489C315.286 329.489 316.276 338.572 318.652 348.078C321.191 358.208 323.736 363.358 323.736 363.358C333.262 381.638 373.801 385.35 390.585 386.495C391.555 386.559 392.444 386.618 393.245 386.671C404.286 387.372 410.366 388.852 416.082 388.033C439.849 384.619 453.564 374.436 459.556 354.326C460.378 351.58 461.056 348.651 461.589 345.529C467.513 311.052 444.844 278.433 435.264 252.905C433.028 246.938 431.5 241.361 431.218 236.234C429.541 205.416 355.946 218.177 345.927 233.714L344.399 243.546L343.099 251.929C341.699 255.957 340.232 259.798 338.73 263.48C328.812 287.88 317.636 305.159 315.475 320.815C315.071 323.754 314.984 326.63 315.286 329.489Z" fill="#47597D" style="fill:#47597D;fill:color(display-p3 0.2784 0.3490 0.4902);fill-opacity:1;"/>
<path d="M337.892 375.582C337.145 375.214 336.418 374.84 335.704 374.448C336.411 374.84 337.145 375.214 337.892 375.582Z" fill="white" style="fill:white;fill-opacity:1;"/>
<path d="M315.475 320.815C319.736 347.512 357.299 351.96 380.911 339.912C384.909 337.872 388.815 336.61 392.605 335.96L411.046 296.287L389.831 275.259C369.479 276.786 348.081 272.904 338.73 263.48C328.812 287.88 317.636 305.159 315.475 320.815Z" fill="white" style="fill:white;fill-opacity:1;"/>
<path d="M432.354 321.478C424.709 317.997 437.28 295.24 433.294 276.985C430.976 266.37 385.444 332.949 385.444 332.949L432.354 321.478Z" fill="#47597D" style="fill:#47597D;fill:color(display-p3 0.2784 0.3490 0.4902);fill-opacity:1;"/>
<path d="M344.4 243.546C375.82 255.743 416.419 256.171 435.267 252.905C433.029 246.939 431.504 241.361 431.222 236.236C429.542 205.415 355.944 218.179 345.925 233.714L344.4 243.546Z" fill="#47597D" style="fill:#47597D;fill:color(display-p3 0.2784 0.3490 0.4902);fill-opacity:1;"/>
<path d="M308.591 216.435C319.02 234.026 340.917 244.186 364.215 249.542L371.646 233.392C341.851 230.179 322.18 223.689 308.591 216.435Z" fill="#47597D" style="fill:#47597D;fill:color(display-p3 0.2784 0.3490 0.4902);fill-opacity:1;"/>
<path d="M315.286 329.489C315.286 329.489 316.276 338.573 318.652 348.078C321.191 358.208 323.736 363.358 323.736 363.358C324.093 364.042 324.49 364.703 324.934 365.346C325.076 365.557 325.224 365.767 325.378 365.972C325.567 366.229 325.77 366.486 325.978 366.743C326.032 366.813 326.086 366.878 326.146 366.942C326.308 367.146 326.483 367.352 326.665 367.55C326.718 367.614 326.779 367.685 326.847 367.742C327.001 367.924 327.163 368.093 327.338 368.269C327.412 368.357 327.492 368.438 327.587 368.52C327.762 368.708 327.957 368.894 328.153 369.082C328.193 369.128 328.24 369.169 328.295 369.21C328.496 369.409 328.704 369.602 328.926 369.788C328.98 369.841 329.034 369.888 329.089 369.935C329.344 370.151 329.599 370.374 329.87 370.584C330.159 370.817 330.454 371.052 330.758 371.279C331.054 371.507 331.363 371.73 331.68 371.952C331.937 372.133 332.199 372.314 332.461 372.49C332.542 372.542 332.622 372.6 332.704 372.647C333.007 372.851 333.316 373.045 333.633 373.237C333.963 373.448 334.306 373.653 334.656 373.852C335 374.056 335.35 374.254 335.707 374.448C336.42 374.84 337.147 375.214 337.894 375.581L337.915 375.593C338.286 375.769 338.656 375.944 339.032 376.12C339.429 376.306 339.84 376.488 340.251 376.663C340.622 376.827 340.992 376.984 341.368 377.143C342.223 377.493 343.099 377.838 343.981 378.166C344.332 378.295 344.682 378.423 345.038 378.546C345.867 378.844 346.715 379.124 347.563 379.399C347.993 379.539 348.418 379.674 348.848 379.802C349.347 379.955 349.838 380.1 350.336 380.247C350.707 380.352 351.085 380.463 351.461 380.562C351.765 380.65 352.067 380.731 352.37 380.813C352.639 380.89 352.908 380.96 353.185 381.03C353.602 381.141 354.02 381.246 354.437 381.352C355.279 381.562 356.12 381.76 356.961 381.954C357.386 382.053 357.811 382.146 358.234 382.24C359.533 382.526 360.84 382.789 362.139 383.041C362.59 383.128 363.035 383.21 363.48 383.292C363.924 383.374 364.375 383.455 364.819 383.532C365.256 383.614 365.7 383.69 366.146 383.76C366.59 383.835 367.027 383.906 367.465 383.976C369.666 384.333 371.829 384.637 373.922 384.905C374.278 384.952 374.628 384.993 374.979 385.04C376.285 385.197 377.564 385.35 378.81 385.479C379.597 385.566 380.365 385.642 381.119 385.718C381.146 385.718 381.166 385.724 381.187 385.724C381.9 385.794 382.6 385.858 383.28 385.922C384.385 386.022 385.448 386.11 386.465 386.191C386.794 386.216 387.118 386.244 387.441 386.267C388.558 386.355 389.616 386.431 390.585 386.496C389.933 369.567 388.02 345.821 388.02 345.821L392.604 335.96C388.815 336.61 384.909 337.872 380.91 339.912C357.299 351.96 319.736 347.512 315.475 320.815C315.071 323.754 314.983 326.631 315.286 329.489Z" fill="#DADFE5" style="fill:#DADFE5;fill:color(display-p3 0.8549 0.8745 0.8980);fill-opacity:1;"/>
<path d="M392.606 335.96L388.022 345.821C388.022 345.821 389.934 369.567 390.587 386.495C391.557 386.559 392.445 386.618 393.246 386.671C404.288 387.372 410.367 388.852 416.083 388.033C439.85 384.619 453.566 374.436 459.558 354.326C455.599 355.788 450.852 356.239 444.645 354.847C436.99 353.134 417.222 331.711 392.606 335.96Z" fill="#47597D" style="fill:#47597D;fill:color(display-p3 0.2784 0.3490 0.4902);fill-opacity:1;"/>
<path d="M320.059 332.185C320.121 335.346 320.48 338.535 321.214 341.715C331.498 386.222 400.57 375.024 409.368 372.397C418.905 369.548 418.899 355.199 415.253 338.559C405.245 334.769 393.519 333.482 380.915 339.914C361.177 349.982 331.697 348.528 320.059 332.185Z" fill="#E0B299" style="fill:#E0B299;fill:color(display-p3 0.8784 0.6980 0.6000);fill-opacity:1;"/>
<path d="M320.059 332.185C320.121 335.346 320.48 338.535 321.214 341.715C331.498 386.222 400.57 375.024 409.368 372.397C418.905 369.548 418.899 355.199 415.253 338.559C405.245 334.769 393.519 333.482 380.915 339.914C361.177 349.982 331.697 348.528 320.059 332.185Z" fill="#DADFE5" style="fill:#DADFE5;fill:color(display-p3 0.8549 0.8745 0.8980);fill-opacity:1;"/>
<path d="M345.929 233.714C348.806 231.006 352.45 229.379 356.192 227.83C371.063 221.969 387.708 218.791 404.045 219.916C415.488 220.713 428.194 224.935 428.69 236.342C429.2 243.985 431.878 251.202 434.822 258.277C440.695 272.073 447.886 285.315 453.07 299.251C458.207 312.912 461.385 327.366 459.681 341.702C458.26 352.205 455.218 362.899 447.643 371.266C440.088 379.642 428.516 383.883 416.504 385.628C412.566 386.314 408.694 385.788 404.674 385.39C392.189 384.089 379.406 383.855 367.068 381.766C354.923 379.726 342.774 376.9 332.44 370.958C329.089 368.943 326.058 366.477 323.736 363.356C326.205 370.688 333.917 375.898 341.527 379.191C349.293 382.551 357.724 384.428 366.161 385.909C378.714 388.212 391.378 388.527 404.029 389.975C408.356 390.439 413.026 390.947 417.419 390.161C430.411 388.289 443.55 383.372 451.71 374.048C457.19 367.971 460.441 360.659 462.423 353.251C467.588 334.901 464.247 315.658 457.519 298.002C451.246 280.499 441.243 264.159 435.694 246.531C434.682 243.075 433.935 239.586 433.756 236.134C433.598 232.057 432.029 227.852 429.006 224.643C420.141 215.498 404.184 214.529 391.434 215.342C377.64 216.353 351.464 221.366 345.929 233.714Z" fill="#094067" style="fill:#094067;fill:color(display-p3 0.0353 0.2510 0.4039);fill-opacity:1;"/>
<path d="M315.281 329.491C315.943 315.714 323.014 303.555 328.787 290.982C334.761 278.377 340.367 265.428 343.099 251.928C341.457 255.056 339.962 258.206 338.388 261.327C333.888 270.444 328.833 280.316 324.487 289.448C318.793 301.964 312.154 315.755 315.281 329.491Z" fill="#094067" style="fill:#094067;fill:color(display-p3 0.0353 0.2510 0.4039);fill-opacity:1;"/>
<path d="M381.699 365.459C381.699 365.459 381.715 365.478 381.736 365.522C381.715 365.484 381.699 365.459 381.699 365.459Z" fill="#F9D3B7" style="fill:#F9D3B7;fill:color(display-p3 0.9765 0.8275 0.7176);fill-opacity:1;"/>
<path d="M360.683 66.2732C360.05 53.9706 345.724 33.2879 322.068 34.1667C297.049 35.0959 280.124 52.4307 285.753 73.5113C290.122 89.8783 305.485 97.4048 316.96 100.158L360.683 66.2732Z" fill="#C97043" style="fill:#C97043;fill:color(display-p3 0.7882 0.4392 0.2627);fill-opacity:1;"/>
<path d="M360.68 66.2718L339.727 82.515L316.963 100.16C305.486 97.407 290.118 89.8768 285.756 73.5122C285.044 70.8627 284.697 68.2661 284.677 65.7597C284.508 48.3275 300.201 34.9803 322.07 34.1664C345.72 33.2853 360.052 53.9715 360.68 66.2718Z" fill="#47597D" style="fill:#47597D;fill:color(display-p3 0.2784 0.3490 0.4902);fill-opacity:1;"/>
<path d="M361.84 66.2285C362.834 53.6999 351.235 40.1206 338.441 34.8745C328.023 30.5348 315.563 31.4352 305.168 35.3962C286.419 42.5813 278.221 59.9461 284.249 76.7315C288.499 89.4501 302.108 98.6187 316.646 101.131C318.071 101.362 318.624 99.6117 317.266 99.1849C304.288 95.3152 292.833 87.0518 288.883 75.4789C283.975 62.4381 288.952 48.4417 302.652 41.2397C308.42 38.1803 315.122 36.6127 321.863 36.3326C337.547 35.4226 350.509 45.9269 356.302 57.8965C357.684 60.6001 358.792 63.4011 359.518 66.3186C359.762 67.4474 361.705 67.3813 361.84 66.2285Z" fill="#094067" style="fill:#094067;fill:color(display-p3 0.0353 0.2510 0.4039);fill-opacity:1;"/>
<path d="M346.634 73.9497C347.384 68.2408 344.179 52.9605 326.503 51.5852C311.566 50.424 301.159 60.1672 304.502 74.3139C307.233 85.8616 320.973 89.2336 326.279 89.218C335.25 89.1927 345.584 81.9379 346.634 73.9497Z" fill="#F9D9C2" style="fill:#F9D9C2;fill:color(display-p3 0.9765 0.8510 0.7608);fill-opacity:1;"/>
<path d="M346.633 73.9499C345.583 81.938 335.248 89.1905 326.282 89.2169C322.982 89.2254 316.42 87.927 311.272 84.1632C308.138 81.8731 305.53 78.673 304.5 74.3117C303.33 69.3709 303.839 64.9687 305.644 61.3816C308.982 54.6941 316.778 50.8305 326.504 51.589C344.182 52.9594 347.387 68.2373 346.633 73.9499Z" fill="white" style="fill:white;fill-opacity:1;"/>
<path d="M396.645 245.305C442.585 249.265 485.177 243.876 505.413 212.845C519.264 191.606 528.338 129.796 496.725 94.4978C482.349 77.7545 461.345 66.7863 431.449 57.8051C414.742 52.779 407.811 52.2862 401.25 35.5332C392.884 35.5934 383.714 41.7207 384.937 50.8472C375.015 47.5149 368.3 47.8455 362.809 48.1761C356.531 48.5547 351.854 48.9334 345.822 43.8328C343.175 49.1414 341.869 57.3904 350.543 64.0394C294.483 80.8536 288.738 133.876 284.313 156.38C266.97 186.534 274.55 225.72 375.157 242.424L396.645 245.305Z" fill="#C97043" style="fill:#C97043;fill:color(display-p3 0.7882 0.4392 0.2627);fill-opacity:1;"/>
<path d="M281.099 197.629C290.532 215.982 317.645 232.873 375.158 242.425L396.643 245.307C442.586 249.266 485.172 243.874 505.405 212.848L505.412 212.843C519.264 191.604 528.338 129.794 496.725 94.4956C482.345 77.7571 461.342 66.7877 431.449 57.8041C414.743 52.7804 407.814 52.2851 401.247 35.531C392.886 35.5935 383.717 41.7184 384.94 50.8462C375.018 47.5151 368.301 47.8456 362.809 48.1762C356.531 48.5549 351.855 48.9324 345.819 43.8365C343.178 49.1415 341.865 57.3918 350.542 64.0384C294.481 80.855 288.736 133.876 284.311 156.378C276.885 169.298 274.025 183.87 281.099 197.629Z" fill="#C97043" style="fill:#C97043;fill:color(display-p3 0.7882 0.4392 0.2627);fill-opacity:1;"/>
<path d="M505.41 212.844L505.402 212.849C503.604 215.604 501.636 218.159 499.49 220.517C477.584 244.76 438.507 248.912 396.642 245.303L375.156 242.423C317.646 232.872 290.531 215.979 281.1 197.626C274.024 183.868 276.889 169.298 284.314 156.378C288.74 133.875 294.479 80.855 350.541 64.036C341.865 57.393 343.181 49.1428 345.823 43.8354C351.857 48.9324 356.532 48.5549 362.811 48.1762C368.302 47.8456 375.019 47.5151 384.942 50.8438C383.719 41.7184 392.888 35.5911 401.247 35.5334C407.814 52.2863 414.746 52.7792 431.451 57.8029C461.346 66.7864 482.349 77.7559 496.728 94.4968C528.338 129.793 519.263 191.603 505.41 212.844Z" fill="white" style="fill:white;fill-opacity:1;"/>
<path d="M344.21 164.318C349.701 153.006 347.044 128.574 326.103 127.946C304.094 127.287 281.148 150.58 286.261 172.145C289.009 183.735 311.215 179.304 323.913 177.744C336.175 176.239 340.452 172.059 344.21 164.318Z" fill="#47597D" style="fill:#47597D;fill:color(display-p3 0.2784 0.3490 0.4902);fill-opacity:1;"/>
<path d="M380.666 174.16C378.589 159.536 391.972 132.322 418.015 137.904C445.381 143.772 463.989 177.387 448.765 200.575C440.584 213.036 415.08 201.272 400.094 195.663C385.622 190.246 382.086 184.166 380.666 174.16Z" fill="#47597D" style="fill:#47597D;fill:color(display-p3 0.2784 0.3490 0.4902);fill-opacity:1;"/>
<path d="M487.845 230.574C465.134 245.88 431.875 248.341 396.642 245.303L386.63 244.85L375.157 242.424C334.184 235.618 308.638 225.088 293.925 212.957C303.263 217.278 384.345 255.751 487.845 230.574Z" fill="#DADFE5" style="fill:#DADFE5;fill:color(display-p3 0.8549 0.8745 0.8980);fill-opacity:1;"/>
<path d="M396.642 245.305C435.436 251.52 485.002 247.921 506.85 215.176C518.199 197.92 521.097 172.598 520.379 152.956C518.632 114.177 501.165 84.1573 460.414 66.1914C449.574 61.3191 438.162 57.5625 426.629 54.2566C422.845 53.1374 419.087 52.0615 415.868 50.4963C409.023 47.3275 405.904 41.0464 403.449 34.8855C403.123 34.0404 402.203 33.5042 401.228 33.5138C398.621 33.5391 396.087 34.0548 393.752 34.9383C386.515 37.5662 381.54 44.2104 382.625 51.0806L385.773 48.9636C382.458 47.8721 379.014 46.9633 375.448 46.4716C371.896 45.9511 368.229 45.8621 364.725 46.0484C361.22 46.2095 357.886 46.5906 355.04 46.141C352.07 45.6842 349.605 44.2176 347.431 42.3772C346.31 41.401 344.283 41.7532 343.685 43.0311C342.769 44.8824 342.093 46.8322 341.756 48.859C340.538 55.062 343.503 61.5331 349.002 65.5531L349.781 62.1318C328.128 68.3276 310.056 82.5861 299.826 100.156C289.29 117.49 285.412 136.933 282.019 156.039L282.23 155.477C277.873 162.62 274.864 170.622 274.371 178.79C272.771 202.436 293.265 219.109 316.159 228.436C329.917 234.11 344.804 237.685 359.772 239.551C333.372 231.296 300.746 222.269 285.753 200.281C276.693 187.047 278.899 170.713 286.391 157.282C287.638 152.384 288.2 147.381 289.299 142.516C295.573 109.403 312.149 77.3267 351.301 65.9486C352.969 65.5026 353.402 63.4818 352.08 62.5261C345.879 57.9856 344.663 51.0024 347.954 44.6359L344.197 45.2803C345.523 46.3911 346.987 47.4442 348.667 48.3109C353.529 50.9965 359.614 50.4158 364.977 50.0804C368.293 49.9073 371.504 49.9915 374.698 50.4567C377.889 50.8955 381.024 51.7201 384.096 52.7299C385.301 53.1302 386.651 52.6037 387.108 51.5567C387.242 51.2489 387.283 50.9207 387.244 50.613C386.771 47.2518 388.074 43.9135 390.815 41.5056C393.508 39.0941 397.44 37.5891 401.267 37.553L399.045 36.1838C401.66 43.0227 405.802 50.4915 413.589 54.0162C420.863 57.3725 428.879 58.9053 436.456 61.5103C458.545 68.5836 480.294 78.7116 494.583 95.3912C519.994 123.804 520.355 170.859 507.288 203.784C489.823 243.687 438.987 246.167 396.642 245.305Z" fill="#094067" style="fill:#094067;fill:color(display-p3 0.0353 0.2510 0.4039);fill-opacity:1;"/>
<path d="M440.73 126.729C440.73 126.729 434.44 107.459 421.454 110.397C417.996 111.18 415.421 116.646 417.897 119.683C422.235 125 440.73 126.729 440.73 126.729Z" fill="#094067" style="fill:#094067;fill:color(display-p3 0.0353 0.2510 0.4039);fill-opacity:1;"/>
<path d="M321.914 110.327C321.914 110.327 330.36 94.8683 339.918 100.326C342.438 101.766 343.999 106.15 340.305 109.124C335.448 113.034 321.914 110.327 321.914 110.327Z" fill="#094067" style="fill:#094067;fill:color(display-p3 0.0353 0.2510 0.4039);fill-opacity:1;"/>
<path d="M462.228 82.646C467.924 68.7073 490.829 48.7844 521.163 57.6417C545.092 64.6285 559.352 91.8519 544.35 113.947C533.766 129.535 511.602 134.088 497.518 133.315C474.6 121.405 462.736 104.561 462.228 82.646Z" fill="#47597D" style="fill:#47597D;fill:color(display-p3 0.2784 0.3490 0.4902);fill-opacity:1;"/>
<path d="M462.228 82.6473C471.36 66.5736 491.985 55.0403 512.726 58.113C524.858 59.6265 535.696 65.8391 541.92 75.0907C548.485 84.5503 549.908 96.4706 545.412 106.796C538.233 124.04 517.523 131.903 497.519 133.315C514.91 135.999 534.345 130.165 544.768 117.472C562.334 96.1376 550.062 63.9866 521.702 55.4803C514.767 53.4571 507.246 52.7226 499.999 53.7252C482.47 56.1655 467.096 67.9368 462.228 82.6473Z" fill="#094067" style="fill:#094067;fill:color(display-p3 0.0353 0.2510 0.4039);fill-opacity:1;"/>
<path d="M349.302 65.7466C357.275 68.9335 366.736 68.2759 374.585 65.1756C370.628 65.9858 366.49 66.2984 362.458 65.7899C358.66 65.297 354.914 64.2536 351.788 62.3325L349.302 65.7466Z" fill="#094067" style="fill:#094067;fill:color(display-p3 0.0353 0.2510 0.4039);fill-opacity:1;"/>
<path d="M523.785 106.801C523.028 107.849 522.211 108.793 521.335 109.647C512.475 118.315 498.178 117.2 492.874 115.479C483.027 112.271 475.068 100.644 477.649 91.4891C479.502 84.9507 490.173 69.2893 510.248 74.0353C514.494 75.0379 518.112 76.6932 520.992 78.8414H521.002C529.577 85.2608 531.498 96.0427 523.785 106.801Z" fill="white" style="fill:white;fill-opacity:1;"/>
<path d="M345.176 174.764C344.591 178.294 348.599 181.979 351.767 184.291C353.96 185.892 357.013 186.276 359.637 185.279C363.427 183.84 368.472 181.289 369.057 177.76C370.008 172.027 346.127 169.031 345.176 174.764Z" fill="#094067" style="fill:#094067;fill:color(display-p3 0.0353 0.2510 0.4039);fill-opacity:1;"/>
<path d="M355.948 176.594C356.193 176.594 356.431 176.578 356.659 176.547C358.004 176.362 359.774 175.995 359.882 175.342C360.008 174.585 355.545 173.804 352.914 173.804C351.858 173.804 351.097 173.93 351.047 174.234C350.939 174.887 352.517 175.673 353.747 176.181C354.39 176.447 355.192 176.594 355.948 176.594Z" fill="#47597D" style="fill:#47597D;fill:color(display-p3 0.2784 0.3490 0.4902);fill-opacity:1;"/>
<path d="M392.103 166.871C389.557 177.373 395.974 187.432 406.437 189.34C416.9 191.248 427.445 184.281 429.992 173.78C432.537 163.279 426.119 153.219 415.656 151.312C405.195 149.404 394.648 156.37 392.103 166.871Z" fill="black" style="fill:black;fill-opacity:1;"/>
<path d="M400.612 167.183C399.703 170.936 401.73 174.483 405.142 175.105C408.553 175.727 412.055 173.189 412.966 169.435C413.876 165.682 411.848 162.134 408.437 161.513C405.026 160.891 401.523 163.429 400.612 167.183Z" fill="white" style="fill:white;fill-opacity:1;"/>
<path d="M307.301 152.121C305.144 161.346 310.846 170.134 320.036 171.75C329.226 173.367 338.426 167.199 340.583 157.974C342.741 148.75 337.039 139.961 327.847 138.344C318.657 136.729 309.458 142.896 307.301 152.121Z" fill="black" style="fill:black;fill-opacity:1;"/>
<path d="M314.768 152.348C313.997 155.646 315.801 158.745 318.798 159.272C321.793 159.799 324.848 157.553 325.619 154.256C326.39 150.96 324.586 147.859 321.589 147.333C318.592 146.805 315.539 149.051 314.768 152.348Z" fill="white" style="fill:white;fill-opacity:1;"/>
<path d="M392.125 266.86C388.764 281.511 382.316 296.122 369.331 309.251C360.685 317.995 345.754 328.746 344.395 344.765C343.099 360.051 358.673 364.572 368.393 363.534C382.651 362.009 383.768 352.003 393.147 346.086C429.286 322.822 433.29 294.361 433.29 268.181L392.125 266.86Z" fill="#C97043" style="fill:#C97043;fill:color(display-p3 0.7882 0.4392 0.2627);fill-opacity:1;"/>
<path d="M344.316 346.456C344.272 360.388 359.042 364.533 368.392 363.534C382.648 362.011 383.77 352.005 393.147 346.087C429.286 322.822 433.293 294.361 433.293 268.181L392.126 266.86C388.765 281.511 382.316 296.123 369.331 309.252C360.684 317.995 345.753 328.745 344.393 344.766C344.344 345.342 344.316 345.909 344.316 346.456Z" fill="#47597D" style="fill:#47597D;fill:color(display-p3 0.2784 0.3490 0.4902);fill-opacity:1;"/>
<path d="M344.316 346.456C344.272 360.388 359.042 364.533 368.392 363.534C382.648 362.011 383.77 352.005 393.147 346.087C429.286 322.822 433.293 294.361 433.293 268.181C433.293 268.181 431.933 293.716 418.765 313.494C410.869 325.349 384.355 341.691 378.46 348.018C371.178 355.833 352.986 357.813 344.316 346.456Z" fill="#47597D" style="fill:#47597D;fill:color(display-p3 0.2784 0.3490 0.4902);fill-opacity:1;"/>
<path d="M392.128 266.859C386.945 280.97 379.976 294.625 369.052 306.061C359.866 315.595 347.992 324.517 343.714 336.999C341.987 342.153 341.193 347.783 343.105 353.003C346.043 361.288 356.249 365.883 365.774 365.811C377.171 365.702 382.461 360.794 388.546 353.385C390.243 351.456 391.983 349.719 394.01 348.344L397.433 346.07C415.025 334.412 428.141 317.397 432.052 298.359C434.244 288.396 434.344 278.222 433.293 268.181L432.468 275.659C432.176 278.144 431.835 280.618 431.47 283.081C427.852 307.835 417.111 327.047 394.233 342.525L390.8 344.815C388.285 346.531 386.237 348.62 384.45 350.66C379.172 356.985 375.366 361.38 365.752 361.533C358.072 361.632 350.003 358.273 347.578 351.725C345.235 345.009 347.727 337.716 351.441 331.699C355.418 325.335 361.443 319.917 367.201 314.594C373.297 309.1 378.702 302.821 382.677 295.992C388.009 286.958 391.216 276.949 392.128 266.859Z" fill="#094067" style="fill:#094067;fill:color(display-p3 0.0353 0.2510 0.4039);fill-opacity:1;"/>
<path d="M352.639 342.256C348.717 347.344 347.014 355.727 350.359 361.392L354.274 359.212C352.266 357.079 351.357 354.148 351.181 351.329C351.042 348.32 351.232 345.067 352.639 342.256Z" fill="#094067" style="fill:#094067;fill:color(display-p3 0.0353 0.2510 0.4039);fill-opacity:1;"/>
<path d="M364.144 345.223C360.523 350.641 358.778 358.641 361.726 364.607L365.772 362.616C363.865 360.36 363.101 357.316 362.878 354.46C362.719 351.38 362.927 348.168 364.144 345.223Z" fill="#094067" style="fill:#094067;fill:color(display-p3 0.0353 0.2510 0.4039);fill-opacity:1;"/>
<path d="M385.943 395.058C388.249 395.318 413.801 394.438 428.804 379.555C428.804 379.555 441.64 369.211 444.643 354.848C449.53 331.456 433.29 321.757 433.29 321.757C405.714 313.184 390.078 338.065 390.078 338.065C390.078 338.065 389.617 342.12 388.986 348.063C387.26 364.357 384.247 394.868 385.943 395.058Z" fill="#47597D" style="fill:#47597D;fill:color(display-p3 0.2784 0.3490 0.4902);fill-opacity:1;"/>
<path d="M385.94 395.058C388.246 395.318 413.798 394.438 428.801 379.555C428.801 379.555 441.637 369.211 444.64 354.848C444.64 354.848 439.222 353.923 432.632 359.492C427.456 363.867 422.717 367.806 419.554 361.307C416.391 354.807 417.035 351.189 413.297 345.529C411.813 343.285 401.219 345.08 388.983 348.063C387.257 364.357 384.244 394.868 385.94 395.058Z" fill="#47597D" style="fill:#47597D;fill:color(display-p3 0.2784 0.3490 0.4902);fill-opacity:1;"/>
<path d="M428.804 379.553C417.568 386.781 404.561 391.195 390.811 392.835C389.272 392.986 387.763 393.097 386.246 393.056C386.773 393.08 387.556 393.491 387.813 393.947C387.979 394.23 387.917 394.182 387.922 394.147C387.911 394.108 387.896 394.022 387.882 393.934C387.657 391.826 387.8 389.59 387.877 387.34C388.782 371 390.622 354.574 392.389 338.265L392.116 339.033C392.624 338.391 393.255 337.634 393.856 336.944C400.463 329.344 409.522 322.706 420.752 321.482C424.892 320.959 429.09 321.226 433.29 321.758C425.627 317.686 415.385 317.474 407.235 320.847C398.968 324.2 392.202 330.076 388.034 337.099C386.566 345.46 386.176 354.032 385.187 362.475C384.322 372.825 383.001 383.091 383.177 393.55C383.295 394.444 383.209 394.966 383.763 395.934C384.019 396.309 384.376 396.653 384.877 396.858C385.241 397.007 385.681 397.083 386.014 397.09C402.051 397.06 420.313 392.208 428.804 379.553Z" fill="#094067" style="fill:#094067;fill:color(display-p3 0.0353 0.2510 0.4039);fill-opacity:1;"/>
<path d="M381.653 394.203C358.187 388.134 366.988 351.61 372.747 342.177C380.369 328.222 398.079 325.952 409 331.644C413.434 333.954 426.082 343.249 422.415 362C418.552 381.752 401.465 399.219 381.653 394.203Z" fill="#47597D" style="fill:#47597D;fill:color(display-p3 0.2784 0.3490 0.4902);fill-opacity:1;"/>
<path d="M370.834 346.079C371.478 344.515 372.132 343.189 372.749 342.177C375.345 337.425 379.109 334.029 383.379 331.838C379.109 334.027 375.343 337.425 372.748 342.175C372.13 343.188 371.478 344.514 370.834 346.079ZM383.384 331.836C383.387 331.835 383.39 331.832 383.393 331.831C383.39 331.833 383.387 331.835 383.384 331.836Z" fill="#47597D" style="fill:#47597D;fill:color(display-p3 0.2784 0.3490 0.4902);fill-opacity:1;"/>
<path d="M402.99 329.464C402.665 329.39 402.339 329.321 402.009 329.259C402.338 329.321 402.665 329.39 402.99 329.464Z" fill="#47597D" style="fill:#47597D;fill:color(display-p3 0.2784 0.3490 0.4902);fill-opacity:1;"/>
<path d="M402.012 329.259C400.231 328.918 398.383 328.744 396.512 328.744C396.442 328.744 396.369 328.744 396.299 328.744C396.369 328.744 396.44 328.744 396.511 328.744C398.382 328.744 400.231 328.918 402.012 329.259Z" fill="#47597D" style="fill:#47597D;fill:color(display-p3 0.2784 0.3490 0.4902);fill-opacity:1;"/>
<path d="M420.604 368.592C421.37 366.445 421.974 364.239 422.414 362C426.084 343.247 413.434 333.954 408.997 331.644C407.161 330.686 405.13 329.953 402.99 329.464C402.665 329.39 402.338 329.321 402.009 329.259C400.228 328.918 398.379 328.744 396.508 328.744C396.437 328.744 396.366 328.744 396.296 328.744C391.921 328.775 387.432 329.764 383.391 331.831C383.388 331.832 383.386 331.835 383.383 331.836C383.38 331.837 383.379 331.837 383.377 331.838C379.108 334.029 375.343 337.425 372.748 342.177C372.13 343.189 371.476 344.515 370.832 346.079C369.968 348.179 369.12 350.713 368.392 353.51C369.36 350.67 370.416 348.316 371.383 346.732C376.477 337.403 386.08 333.294 395.149 333.294C399.649 333.294 404.019 334.306 407.64 336.194C412.077 338.504 424.72 347.802 421.057 366.555C420.925 367.238 420.773 367.916 420.604 368.592Z" fill="#47597D" style="fill:#47597D;fill:color(display-p3 0.2784 0.3490 0.4902);fill-opacity:1;"/>
<path d="M381.651 394.201C397.895 398.315 412.316 387.313 419.103 372.324C411.071 384.019 398.123 391.01 384.005 387.094C369.787 383.151 366.451 367.905 368.305 353.849C364.598 368.374 364.22 389.695 381.651 394.201Z" fill="#47597D" style="fill:#47597D;fill:color(display-p3 0.2784 0.3490 0.4902);fill-opacity:1;"/>
<path d="M396.519 330.764C400.549 330.764 404.5 331.652 407.808 333.375C409.465 334.239 423.898 342.375 420.127 361.662C417.742 373.85 410.341 384.641 400.812 389.822C394.879 393.048 388.655 393.869 382.311 392.266C377.251 390.955 373.531 387.901 371.254 383.188C365.28 370.815 370.466 350.231 374.805 343.123C374.822 343.096 374.837 343.07 374.852 343.042C378.812 335.791 385.082 332.841 389.644 331.643C391.89 331.053 394.218 330.764 396.519 330.764ZM388.516 397.088C393.582 397.088 398.587 395.795 403.28 393.244C413.9 387.47 422.112 375.628 424.711 362.339C429 340.408 412.137 330.922 410.201 329.912C403.899 326.628 395.711 325.831 388.298 327.777C380.592 329.801 374.334 334.592 370.672 341.273C365.856 349.204 360.356 371.06 366.965 384.75C369.807 390.634 374.526 394.466 380.991 396.138L381.005 396.141C383.504 396.774 386.017 397.088 388.516 397.088Z" fill="#094067" style="fill:#094067;fill:color(display-p3 0.0353 0.2510 0.4039);fill-opacity:1;"/>
<path d="M376.633 366.551C374.499 375.008 379.124 383.074 386.964 384.569C394.802 386.064 402.886 380.42 405.019 371.963C407.152 363.507 402.528 355.441 394.689 353.945C386.85 352.451 378.766 358.095 376.633 366.551Z" fill="white" style="fill:white;fill-opacity:1;"/>
<path d="M377.422 345.736C376.639 348.843 378.338 351.806 381.217 352.355C384.096 352.903 387.066 350.831 387.849 347.725C388.633 344.618 386.934 341.655 384.055 341.107C381.175 340.557 378.206 342.63 377.422 345.736Z" fill="white" style="fill:white;fill-opacity:1;"/>
<path d="M404.276 353.252C403.493 356.358 405.192 359.322 408.071 359.871C410.951 360.419 413.92 358.347 414.704 355.24C415.487 352.134 413.788 349.171 410.909 348.621C408.029 348.073 405.06 350.146 404.276 353.252Z" fill="white" style="fill:white;fill-opacity:1;"/>
<path d="M392.299 344.427C391.428 347.874 393.313 351.161 396.509 351.771C399.704 352.38 402.999 350.08 403.868 346.633C404.738 343.187 402.853 339.899 399.658 339.289C396.463 338.68 393.168 340.981 392.299 344.427Z" fill="white" style="fill:white;fill-opacity:1;"/>
<path d="M351.418 198.483C351.526 198.541 351.641 198.588 351.762 198.635C354.032 199.476 356.273 199.821 358.482 199.629C360.515 199.448 361.881 197.548 361.417 195.648C361.283 195.092 361.127 194.549 360.952 194.018C360.643 193.099 360.279 192.223 359.854 191.369C358.522 188.68 354.731 188.16 352.643 190.375C351.614 191.468 350.725 192.719 349.951 194.099C349.055 195.701 349.769 197.665 351.418 198.483Z" fill="#094067" style="fill:#094067;fill:color(display-p3 0.0353 0.2510 0.4039);fill-opacity:1;"/>
<path d="M351.418 198.483C351.526 198.541 351.641 198.588 351.762 198.635C354.032 199.476 356.273 199.821 358.482 199.629C360.515 199.448 361.881 197.548 361.417 195.648C361.283 195.092 361.127 194.549 360.952 194.018C360.428 193.935 359.882 193.889 359.323 193.889C355.694 193.889 352.603 195.8 351.418 198.483Z" fill="#FA6469" style="fill:#FA6469;fill:color(display-p3 0.9804 0.3922 0.4118);fill-opacity:1;"/>
<path d="M358.676 191.812C359.307 193.087 359.807 194.456 360.158 195.882C360.323 196.553 360.157 197.268 359.712 197.797C359.361 198.215 358.877 198.471 358.348 198.518C356.405 198.687 354.35 198.384 352.266 197.611C351.705 197.403 351.248 196.969 351.014 196.422C350.756 195.82 350.789 195.151 351.104 194.589C351.862 193.24 352.714 192.059 353.637 191.081C354.321 190.355 355.285 190.007 356.281 190.127C357.336 190.257 358.209 190.87 358.676 191.812ZM357.282 200.794C357.728 200.794 358.169 200.775 358.606 200.735C359.872 200.624 361 200.047 361.788 199.11C362.668 198.062 362.988 196.715 362.668 195.416C362.282 193.849 361.732 192.339 361.034 190.93C360.216 189.282 358.573 188.157 356.638 187.922C354.768 187.691 352.897 188.345 351.649 189.669C350.601 190.781 349.641 192.107 348.797 193.612C348.174 194.721 348.106 196.029 348.608 197.2C349.087 198.316 350.053 199.213 351.257 199.66C353.289 200.414 355.311 200.794 357.282 200.794Z" fill="#094067" style="fill:#094067;fill:color(display-p3 0.0353 0.2510 0.4039);fill-opacity:1;"/>
<path d="M335.808 270.574C337.779 265.93 337.211 260.124 340.942 252.939L335.808 270.574Z" fill="#FD9D24" style="fill:#FD9D24;fill:color(display-p3 0.9922 0.6157 0.1412);fill-opacity:1;"/>
<path d="M335.813 270.574C337.316 267.818 337.973 264.715 338.961 261.817C339.909 258.917 341.18 256.181 342.849 253.683L339.044 252.193C337.848 255.249 337.188 258.404 336.908 261.49C336.589 264.554 336.665 267.582 335.813 270.574Z" fill="#094067" style="fill:#094067;fill:color(display-p3 0.0353 0.2510 0.4039);fill-opacity:1;"/>
<path d="M329.167 257.494C313.595 255.921 300.445 238.746 301.115 228.924C301.185 227.898 301.355 226.853 301.628 225.793C304.058 216.003 314.493 205 328.254 199.985C338.227 196.348 342.095 200.721 342.608 202.945C343.941 208.789 334.44 212.309 332.629 214.103C332.629 214.103 340.971 219.814 344.905 226.922C346.866 230.458 348.013 236.015 345.266 240.359L345.25 240.381C344.659 241.308 343.889 242.179 342.91 242.964C342.619 243.202 342.306 243.428 341.976 243.648C341.982 243.705 341.988 243.764 341.993 243.827C342.477 249.953 338.596 258.446 329.167 257.494Z" fill="#47597D" style="fill:#47597D;fill:color(display-p3 0.2784 0.3490 0.4902);fill-opacity:1;"/>
<path d="M335.447 253.289C333.848 254.612 331.908 255.137 329.514 254.897C327.928 254.737 326.305 254.377 324.693 253.829C313.592 250.051 304.28 237.652 304.105 229.917C309.893 238.04 321.087 246.209 334.229 246.482C335.567 246.512 336.998 246.794 338.971 245.887C338.747 248.52 337.66 251.454 335.447 253.289Z" fill="#47597D" style="fill:#47597D;fill:color(display-p3 0.2784 0.3490 0.4902);fill-opacity:1;"/>
<path d="M345.252 240.381C344.661 241.308 343.89 242.179 342.912 242.964C343.632 242.25 344.409 241.401 345.252 240.381Z" fill="#F4BDE3" style="fill:#F4BDE3;fill:color(display-p3 0.9569 0.7412 0.8902);fill-opacity:1;"/>
<path d="M308.893 246.124C306.072 241.307 303.562 236.452 303.036 231.172C302.783 227.799 303.92 224.539 305.457 221.459C308.871 215.208 314.375 209.834 320.915 205.895C325.208 203.301 337.209 197.128 340.339 203.305C341.284 207.658 334.157 210.257 331.153 212.977C330.381 213.695 330.505 214.86 331.414 215.444C332.608 216.288 333.849 217.272 334.997 218.257C338.371 221.194 341.504 224.486 343.452 228.283C345.725 232.904 345.736 239.053 340.789 242.291C340.238 242.663 339.988 243.225 340.018 243.788C339.656 248.126 338.715 253.113 334.408 255.835C332.852 256.789 331.091 257.269 329.171 257.494C330.115 257.815 331.134 258.001 332.193 258.04C337.966 258.251 342.435 253.706 343.659 249.157C344.178 247.32 344.342 245.398 343.938 243.512L343.169 245.009C349.582 240.903 350.061 232.836 347.072 226.95C344.895 222.678 341.509 219.098 337.763 215.83C336.512 214.761 335.266 213.765 333.847 212.763L334.108 215.231C334.447 214.925 335.785 214.203 336.285 213.907C339.202 212.222 341.951 210.676 343.881 207.757C346.11 204.421 344.957 199.968 341.098 197.958C333.639 194.121 324.45 198.9 318.178 202.512C312.828 205.855 308.167 210.03 304.677 214.905C301.244 219.814 298.503 225.681 299.397 231.529C300.486 237.201 304.114 242.277 308.893 246.124Z" fill="#094067" style="fill:#094067;fill:color(display-p3 0.0353 0.2510 0.4039);fill-opacity:1;"/>
<path d="M338.312 244.668C338.312 244.668 347.474 240.598 346.372 230.595L338.312 244.668Z" fill="#47597D" style="fill:#47597D;fill:color(display-p3 0.2784 0.3490 0.4902);fill-opacity:1;"/>
<path d="M338.314 244.668C343.739 242.593 347.54 237.829 348.166 232.712C348.282 231.957 348.279 231.201 348.333 230.432L344.417 230.757C344.652 231.994 344.875 233.267 344.757 234.529C344.58 238.516 342.055 242.326 338.314 244.668Z" fill="#094067" style="fill:#094067;fill:color(display-p3 0.0353 0.2510 0.4039);fill-opacity:1;"/>
<path d="M325.17 216.104C327.639 215.251 331.285 214.628 333.097 216.691L335.485 213.979C331.924 212.226 327.755 213.793 325.17 216.104Z" fill="#094067" style="fill:#094067;fill:color(display-p3 0.0353 0.2510 0.4039);fill-opacity:1;"/>
<path d="M221.69 131.937C219.962 133.437 219.098 135.269 219.098 137.432C219.098 139.526 219.962 141.322 221.69 142.822C223.417 144.323 225.487 145.073 227.898 145.073C230.389 145.073 232.499 144.323 234.227 142.822C235.955 141.322 236.819 139.526 236.819 137.432C236.819 135.269 235.955 133.437 234.227 131.937C232.499 130.437 230.389 129.687 227.898 129.687C225.487 129.687 223.417 130.437 221.69 131.937ZM249.476 84.5767C250.521 84.436 251.043 83.7388 251.043 82.4825C250.561 76.4118 247.849 71.5275 242.906 67.8298C237.964 64.132 231.795 62.2819 224.403 62.2819C215.641 62.2819 209.052 64.3929 204.632 68.6148C200.212 72.8354 198.001 78.0515 198.001 84.2617C198.001 87.7503 198.705 90.8386 200.111 93.5253C201.518 96.2109 203.266 98.4445 205.355 100.224C207.445 102.003 209.534 103.747 211.624 105.458C213.713 107.167 215.562 109.225 217.17 111.633C218.777 114.04 219.701 116.743 219.942 119.744C220.183 120.93 220.866 121.523 221.992 121.523H232.72C234.087 121.523 234.77 120.93 234.77 119.744C234.609 115.558 233.784 111.929 232.298 108.859C230.811 105.788 229.104 103.38 227.175 101.636C225.247 99.893 223.317 98.287 221.388 96.8216C219.46 95.3574 217.832 93.6648 216.506 91.7462C215.181 89.8276 214.517 87.6121 214.517 85.0996C214.517 82.378 215.442 80.1456 217.289 78.4013C219.138 76.6558 221.67 75.7843 224.884 75.7843C227.857 75.7843 230.329 76.5512 232.298 78.0876C234.267 79.6215 235.453 81.6459 235.854 84.1571V84.2617C236.095 85.5179 236.778 86.0757 237.904 85.9375L249.476 84.5767Z" fill="#094067" style="fill:#094067;fill:color(display-p3 0.0353 0.2510 0.4039);fill-opacity:1;"/>
</g>
<defs>
<filter id="filter0_d_570_552" x="198.001" y="31.9999" width="354.915" height="369.09" filterUnits="userSpaceOnUse" color-interpolation-filters="sRGB">
<feFlood flood-opacity="0" result="BackgroundImageFix"/>
<feColorMatrix in="SourceAlpha" type="matrix" values="0 0 0 0 0 0 0 0 0 0 0 0 0 0 0 0 0 0 127 0" result="hardAlpha"/>
<feOffset dy="4"/>
<feComposite in2="hardAlpha" operator="out"/>
<feColorMatrix type="matrix" values="0 0 0 0 0 0 0 0 0 0 0 0 0 0 0 0 0 0 0.25 0"/>
<feBlend mode="normal" in2="BackgroundImageFix" result="effect1_dropShadow_570_552"/>
<feBlend mode="normal" in="SourceGraphic" in2="effect1_dropShadow_570_552" result="shape"/>
</filter>
<clipPath id="clip0_570_552">
<rect width="545.05" height="449.96" fill="white" style="fill:white;fill-opacity:1;" transform="translate(684.455 408.247) rotate(155)"/>
</clipPath>
</defs>
</svg>
