<svg width="57" height="56" viewBox="0 0 57 56" fill="none" xmlns="http://www.w3.org/2000/svg">
<path d="M49 2.98425H7C5.93913 2.98425 4.92172 3.40513 4.17157 4.15429C3.42143 4.90345 3 5.91953 3 6.979V48.9239C3 49.9834 3.42143 50.9994 4.17157 51.7486C4.92172 52.4978 5.93913 52.9186 7 52.9186H49C50.0609 52.9186 51.0783 52.4978 51.8284 51.7486C52.5786 50.9994 53 49.9834 53 48.9239V6.979C53 5.91953 52.5786 4.90345 51.8284 4.15429C51.0783 3.40513 50.0609 2.98425 49 2.98425Z" fill="#61B2E4" style="fill:#61B2E4;fill:color(display-p3 0.3804 0.6980 0.8941);fill-opacity:1;"/>
<path d="M28.9346 52.9276H38.4346" stroke="white" style="stroke:white;stroke-opacity:1;" stroke-width="2.3" stroke-miterlimit="10"/>
<path d="M40.4995 17.8088H45.1875V10.787C42.0615 10.787 29.5615 7.6661 29.5615 20.9297V25.6105H23.3115V33.4133H29.5615V51.9529L37.3745 51.9389V33.4143H44.4055L45.1865 25.6115H37.3745V20.9307C37.3745 17.8098 39.7185 17.8088 40.4995 17.8088Z" fill="white" style="fill:white;fill-opacity:1;"/>
<path d="M37.619 52.9186H49.774C50.6296 52.9186 51.4501 52.5792 52.0551 51.975C52.6601 51.3708 53 50.5513 53 49.6969V6.20602C53 5.35155 52.6601 4.53209 52.0551 3.92789C51.4501 3.32369 50.6296 2.98425 49.774 2.98425H6.226C5.37041 2.98425 4.54987 3.32369 3.94487 3.92789C3.33988 4.53209 3 5.35155 3 6.20602V49.6969C3 50.5513 3.33988 51.3708 3.94487 51.975C4.54987 52.5792 5.37041 52.9186 6.226 52.9186H29.702" stroke="black" style="stroke:black;stroke-opacity:1;" stroke-width="2.3" stroke-miterlimit="10"/>
<path d="M37.6182 52.9187V33.1527H44.7432L45.5352 25.2461H37.6182V20.5023C37.6182 17.3394 39.9932 17.3394 40.7852 17.3394H45.5352V10.2248C42.3352 9.90121 29.7012 7.06294 29.7012 20.5033V25.247H23.3682V33.1537H29.7012V52.9187" stroke="black" style="stroke:black;stroke-opacity:1;" stroke-width="2.3" stroke-linecap="round" stroke-linejoin="round"/>
</svg>
