<svg width="27" height="28" viewBox="0 0 27 28" fill="none" xmlns="http://www.w3.org/2000/svg">
<path d="M21.4591 23.8642L8.87598 19.95V1.12L21.3747 5.00499C21.6509 5.09233 21.8928 5.2692 22.0649 5.50963C22.2371 5.75006 22.3303 6.04139 22.331 6.34083V23.1992C22.3315 23.3086 22.307 23.4166 22.2596 23.5144C22.2122 23.6121 22.1432 23.6969 22.0582 23.7617C21.9732 23.8266 21.8746 23.8696 21.7705 23.8874C21.6664 23.9052 21.5597 23.8973 21.4591 23.8642Z" fill="#094067" style="fill:#094067;fill:color(display-p3 0.0353 0.2510 0.4039);fill-opacity:1;"/>
<path d="M21.4591 23.8642L8.87598 19.95V1.12L21.3747 5.00499C21.6509 5.09233 21.8928 5.2692 22.0649 5.50963C22.2371 5.75006 22.3303 6.04139 22.331 6.34083V23.1992C22.3315 23.3086 22.307 23.4166 22.2596 23.5144C22.2122 23.6121 22.1432 23.6969 22.0582 23.7617C21.9732 23.8266 21.8746 23.8696 21.7705 23.8874C21.6664 23.9052 21.5597 23.8973 21.4591 23.8642Z" stroke="black" style="stroke:black;stroke-opacity:1;" stroke-linecap="round" stroke-linejoin="round"/>
<path d="M11.6214 1.9775L8.87645 1.12V19.95L11.6214 20.8017V1.9775ZM8.87645 1.12L5.5127 3.56416V11.1475L8.87645 8.04999V1.12Z" fill="#094067" style="fill:#094067;fill:color(display-p3 0.0353 0.2510 0.4039);fill-opacity:1;"/>
<path d="M8.87645 1.12L11.6214 1.9775V20.8017L8.87645 19.95V1.12ZM8.87645 1.12L5.5127 3.56416V11.1475L8.87645 8.04999V1.12Z" stroke="black" style="stroke:black;stroke-opacity:1;" stroke-linecap="round" stroke-linejoin="round"/>
<path opacity="0.15" d="M5.76563 26.3725C5.76562 26.5097 5.96568 26.6454 6.35437 26.7721C6.74306 26.8988 7.31277 27.0139 8.03097 27.1109C8.74917 27.2078 9.6018 27.2847 10.5402 27.3372C11.4786 27.3897 12.4843 27.4167 13.5 27.4167C14.5157 27.4167 15.5214 27.3897 16.4598 27.3372C17.3982 27.2847 18.2508 27.2078 18.969 27.1109C19.6872 27.0139 20.2569 26.8988 20.6456 26.7721C21.0343 26.6454 21.2344 26.5097 21.2344 26.3725C21.2344 26.2354 21.0343 26.0996 20.6456 25.973C20.2569 25.8463 19.6872 25.7312 18.969 25.6342C18.2508 25.5372 17.3982 25.4603 16.4598 25.4079C15.5214 25.3554 14.5157 25.3284 13.5 25.3284C12.4843 25.3284 11.4786 25.3554 10.5402 25.4079C9.6018 25.4603 8.74917 25.5372 8.03097 25.6342C7.31277 25.7312 6.74306 25.8463 6.35437 25.973C5.96568 26.0996 5.76562 26.2354 5.76563 26.3725Z" fill="black" style="fill:black;fill-opacity:1;"/>
<path d="M18.0898 25.6316L20.6436 23.6133V6.52747L18.0898 8.3533V25.6316Z" fill="#FFFCE5" style="fill:#FFFCE5;fill:color(display-p3 1.0000 0.9882 0.8980);fill-opacity:1;"/>
<path d="M18.0898 8.3533V11.1358L20.6436 9.30413V6.52747L18.0898 8.3533Z" fill="#FFFCE5" style="fill:#FFFCE5;fill:color(display-p3 1.0000 0.9882 0.8980);fill-opacity:1;"/>
<path d="M18.0898 25.6316L20.6436 23.6133V6.52747L18.0898 8.3533V25.6316Z" stroke="black" style="stroke:black;stroke-opacity:1;" stroke-linecap="round" stroke-linejoin="round"/>
<path d="M8.87645 2.86414L6.35645 4.6958L18.1239 8.3533L20.6439 6.52747L8.87645 2.86414Z" fill="#FFFCE5" stroke="black" style="fill:#FFFCE5;fill:color(display-p3 1.0000 0.9882 0.8980);fill-opacity:1;stroke:black;stroke-opacity:1;" stroke-linecap="round" stroke-linejoin="round"/>
<path d="M18.0958 26.3025L5.99645 22.54C5.85684 22.4973 5.73431 22.4088 5.64713 22.2879C5.55995 22.1671 5.5128 22.0202 5.5127 21.8692V3.56421L18.0002 7.44921C18.2773 7.53489 18.5203 7.71133 18.6926 7.95213C18.865 8.19293 18.9576 8.48515 18.9564 8.78504V25.6667C18.9522 25.7723 18.9247 25.8755 18.8761 25.9684C18.8275 26.0613 18.7591 26.1415 18.6761 26.2029C18.593 26.2642 18.4976 26.3051 18.3971 26.3223C18.2965 26.3396 18.1935 26.3328 18.0958 26.3025Z" fill="#094067" style="fill:#094067;fill:color(display-p3 0.0353 0.2510 0.4039);fill-opacity:1;"/>
<path d="M18.0002 7.44921L5.5127 3.56421V5.61171L18.0002 9.49671C18.2773 9.58239 18.5203 9.75883 18.6926 9.99963C18.865 10.2404 18.9576 10.5326 18.9564 10.8325V8.78504C18.9576 8.48515 18.865 8.19293 18.6926 7.95214C18.5203 7.71133 18.2773 7.53489 18.0002 7.44921Z" fill="#094067" style="fill:#094067;fill:color(display-p3 0.0353 0.2510 0.4039);fill-opacity:1;"/>
<path d="M18.0958 26.3025L5.99645 22.54C5.85684 22.4973 5.73431 22.4088 5.64713 22.2879C5.55995 22.1671 5.5128 22.0202 5.5127 21.8692V3.56421L18.0002 7.44921C18.2773 7.53489 18.5203 7.71133 18.6926 7.95213C18.865 8.19293 18.9576 8.48515 18.9564 8.78504V25.6667C18.9522 25.7723 18.9247 25.8755 18.8761 25.9684C18.8275 26.0613 18.7591 26.1415 18.6761 26.2029C18.593 26.2642 18.4976 26.3051 18.3971 26.3223C18.2965 26.3396 18.1935 26.3328 18.0958 26.3025Z" stroke="black" style="stroke:black;stroke-opacity:1;" stroke-linecap="round" stroke-linejoin="round"/>
<path d="M8.26332 4.41588L5.5127 3.56421V21.8692C5.5128 22.0202 5.55995 22.1671 5.64713 22.2879C5.73431 22.4088 5.85684 22.4973 5.99645 22.54L8.24645 23.2459L8.26332 4.41588Z" fill="#094067" style="fill:#094067;fill:color(display-p3 0.0353 0.2510 0.4039);fill-opacity:1;"/>
<path d="M5.5127 3.56421V5.61171L8.26332 6.46338V4.41588L5.5127 3.56421Z" fill="#094067" style="fill:#094067;fill:color(display-p3 0.0353 0.2510 0.4039);fill-opacity:1;"/>
<path d="M8.26332 4.41588L5.5127 3.56421V21.8692C5.5128 22.0202 5.55995 22.1671 5.64713 22.2879C5.73431 22.4088 5.85684 22.4973 5.99645 22.54L8.24645 23.2459L8.26332 4.41588Z" stroke="black" style="stroke:black;stroke-opacity:1;" stroke-linecap="round" stroke-linejoin="round"/>
<path d="M15.6427 13.405L11.3564 12.0984V9.3042L15.6427 10.6167V13.405Z" fill="#FFFCE5" stroke="black" style="fill:#FFFCE5;fill:color(display-p3 1.0000 0.9882 0.8980);fill-opacity:1;stroke:black;stroke-opacity:1;" stroke-linecap="round" stroke-linejoin="round"/>
</svg>
