<svg width="105" height="71" viewBox="0 0 105 71" fill="none" xmlns="http://www.w3.org/2000/svg">
<path d="M0.762578 26V0.799998H10.9146C12.7626 0.799998 14.2506 1.34 15.3786 2.42C16.5066 3.476 17.0706 4.892 17.0706 6.668C17.0706 7.748 16.8786 8.66 16.4946 9.404C16.1346 10.148 15.6786 10.736 15.1266 11.168C14.5746 11.6 14.0346 11.9 13.5066 12.068V12.32C14.1546 12.488 14.8146 12.848 15.4866 13.4C16.1826 13.928 16.7706 14.648 17.2506 15.56C17.7306 16.472 17.9706 17.576 17.9706 18.872C17.9706 20.408 17.6586 21.716 17.0346 22.796C16.4346 23.852 15.5826 24.656 14.4786 25.208C13.3986 25.736 12.1266 26 10.6626 26H0.762578ZM6.45058 20.852H9.40258C10.1466 20.852 10.7586 20.612 11.2386 20.132C11.7426 19.652 11.9946 18.98 11.9946 18.116C11.9946 17.252 11.7426 16.592 11.2386 16.136C10.7586 15.68 10.1466 15.452 9.40258 15.452H6.45058V20.852ZM6.45058 10.988H9.25858C9.90658 10.988 10.4466 10.748 10.8786 10.268C11.3106 9.788 11.5266 9.14 11.5266 8.324C11.5266 7.484 11.3106 6.836 10.8786 6.38C10.4466 5.924 9.90658 5.696 9.25858 5.696H6.45058V10.988ZM19.0579 13.4C19.0579 10.352 19.5499 7.868 20.5339 5.948C21.5179 4.028 22.8019 2.624 24.3859 1.736C25.9939 0.823999 27.7339 0.368 29.6059 0.368C31.4779 0.368 33.2059 0.823999 34.7899 1.736C36.3979 2.624 37.6939 4.028 38.6779 5.948C39.6619 7.868 40.1539 10.352 40.1539 13.4C40.1539 16.448 39.6619 18.932 38.6779 20.852C37.6939 22.772 36.3979 24.188 34.7899 25.1C33.2059 25.988 31.4779 26.432 29.6059 26.432C27.7339 26.432 25.9939 25.988 24.3859 25.1C22.8019 24.188 21.5179 22.772 20.5339 20.852C19.5499 18.932 19.0579 16.448 19.0579 13.4ZM24.9619 13.4C24.9619 15.08 25.1659 16.484 25.5739 17.612C25.9819 18.74 26.5339 19.592 27.2299 20.168C27.9499 20.744 28.7419 21.032 29.6059 21.032C30.4699 21.032 31.2619 20.744 31.9819 20.168C32.7019 19.592 33.2659 18.74 33.6739 17.612C34.1059 16.484 34.3219 15.08 34.3219 13.4C34.3219 11.696 34.1059 10.28 33.6739 9.152C33.2419 8.024 32.6659 7.184 31.9459 6.632C31.2499 6.056 30.4699 5.768 29.6059 5.768C28.7419 5.768 27.9499 6.056 27.2299 6.632C26.5339 7.208 25.9819 8.06 25.5739 9.188C25.1659 10.316 24.9619 11.72 24.9619 13.4ZM41.593 13.4C41.593 10.352 42.085 7.868 43.069 5.948C44.053 4.028 45.337 2.624 46.921 1.736C48.529 0.823999 50.269 0.368 52.141 0.368C54.013 0.368 55.741 0.823999 57.325 1.736C58.933 2.624 60.229 4.028 61.213 5.948C62.197 7.868 62.689 10.352 62.689 13.4C62.689 16.448 62.197 18.932 61.213 20.852C60.229 22.772 58.933 24.188 57.325 25.1C55.741 25.988 54.013 26.432 52.141 26.432C50.269 26.432 48.529 25.988 46.921 25.1C45.337 24.188 44.053 22.772 43.069 20.852C42.085 18.932 41.593 16.448 41.593 13.4ZM47.497 13.4C47.497 15.08 47.701 16.484 48.109 17.612C48.517 18.74 49.069 19.592 49.765 20.168C50.485 20.744 51.277 21.032 52.141 21.032C53.005 21.032 53.797 20.744 54.517 20.168C55.237 19.592 55.801 18.74 56.209 17.612C56.641 16.484 56.857 15.08 56.857 13.4C56.857 11.696 56.641 10.28 56.209 9.152C55.777 8.024 55.201 7.184 54.481 6.632C53.785 6.056 53.005 5.768 52.141 5.768C51.277 5.768 50.485 6.056 49.765 6.632C49.069 7.208 48.517 8.06 48.109 9.188C47.701 10.316 47.497 11.72 47.497 13.4ZM64.1282 13.4C64.1282 10.352 64.6202 7.868 65.6042 5.948C66.5882 4.028 67.8722 2.624 69.4562 1.736C71.0642 0.823999 72.8042 0.368 74.6762 0.368C76.5482 0.368 78.2762 0.823999 79.8602 1.736C81.4682 2.624 82.7642 4.028 83.7482 5.948C84.7322 7.868 85.2242 10.352 85.2242 13.4C85.2242 16.448 84.7322 18.932 83.7482 20.852C82.7642 22.772 81.4682 24.188 79.8602 25.1C78.2762 25.988 76.5482 26.432 74.6762 26.432C72.8042 26.432 71.0642 25.988 69.4562 25.1C67.8722 24.188 66.5882 22.772 65.6042 20.852C64.6202 18.932 64.1282 16.448 64.1282 13.4ZM70.0322 13.4C70.0322 15.08 70.2362 16.484 70.6442 17.612C71.0522 18.74 71.6042 19.592 72.3002 20.168C73.0202 20.744 73.8122 21.032 74.6762 21.032C75.5402 21.032 76.3322 20.744 77.0522 20.168C77.7722 19.592 78.3362 18.74 78.7442 17.612C79.1762 16.484 79.3922 15.08 79.3922 13.4C79.3922 11.696 79.1762 10.28 78.7442 9.152C78.3122 8.024 77.7362 7.184 77.0162 6.632C76.3202 6.056 75.5402 5.768 74.6762 5.768C73.8122 5.768 73.0202 6.056 72.3002 6.632C71.6042 7.208 71.0522 8.06 70.6442 9.188C70.2362 10.316 70.0322 11.72 70.0322 13.4ZM87.5634 26V0.799998H93.3234V10.448H93.8634L98.6514 0.799998H104.663V1.7L98.3634 13.22L104.663 25.1V26H98.6514L93.8634 16.064H93.3234V26H87.5634Z" fill="#094067"/>
<path d="M0.723906 57.4C0.723906 55.168 1.02391 53.236 1.62391 51.604C2.22391 49.972 3.02791 48.628 4.03591 47.572C5.06791 46.492 6.23191 45.7 7.52791 45.196C8.82391 44.668 10.1679 44.404 11.5599 44.404C12.9039 44.404 14.0079 44.536 14.8719 44.8C15.7599 45.064 16.3959 45.364 16.7799 45.7V51.136H16.0599C15.7479 50.8 15.2919 50.476 14.6919 50.164C14.1159 49.828 13.4079 49.66 12.5679 49.66C11.3919 49.66 10.3599 49.96 9.47191 50.56C8.58391 51.136 7.88791 52 7.38391 53.152C6.87991 54.304 6.62791 55.72 6.62791 57.4C6.62791 59.08 6.87991 60.496 7.38391 61.648C7.88791 62.8 8.58391 63.676 9.47191 64.276C10.3599 64.852 11.3919 65.14 12.5679 65.14C13.4079 65.14 14.1159 64.984 14.6919 64.672C15.2919 64.336 15.7479 64 16.0599 63.664H16.7799V69.1C16.3959 69.412 15.7599 69.712 14.8719 70C14.0079 70.264 12.9039 70.396 11.5599 70.396C10.1679 70.396 8.82391 70.144 7.52791 69.64C6.23191 69.112 5.06791 68.32 4.03591 67.264C3.02791 66.184 2.22391 64.828 1.62391 63.196C1.02391 61.564 0.723906 59.632 0.723906 57.4ZM32.5153 44.8V49.984H25.1713V55.312C25.8913 55.048 26.6353 54.844 27.4033 54.7C28.1713 54.532 28.9273 54.424 29.6713 54.376C30.4153 54.328 31.1113 54.34 31.7593 54.412V59.416L31.3993 59.632C30.8953 59.464 30.3073 59.368 29.6353 59.344C28.9873 59.32 28.2793 59.356 27.5113 59.452C26.7433 59.548 25.9633 59.728 25.1713 59.992V64.816H32.5153V70H19.4833V44.8H32.5153ZM46.3983 44.8H51.9423V70H46.0383L40.6743 55.996H40.3143L40.5663 70H35.0223V44.8H40.9263L46.2903 59.092H46.6503L46.3983 44.8ZM68.846 44.8V50.056H64.31V70H58.622V50.056H53.942V44.8H68.846ZM83.8434 44.8V49.984H76.4994V55.312C77.2194 55.048 77.9634 54.844 78.7314 54.7C79.4994 54.532 80.2554 54.424 80.9994 54.376C81.7434 54.328 82.4394 54.34 83.0874 54.412V59.416L82.7274 59.632C82.2234 59.464 81.6354 59.368 80.9634 59.344C80.3154 59.32 79.6074 59.356 78.8394 59.452C78.0714 59.548 77.2914 59.728 76.4994 59.992V64.816H83.8434V70H70.8114V44.8H83.8434ZM86.4225 44.8H92.1105V70H86.3505L86.4225 44.8ZM95.7825 44.8C97.2225 44.8 98.5065 45.088 99.6345 45.664C100.762 46.216 101.65 47.068 102.298 48.22C102.946 49.348 103.27 50.776 103.27 52.504C103.27 54.28 102.91 55.756 102.19 56.932C101.47 58.108 100.534 58.996 99.3825 59.596C98.2545 60.172 97.0545 60.46 95.7825 60.46H89.1945V44.8H95.7825ZM92.1105 55.6H95.0265C95.5305 55.6 95.9505 55.48 96.2865 55.24C96.6465 55 96.9105 54.664 97.0785 54.232C97.2705 53.776 97.3665 53.272 97.3665 52.72C97.3665 52.168 97.2705 51.688 97.0785 51.28C96.9105 50.872 96.6465 50.56 96.2865 50.344C95.9505 50.104 95.5305 49.984 95.0265 49.984H92.1105V55.6ZM93.2985 57.4H98.7705L103.27 69.1V70H97.3305L93.2985 57.4Z" fill="#3DA9FC"/>
</svg>
