<svg width="105" height="73" viewBox="0 0 105 73" fill="none" xmlns="http://www.w3.org/2000/svg">
<path d="M0.762695 26.9943V1.60144H10.9147C12.7627 1.60144 14.2507 2.14558 15.3787 3.23384C16.5067 4.29792 17.0707 5.72476 17.0707 7.51435C17.0707 8.60261 16.8787 9.52159 16.4947 10.2713C16.1347 11.021 15.6787 11.6135 15.1267 12.0488C14.5747 12.4841 14.0347 12.7864 13.5067 12.9557V13.2096C14.1547 13.3789 14.8147 13.7416 15.4867 14.2979C16.1827 14.8299 16.7707 15.5554 17.2507 16.4744C17.7307 17.3934 17.9707 18.5058 17.9707 19.8117C17.9707 21.3595 17.6587 22.6775 17.0347 23.7658C16.4347 24.8299 15.5827 25.64 14.4787 26.1962C13.3987 26.7283 12.1267 26.9943 10.6627 26.9943H0.762695ZM6.4507 21.8069H9.4027C10.1467 21.8069 10.7587 21.5651 11.2387 21.0814C11.7427 20.5977 11.9947 19.9206 11.9947 19.05C11.9947 18.1793 11.7427 17.5143 11.2387 17.0548C10.7587 16.5953 10.1467 16.3656 9.4027 16.3656H6.4507V21.8069ZM6.4507 11.8674H9.2587C9.9067 11.8674 10.4467 11.6256 10.8787 11.1419C11.3107 10.6582 11.5267 10.0053 11.5267 9.18302C11.5267 8.33659 11.3107 7.68364 10.8787 7.22415C10.4467 6.76466 9.9067 6.53491 9.2587 6.53491H6.4507V11.8674ZM19.058 14.2979C19.058 11.2265 19.55 8.72353 20.534 6.78884C21.518 4.85415 22.802 3.4394 24.386 2.54461C25.994 1.62563 27.734 1.16614 29.606 1.16614C31.478 1.16614 33.206 1.62563 34.79 2.54461C36.398 3.4394 37.694 4.85415 38.678 6.78884C39.662 8.72353 40.154 11.2265 40.154 14.2979C40.154 17.3692 39.662 19.8722 38.678 21.8069C37.694 23.7416 36.398 25.1684 34.79 26.0874C33.206 26.9822 31.478 27.4296 29.606 27.4296C27.734 27.4296 25.994 26.9822 24.386 26.0874C22.802 25.1684 21.518 23.7416 20.534 21.8069C19.55 19.8722 19.058 17.3692 19.058 14.2979ZM24.962 14.2979C24.962 15.9907 25.166 17.4055 25.574 18.5421C25.982 19.6787 26.534 20.5373 27.23 21.1177C27.95 21.6981 28.742 21.9883 29.606 21.9883C30.47 21.9883 31.262 21.6981 31.982 21.1177C32.702 20.5373 33.266 19.6787 33.674 18.5421C34.106 17.4055 34.322 15.9907 34.322 14.2979C34.322 12.5808 34.106 11.154 33.674 10.0174C33.242 8.88073 32.666 8.0343 31.946 7.47807C31.25 6.89767 30.47 6.60746 29.606 6.60746C28.742 6.60746 27.95 6.89767 27.23 7.47807C26.534 8.05848 25.982 8.917 25.574 10.0536C25.166 11.1903 24.962 12.605 24.962 14.2979ZM41.5931 14.2979C41.5931 11.2265 42.0851 8.72353 43.0691 6.78884C44.0531 4.85415 45.3371 3.4394 46.9211 2.54461C48.5291 1.62563 50.2691 1.16614 52.1411 1.16614C54.0131 1.16614 55.7411 1.62563 57.3251 2.54461C58.9331 3.4394 60.2291 4.85415 61.2131 6.78884C62.1971 8.72353 62.6891 11.2265 62.6891 14.2979C62.6891 17.3692 62.1971 19.8722 61.2131 21.8069C60.2291 23.7416 58.9331 25.1684 57.3251 26.0874C55.7411 26.9822 54.0131 27.4296 52.1411 27.4296C50.2691 27.4296 48.5291 26.9822 46.9211 26.0874C45.3371 25.1684 44.0531 23.7416 43.0691 21.8069C42.0851 19.8722 41.5931 17.3692 41.5931 14.2979ZM47.4971 14.2979C47.4971 15.9907 47.7011 17.4055 48.1091 18.5421C48.5171 19.6787 49.0691 20.5373 49.7651 21.1177C50.4851 21.6981 51.2771 21.9883 52.1411 21.9883C53.0051 21.9883 53.7971 21.6981 54.5171 21.1177C55.2371 20.5373 55.8011 19.6787 56.2091 18.5421C56.6411 17.4055 56.8571 15.9907 56.8571 14.2979C56.8571 12.5808 56.6411 11.154 56.2091 10.0174C55.7771 8.88073 55.2011 8.0343 54.4811 7.47807C53.7851 6.89767 53.0051 6.60746 52.1411 6.60746C51.2771 6.60746 50.4851 6.89767 49.7651 7.47807C49.0691 8.05848 48.5171 8.917 48.1091 10.0536C47.7011 11.1903 47.4971 12.605 47.4971 14.2979ZM64.1283 14.2979C64.1283 11.2265 64.6203 8.72353 65.6043 6.78884C66.5883 4.85415 67.8723 3.4394 69.4563 2.54461C71.0643 1.62563 72.8043 1.16614 74.6763 1.16614C76.5483 1.16614 78.2763 1.62563 79.8603 2.54461C81.4683 3.4394 82.7643 4.85415 83.7483 6.78884C84.7323 8.72353 85.2243 11.2265 85.2243 14.2979C85.2243 17.3692 84.7323 19.8722 83.7483 21.8069C82.7643 23.7416 81.4683 25.1684 79.8603 26.0874C78.2763 26.9822 76.5483 27.4296 74.6763 27.4296C72.8043 27.4296 71.0643 26.9822 69.4563 26.0874C67.8723 25.1684 66.5883 23.7416 65.6043 21.8069C64.6203 19.8722 64.1283 17.3692 64.1283 14.2979ZM70.0323 14.2979C70.0323 15.9907 70.2363 17.4055 70.6443 18.5421C71.0523 19.6787 71.6043 20.5373 72.3003 21.1177C73.0203 21.6981 73.8123 21.9883 74.6763 21.9883C75.5403 21.9883 76.3323 21.6981 77.0523 21.1177C77.7723 20.5373 78.3363 19.6787 78.7443 18.5421C79.1763 17.4055 79.3923 15.9907 79.3923 14.2979C79.3923 12.5808 79.1763 11.154 78.7443 10.0174C78.3123 8.88073 77.7363 8.0343 77.0163 7.47807C76.3203 6.89767 75.5403 6.60746 74.6763 6.60746C73.8123 6.60746 73.0203 6.89767 72.3003 7.47807C71.6043 8.05848 71.0523 8.917 70.6443 10.0536C70.2363 11.1903 70.0323 12.605 70.0323 14.2979ZM87.5635 26.9943V1.60144H93.3235V11.3233H93.8635L98.6515 1.60144H104.663V2.50833L98.3635 14.1165L104.663 26.0874V26.9943H98.6515L93.8635 16.9823H93.3235V26.9943H87.5635Z" fill="white" style="fill:white;fill-opacity:1;"/>
<path d="M0.723633 58.6345C0.723633 56.3854 1.02364 54.4387 1.62364 52.7942C2.22364 51.1497 3.02764 49.7954 4.03564 48.7313C5.06764 47.643 6.23164 46.845 7.52764 46.3371C8.82364 45.8051 10.1676 45.5391 11.5596 45.5391C12.9036 45.5391 14.0076 45.6721 14.8716 45.9381C15.7596 46.2041 16.3956 46.5064 16.7796 46.845V52.3226H16.0596C15.7476 51.984 15.2916 51.6575 14.6916 51.3431C14.1156 51.0046 13.4076 50.8353 12.5676 50.8353C11.3916 50.8353 10.3596 51.1376 9.47164 51.7422C8.58364 52.3226 7.88764 53.1932 7.38364 54.354C6.87964 55.5148 6.62764 56.9417 6.62764 58.6345C6.62764 60.3274 6.87964 61.7542 7.38364 62.915C7.88764 64.0758 8.58364 64.9585 9.47164 65.5631C10.3596 66.1435 11.3916 66.4337 12.5676 66.4337C13.4076 66.4337 14.1156 66.2766 14.6916 65.9622C15.2916 65.6236 15.7476 65.285 16.0596 64.9465H16.7796V70.4241C16.3956 70.7384 15.7596 71.0407 14.8716 71.3309C14.0076 71.597 12.9036 71.73 11.5596 71.73C10.1676 71.73 8.82364 71.476 7.52764 70.9682C6.23164 70.4361 5.06764 69.6381 4.03564 68.574C3.02764 67.4857 2.22364 66.1194 1.62364 64.4749C1.02364 62.8304 0.723633 60.8836 0.723633 58.6345ZM32.515 45.9381V51.1618H25.171V56.5305C25.891 56.2645 26.635 56.059 27.403 55.9139C28.171 55.7446 28.927 55.6357 29.671 55.5874C30.415 55.539 31.111 55.5511 31.759 55.6236V60.6659L31.399 60.8836C30.895 60.7143 30.307 60.6176 29.635 60.5934C28.987 60.5692 28.279 60.6055 27.511 60.7022C26.743 60.799 25.963 60.9803 25.171 61.2464V66.1073H32.515V71.3309H19.483V45.9381H32.515ZM46.398 45.9381H51.942V71.3309H46.038L40.674 57.2198H40.314L40.566 71.3309H35.022V45.9381H40.926L46.29 60.3395H46.65L46.398 45.9381ZM68.8457 45.9381V51.2343H64.3097V71.3309H58.6217V51.2343H53.9417V45.9381H68.8457ZM83.8431 45.9381V51.1618H76.4991V56.5305C77.2191 56.2645 77.9631 56.059 78.7311 55.9139C79.4991 55.7446 80.2551 55.6357 80.9991 55.5874C81.7431 55.539 82.4391 55.5511 83.0871 55.6236V60.6659L82.7271 60.8836C82.2231 60.7143 81.6351 60.6176 80.9631 60.5934C80.3151 60.5692 79.6071 60.6055 78.8391 60.7022C78.0711 60.799 77.2911 60.9803 76.4991 61.2464V66.1073H83.8431V71.3309H70.8111V45.9381H83.8431ZM86.4222 45.9381H92.1102V71.3309H86.3502L86.4222 45.9381ZM95.7822 45.9381C97.2222 45.9381 98.5062 46.2283 99.6342 46.8087C100.762 47.3649 101.65 48.2235 102.298 49.3843C102.946 50.5209 103.27 51.9598 103.27 53.7011C103.27 55.4906 102.91 56.9779 102.19 58.1629C101.47 59.3479 100.534 60.2427 99.3822 60.8473C98.2542 61.4277 97.0542 61.7179 95.7822 61.7179H89.1942V45.9381H95.7822ZM92.1102 56.8207H95.0262C95.5302 56.8207 95.9502 56.6998 96.2862 56.458C96.6462 56.2162 96.9102 55.8776 97.0782 55.4423C97.2702 54.9828 97.3662 54.4749 97.3662 53.9187C97.3662 53.3625 97.2702 52.8788 97.0782 52.4677C96.9102 52.0566 96.6462 51.7422 96.2862 51.5245C95.9502 51.2827 95.5302 51.1618 95.0262 51.1618H92.1102V56.8207ZM93.2982 58.6345H98.7702L103.27 70.4241V71.3309H97.3302L93.2982 58.6345Z" fill="#3DA9FC" style="fill:#3DA9FC;fill:color(display-p3 0.2392 0.6627 0.9882);fill-opacity:1;"/>
</svg>
