<svg width="100" height="100" viewBox="0 0 100 100" fill="none" xmlns="http://www.w3.org/2000/svg">
<g clip-path="url(#clip0_455_2)">
<path d="M27.8205 72.9677C28.7343 73.5165 29.6219 74.1108 30.5656 74.6088C37.6625 78.3517 45.6231 80.2292 53.6501 79.5876C55.9222 79.4064 58.2 78.991 60.4095 78.4405C63.375 77.7017 66.2118 76.6915 68.9489 75.3302C70.0807 74.7666 71.1647 74.1162 72.2498 73.4691L77.0911 80.8512L78.9265 83.9526C79.1823 84.3994 79.4057 84.9662 79.7221 85.367C77.9867 86.6587 76.2849 87.9165 74.4352 89.049C69.6383 91.9861 64.1606 94.037 58.6204 94.9924C56.136 95.4208 53.6247 95.6166 51.1061 95.66C45.2939 95.7596 39.607 94.9388 34.1057 93.0353C32.4366 92.4577 30.7544 91.8079 29.1753 91.0118C27.2395 90.0358 25.3202 88.9362 23.531 87.7113L19.9512 85.1108L21.2761 82.7063C22.6682 80.2092 24.1648 77.7721 25.8451 75.456C26.4575 74.6118 27.1977 73.8544 27.7927 73.0083L27.8205 72.9677Z" fill="#291B1D" style="fill:#291B1D;fill:color(display-p3 0.1608 0.1059 0.1137);fill-opacity:1;"/>
<path d="M19.9512 85.1109L18.1772 83.5726C16.714 82.2419 15.3012 80.8357 13.9922 79.3532C7.46918 71.9661 3.43908 62.4468 2.92571 52.588C2.71548 48.551 2.90017 44.5214 3.64948 40.5421C5.1803 32.4121 9.07765 24.732 14.612 18.606C16.6401 16.3611 18.885 14.223 21.2832 12.3757C23.661 10.5441 26.2405 8.95441 28.906 7.57956C30.0354 6.99693 31.1614 6.42251 32.3368 5.93549C34.8089 4.91125 37.3772 4.16862 39.9896 3.5998C42.4761 3.05858 45.0485 2.65596 47.5928 2.53236C55.8016 2.13294 64.2934 3.94481 71.588 7.73776C75.3221 9.67924 78.8543 12.2147 81.9672 15.0429C90.922 23.1788 96.6166 34.8404 97.1698 46.9461C97.4974 54.1184 96.2626 61.4893 93.3225 68.0652C91.315 72.5552 88.422 76.8649 85.1041 80.4875L79.7222 85.3671C79.4058 84.9662 79.1824 84.3994 78.9265 83.9526L77.0911 80.8513L72.2498 73.4692C72.9138 73.0326 73.5944 72.6548 74.2376 72.1801C78.0173 69.3894 81.0794 65.5715 82.6166 61.0957C83.9561 57.1951 84.0795 52.9894 83.2837 48.9624C82.9804 47.4285 82.5272 45.9381 82.0444 44.4528C81.4852 42.7328 80.8886 41.0259 80.0926 39.399C79.8256 38.9522 79.625 38.429 79.3958 37.9594C78.8827 36.9061 78.3729 35.8679 77.7757 34.8584C76.1747 32.1505 74.1204 29.703 71.907 27.4771C70.0041 25.5635 67.8917 23.7232 65.5586 22.3497C64.1548 21.5109 62.751 20.7305 61.2303 20.1197C55.2092 17.7014 48.2384 17.5616 41.9849 19.1282C39.9602 19.6354 38.0162 20.3601 36.1533 21.3013L34.7175 22.0825C34.5247 22.1929 34.3289 22.3389 34.1291 22.4307C32.9948 23.0718 31.927 23.8954 30.9074 24.7032C27.7555 27.2007 24.8865 30.2887 22.6516 33.6356C21.4768 35.3953 20.4581 37.2661 19.5487 39.1742C18.2341 42.0787 17.1818 45.2253 16.7028 48.3866C16.4104 50.3161 16.3357 52.3243 16.4221 54.2716C16.5327 56.7635 16.9514 59.2006 17.8287 61.5449C19.6735 66.4733 23.5016 70.1341 27.8205 72.9678L27.7927 73.0084C27.1977 73.8544 26.4575 74.6118 25.8451 75.4561C24.1648 77.7722 22.6682 80.2093 21.2762 82.7064L19.9512 85.1109Z" fill="#68A5D1" style="fill:#68A5D1;fill:color(display-p3 0.4085 0.6482 0.8183);fill-opacity:1;"/>
<path d="M19.5485 39.1742C17.9927 38.9274 16.9361 37.8301 16.0476 36.5943C14.0095 33.7592 13.0757 29.6126 13.6431 26.1671C14.1282 23.2216 15.6324 20.2298 18.1084 18.4726C20.2426 16.9579 23.0985 16.5451 25.6437 16.9761C27.9746 17.3707 30.0076 18.4888 31.8053 19.9938C32.6679 20.7163 33.4739 21.5127 34.1289 22.4307C32.9947 23.0717 31.9269 23.8954 30.9073 24.7032C27.7554 27.2007 24.8863 30.2886 22.6515 33.6356C21.4766 35.3952 20.458 37.2661 19.5485 39.1742Z" fill="#291B1D" style="fill:#291B1D;fill:color(display-p3 0.1608 0.1059 0.1137);fill-opacity:1;"/>
<path d="M65.5586 22.3496C65.7754 21.9688 66.1572 21.6468 66.4706 21.3444C68.4191 19.4633 71.0309 17.9633 73.6388 17.2486C76.2347 16.5376 79.0023 16.6882 81.3656 18.0491C83.8686 19.4903 85.5889 22.2096 86.3277 24.9482C87.2223 28.2649 86.4717 32.2804 84.7466 35.2188C83.932 36.6062 82.7192 37.8283 81.369 38.7007C80.9658 38.9615 80.5173 39.1739 80.0925 39.3989C79.8255 38.9521 79.6249 38.4289 79.3957 37.9593C78.8827 36.906 78.3729 35.8678 77.7757 34.8583C76.1746 32.1504 74.1204 29.7029 71.9069 27.4771C70.0041 25.5634 67.8916 23.7231 65.5586 22.3496Z" fill="#291B1D" style="fill:#291B1D;fill:color(display-p3 0.1608 0.1059 0.1137);fill-opacity:1;"/>
<path d="M34.1284 22.4307C34.3282 22.3389 34.524 22.1929 34.7168 22.0825L36.1526 21.3013C38.0155 20.36 39.9595 19.6354 41.9842 19.1282C48.2377 17.5615 55.2085 17.7013 61.2296 20.1196C62.7503 20.7304 64.1541 21.5109 65.5579 22.3497C67.891 23.7232 70.0034 25.5634 71.9063 27.4771C74.1197 29.703 76.174 32.1505 77.775 34.8584C78.3722 35.8678 78.8821 36.9061 79.3951 37.9593C79.6243 38.429 79.8249 38.9522 80.0919 39.399C80.8879 41.0259 81.4845 42.7327 82.0437 44.4528C82.5265 45.9381 82.9798 47.4285 83.283 48.9624C84.0788 52.9893 83.9554 57.1951 82.6159 61.0957C81.0787 65.5714 78.0166 69.3894 74.2369 72.1801C73.5937 72.6547 72.9131 73.0325 72.2491 73.4691C71.1641 74.1162 70.08 74.7666 68.9482 75.3302C66.2111 76.6915 63.3743 77.7017 60.4088 78.4405C58.1994 78.991 55.9215 79.4064 53.6494 79.5876C45.6225 80.2292 37.6619 78.3517 30.5649 74.6088C29.6213 74.1108 28.7336 73.5166 27.8198 72.9677C23.5009 70.134 19.6728 66.4733 17.828 61.5449C16.9507 59.2006 16.532 56.7635 16.4214 54.2716C16.335 52.3243 16.4097 50.316 16.7021 48.3865C17.1811 45.2252 18.2334 42.0787 19.548 39.1742C20.4574 37.2661 21.4761 35.3952 22.6509 33.6356C24.8858 30.2886 27.7548 27.2007 30.9067 24.7032C31.9263 23.8954 32.9941 23.0717 34.1284 22.4307Z" fill="white" style="fill:white;fill-opacity:1;"/>
<path d="M56.633 60.6406C56.6868 60.4554 56.6804 60.3582 56.8603 60.2626C57.1009 60.1342 57.3587 60.0398 57.5999 59.9086C58.8511 59.2274 60.0483 58.4177 61.0294 57.3811C60.7153 58.2757 60.4799 59.18 60.0835 60.0462C58.9383 62.5483 56.7698 64.8628 54.2826 66.0524C51.9929 67.1471 49.6491 67.1995 47.2672 66.3551C44.457 65.359 41.9723 62.9325 40.7099 60.2542C40.2875 59.3582 40.027 58.4397 39.8398 57.4719C40.7137 58.4525 41.8175 59.1952 42.9431 59.8602L43.6749 60.265C43.7765 60.3202 43.9617 60.3974 44.0399 60.4788C44.0841 60.5252 44.1271 60.894 44.1515 60.9848C44.2928 61.4999 44.4544 61.9771 44.73 62.4375C45.5506 63.81 47.015 64.665 48.5395 65.0372C50.3645 65.483 52.5343 65.148 54.1374 64.165C55.4598 63.3545 56.2688 62.1323 56.633 60.6406Z" fill="#231F20" style="fill:#231F20;fill:color(display-p3 0.1373 0.1216 0.1255);fill-opacity:1;"/>
<path d="M49.0798 50.3605C50.1066 50.3067 51.1404 50.3149 52.1625 50.4375C52.6439 50.4951 53.1243 50.5567 53.5849 50.7163C54.0359 50.8727 54.4647 51.1309 54.6649 51.5849C54.9579 52.2505 54.6239 53.1184 54.3725 53.7502C53.7709 55.2609 52.7939 56.5755 51.2746 57.2347L50.743 57.3577C49.7122 57.5017 48.7798 57.1345 47.9756 56.5119C46.8561 55.6447 45.8069 53.9142 45.6391 52.5069C45.5857 52.0581 45.6019 51.6797 45.8993 51.3165C46.5443 50.5289 48.1454 50.4391 49.0798 50.3605Z" fill="#231F20" style="fill:#231F20;fill:color(display-p3 0.1373 0.1216 0.1255);fill-opacity:1;"/>
<path d="M38.015 36.639C38.2728 36.5962 38.6024 36.6176 38.866 36.625C40.0934 36.6592 41.2161 37.0482 42.0693 37.9563C43.1567 39.1137 43.5325 40.667 43.4919 42.2216C43.4213 44.9165 42.8597 47.7557 40.8502 49.7073C39.8684 50.6612 38.7968 51.5074 37.9444 52.5895C36.9682 53.8293 36.4055 55.4304 35.2479 56.5124C34.1031 57.5823 32.5998 58.2287 31.0482 58.4089C30.3358 58.4915 29.6026 58.4641 28.8874 58.4363C27.5411 58.3147 26.2933 57.9095 25.2435 57.0328C24.1428 56.1144 23.366 54.8561 23.2478 53.4127C23.0772 51.332 23.9616 49.2573 24.8825 47.4352C25.7505 45.7176 26.7631 44.0717 28.0151 42.6051C30.4754 39.7233 34.1311 36.9394 38.015 36.639Z" fill="#291B1D" style="fill:#291B1D;fill:color(display-p3 0.1608 0.1059 0.1137);fill-opacity:1;"/>
<path d="M35.5291 43.9576C36.3975 43.914 37.1678 44.0946 37.9098 44.5534C38.7238 45.0568 39.422 45.9666 39.6282 46.9099C39.842 47.8879 39.693 48.7614 39.1306 49.5976C38.484 50.559 37.4512 51.0938 36.3381 51.3125C35.4077 51.4103 34.5639 51.1298 33.8127 50.58C33.0203 50 32.253 48.981 32.1212 47.9821C31.9946 47.0233 32.2824 46.1532 32.8651 45.3912C33.5297 44.522 34.4615 44.095 35.5291 43.9576Z" fill="white" style="fill:white;fill-opacity:1;"/>
<path d="M61.2943 36.5439C63.3103 36.5683 65.304 37.3429 67.0028 38.3897C68.6626 39.4124 70.0893 40.76 71.3653 42.2243C73.1489 44.2718 74.6642 46.5847 75.7448 49.08C76.0728 49.8378 76.4064 50.6196 76.5928 51.4269C76.941 52.9341 76.834 54.4288 76.0006 55.7576C75.0914 57.2063 73.5836 57.9559 71.9605 58.3245L70.6841 58.4935C68.1404 58.6107 65.5634 57.9407 64.0101 55.778C63.3905 54.9152 62.9465 53.9396 62.3143 53.0861C61.5017 51.9883 60.4992 51.1226 59.4948 50.212C57.4758 48.3815 56.6539 46.0784 56.5269 43.3999C56.4415 41.5945 56.4645 39.4514 57.7702 38.0381C58.7516 36.9757 59.8776 36.6063 61.2943 36.5439Z" fill="#291B1D" style="fill:#291B1D;fill:color(display-p3 0.1608 0.1059 0.1137);fill-opacity:1;"/>
<path d="M63.1753 43.9577C64.0763 43.8651 64.9751 44.1151 65.7262 44.6127C66.4928 45.1208 67.0978 46.0454 67.275 46.946C67.447 47.8181 67.2566 48.6653 66.7638 49.3993C66.1438 50.3226 65.1915 50.9268 64.1045 51.125C63.2179 51.2456 62.3385 51.0806 61.5826 50.5912C60.8316 50.106 60.1186 49.1673 59.956 48.2737L59.9228 48.0845C59.768 47.1938 60.0326 46.2098 60.5586 45.4822C61.209 44.5827 62.0973 44.1319 63.1753 43.9577Z" fill="white" style="fill:white;fill-opacity:1;"/>
</g>
<defs>
<clipPath id="clip0_455_2">
<rect width="100" height="100" fill="white" style="fill:white;fill-opacity:1;"/>
</clipPath>
</defs>
</svg>
