<svg width="558" height="508" viewBox="0 0 558 508" fill="none" xmlns="http://www.w3.org/2000/svg">
<g clip-path="url(#clip0_556_550)">
<path d="M132.746 420.028C87.9256 388.169 43.3581 359.927 25.8008 320.708C8.67258 281.004 18.0622 229.903 27.2304 175.635C36.367 120.915 45.2822 63.03 79.7946 40.1659C114.768 17.2696 174.877 29.4269 213.455 58.087C252.002 86.2949 268.588 131.49 281.177 159.241C293.305 187.024 301.928 197.782 361.08 222.731C419.803 248.165 529.055 287.789 546.423 324.295C563.298 360.381 488.257 392.896 427.132 425.801C365.578 459.191 317.416 492.099 270.568 490.83C223.688 489.109 178.059 452.307 132.746 420.028Z" fill="#094067" style="fill:#094067;fill:color(display-p3 0.0353 0.2510 0.4039);fill-opacity:1;"/>
<path d="M250 102C218.871 276.211 114.393 152.695 27.5 183.5" stroke="#EF4565" style="stroke:#EF4565;stroke:color(display-p3 0.9373 0.2706 0.3961);stroke-opacity:1;" stroke-width="5" stroke-linecap="round"/>
<path d="M268 135.5C47.5 105 120.538 189.769 26.0508 224.542" stroke="#EF4565" style="stroke:#EF4565;stroke:color(display-p3 0.9373 0.2706 0.3961);stroke-opacity:1;" stroke-width="5" stroke-linecap="round"/>
</g>
<path d="M452.007 76.4145C456.395 68.1084 461.513 58.989 470.94 56.2014C478.831 53.8687 487.345 55.3627 494.419 59.5489C504.625 65.5911 512.623 76.6486 515.605 88.4024C517.883 97.3782 516.976 106.979 512.448 115.069C509.215 120.848 504.721 124.446 498.742 126.677C501.369 134.442 503.223 142.062 504.841 150.108C505.863 155.189 506.641 160.339 508.053 165.327C508.539 167.039 509.15 168.884 510.072 170.404C510.593 171.264 511.936 172.622 512.193 173.527C512.28 173.833 512.197 174.462 512.2 174.803C511.282 176.507 509.252 177.183 507.587 177.81L508.958 184.181C507.953 186.495 505.783 188.652 504.164 190.535C494.664 201.589 482.119 211.532 468.676 216.807L463.02 218.874C466.315 220.819 469.527 222.643 472.597 224.969C477.756 228.881 482.489 233.771 486.813 238.636C490.005 242.228 492.966 246.072 496.343 249.477C495.019 252.573 493.195 255.08 491.139 257.669C495.037 262.149 498.777 266.861 502.332 271.638C509.193 280.857 517.785 293.186 517.2 305.394C517.047 308.585 515.996 311.626 513.624 313.768C511.116 316.032 507.228 316.764 504.006 316.514C496.751 315.95 486.166 306.103 480.946 301.023C481.448 306.221 481.89 312.288 481.231 317.472C481.024 319.1 480.159 320.554 479.97 322.212C479.055 330.222 477.91 338.06 475.672 345.811C472.542 356.643 467.519 366.365 460.631 375.104C456.711 380.076 452.009 383.79 447.145 387.682L448.348 391.366L448.492 393.377C448.595 396.596 447.846 399.454 445.652 401.822C444.09 403.506 441.392 404.56 439.163 404.571C435.568 404.59 432.17 402.987 429.087 401.224C423.803 398.2 419.401 394.707 415.074 390.343C414.102 390.885 413.021 390.729 411.945 390.728C409.603 390.723 407.062 390.48 404.76 390.921C405.277 393.531 405.327 396.011 403.852 398.309C402.132 400.986 399.055 402.155 396.139 402.733C388.831 404.181 380.783 404.41 373.367 404.058C370.134 403.904 366.31 403.83 363.544 401.876C361.227 400.239 359.837 397.634 359.35 394.79C359.147 393.604 359.072 392.379 359.172 391.178C359.505 388.996 359.984 387.112 360.945 385.137C354.344 374.892 349.276 364.129 345.937 352.27C344.749 348.053 344.06 343.667 342.777 339.492C338.731 337.988 335.259 336.017 332.027 333.027C326.269 333.315 320.528 334.105 314.769 334.467C311.673 334.661 308.34 335.106 305.325 334.137C303.236 333.466 301.624 332.048 300.036 330.553C297.314 327.989 294.645 324.978 294.496 320.933C294.311 315.899 294.582 310.768 294.626 305.725C294.69 298.422 294.583 291.119 294.437 283.817C294.219 273.033 293.887 262.253 293.787 251.467C293.747 247.277 293.296 242.548 293.918 238.425C294.553 234.22 296.556 229.9 299.359 226.793C304.851 220.705 312.428 220.57 319.94 220.192C322.991 214.754 325.671 211.181 331.743 209.51L338.582 208.278C329.307 202.244 321.461 194.807 315.303 185.378C314.589 184.285 313.064 182.46 312.756 181.216C312.491 180.148 314.017 178.252 314.595 177.415C312.384 176.737 310.638 176.267 309.007 174.52C308.853 174.047 308.627 173.667 308.833 173.167C309.229 172.208 310.778 171.101 311.47 170.261C312.817 168.625 313.69 166.365 314.369 164.355C315.877 159.898 316.326 155.145 317.214 150.532C318.789 142.354 320.92 133.856 324.057 126.163C316.393 123.176 309.804 118.177 306.387 110.212C302.985 102.284 303.243 92.7358 306.238 84.7387C310.244 74.0372 319.027 63.6712 329.263 59.065C336.687 55.7247 346.409 54.0727 354.173 57.2802C361.214 60.1885 365.974 70.2504 369.322 76.9201C374.537 75.25 379.758 73.6655 385.113 72.548C394.319 70.6269 403.568 69.4684 412.449 66.1607C414.859 65.2629 417.221 64.1153 419.38 62.6804C420.758 61.7657 422.009 60.6953 423.221 59.5586C423.611 59.1905 424.526 58.0441 424.955 57.8558C425.191 57.7508 425.469 57.8558 425.727 57.8558C426.188 58.201 426.48 58.2697 426.582 58.8755C427.162 62.3051 424.511 67.2408 423.244 70.3469C425.895 69.9656 428.551 69.5939 431.195 69.1595C432.693 68.9145 434.692 68.3027 436.168 68.6418C436.351 68.8723 436.877 69.3852 436.959 69.635C437.116 70.1201 436.752 71.4427 437.044 71.8349C437.325 72.2126 450.074 75.5854 452.007 76.4145Z" fill="#094067" style="fill:#094067;fill:color(display-p3 0.0353 0.2510 0.4039);fill-opacity:1;"/>
<path d="M408.582 259.168L407.992 268.379C406.559 268.332 404.984 268.409 403.59 268.078L405.97 268.067C406.061 268.041 406.485 267.886 406.574 267.751C406.7 267.563 406.736 266.427 406.771 266.154C407.03 264.124 407.178 261.526 408.116 259.705L408.208 259.532L408.582 259.168Z" fill="#D5522A" style="fill:#D5522A;fill:color(display-p3 0.8353 0.3216 0.1647);fill-opacity:1;"/>
<path d="M381.979 298.18C385.293 298.257 388.162 296.437 391.018 294.98C390.317 296.727 389.459 297.831 387.734 298.61C386.537 299.15 384.31 299.359 383.102 298.8L381.979 298.18Z" fill="#C8C6D5" style="fill:#C8C6D5;fill:color(display-p3 0.7843 0.7765 0.8353);fill-opacity:1;"/>
<path d="M409.454 242.576C411.277 242.498 412.583 243.138 414.318 243.544C416.084 243.957 417.847 244.142 419.643 244.345L419.779 244.49L419.643 244.702L421.777 244.795C421.29 244.959 420.871 245.062 420.36 245.113C416.143 245.534 412.85 245.461 409.454 242.576Z" fill="#26587D" style="fill:#26587D;fill:color(display-p3 0.1490 0.3451 0.4902);fill-opacity:1;"/>
<path d="M466.637 224.436L470.442 227.451C469.926 229.77 471.192 232.212 471.887 234.374C471.513 234.041 471.091 233.723 470.903 233.236C470.62 232.503 470.327 231.786 470.018 231.064L469.838 231.319C469.979 231.959 470.158 232.484 470.454 233.066L470.543 233.239L470.236 233.653L466.637 224.436Z" fill="#5081C0" style="fill:#5081C0;fill:color(display-p3 0.3137 0.5059 0.7529);fill-opacity:1;"/>
<path d="M400.873 390.651C401.354 392.246 402.09 394.334 401.271 395.925C400.674 397.083 399.52 397.833 398.33 398.19C397.743 398.367 397.267 398.397 396.664 398.35C397.634 396.307 397.963 394.972 397.805 392.674C398.836 392.257 399.924 391.294 400.873 390.651Z" fill="#ADBFD8" style="fill:#ADBFD8;fill:color(display-p3 0.6784 0.7490 0.8471);fill-opacity:1;"/>
<path d="M337.422 211.825L337.136 212.033C335.909 212.904 334.433 213.472 333.144 214.26C330.891 215.638 328.564 217.663 326.952 219.805C326.112 219.827 325.267 219.919 324.457 219.653L325.176 218.375C328.137 214.048 332.554 212.624 337.422 211.825Z" fill="white" style="fill:white;fill-opacity:1;"/>
<path d="M429.151 266.596C430.734 268.656 451.632 263.512 455.468 264.358C448.592 266.249 441.338 267.143 434.274 267.895C432.886 268.043 430.712 268.577 429.384 268.192L429.151 266.596Z" fill="#D5522A" style="fill:#D5522A;fill:color(display-p3 0.8353 0.3216 0.1647);fill-opacity:1;"/>
<path d="M459.05 255.117L462.241 254.041L464.068 262.171C463.121 262.515 462.173 262.911 461.19 263.125C460.403 260.855 459.267 258.438 459.068 256.022L459.05 255.117Z" fill="#D5522A" style="fill:#D5522A;fill:color(display-p3 0.8353 0.3216 0.1647);fill-opacity:1;"/>
<path d="M382.787 299.8L384.262 301.406C380.652 303.387 376.748 304.181 372.734 302.867L370.498 301.901L370.331 301.544L370.675 300.873C374.347 299.875 379.33 301.397 382.787 299.8Z" fill="#C8C6D5" style="fill:#C8C6D5;fill:color(display-p3 0.7843 0.7765 0.8353);fill-opacity:1;"/>
<path d="M383.685 256.36C389.26 256.64 394.787 257.562 400.378 257.788C402.378 257.869 404.386 257.858 406.386 257.872C406.846 257.875 407.941 257.737 408.294 257.883C408.377 257.918 408.43 258.007 408.497 258.07C408.564 258.131 408.633 258.194 408.701 258.257L408.582 259.168L408.208 259.532L385.582 257.673L383.685 256.36Z" fill="#F4DD46" style="fill:#F4DD46;fill:color(display-p3 0.9569 0.8667 0.2745);fill-opacity:1;"/>
<mask id="mask0_556_550" style="mask-type:luminance" maskUnits="userSpaceOnUse" x="476" y="252" width="15" height="13">
<path d="M488.968 252.924L490.354 253.434C486.771 258.125 482.882 261.109 477.992 264.173L476.842 256.59L477.62 256.84L478.517 259.87C479.921 259.347 481.86 258.798 483.045 257.84L488.968 252.924Z" fill="white" style="fill:white;fill-opacity:1;"/>
</mask>
<g mask="url(#mask0_556_550)">
<path d="M488.968 252.924L490.354 253.434C486.771 258.125 482.882 261.109 477.992 264.173L476.842 256.59L477.62 256.84L478.517 259.87C479.921 259.347 481.86 258.798 483.045 257.84L488.968 252.924Z" fill="url(#paint0_linear_556_550)" style=""/>
</g>
<path d="M428.192 259.751C428.146 259.054 428.043 258.79 428.393 258.179C438.557 258.105 449.071 257.131 459.05 255.117L459.069 256.022C453.812 257.722 448.492 258.15 443.042 258.755C438.238 259.29 433.017 259.956 428.192 259.751Z" fill="#F4DD46" style="fill:#F4DD46;fill:color(display-p3 0.9569 0.8667 0.2745);fill-opacity:1;"/>
<path d="M423.773 238.39C425.1 239.998 425.808 240.744 425.748 242.928C425.347 243.721 425.243 244.089 424.375 244.404C423.593 244.688 422.603 244.711 421.777 244.795L419.643 244.702L419.779 244.49L419.643 244.345C417.847 244.142 416.084 243.957 414.318 243.544C412.583 243.138 411.277 242.498 409.454 242.576L408.612 241.793C408.836 240.832 410.4 239.513 411.103 238.778C413.572 241.473 416.188 241.355 419.495 241.916C420.204 242.037 420.859 242.347 421.556 242.481C422.343 242.632 422.638 242.498 423.292 242.076C423.623 240.865 423.684 239.64 423.773 238.39Z" fill="#2A7176" style="fill:#2A7176;fill:color(display-p3 0.1647 0.4431 0.4627);fill-opacity:1;"/>
<path d="M396.481 393.234C396.544 394.861 396.411 395.976 395.871 397.505L395.829 397.629C395.512 397.985 395.122 398.543 394.758 398.829C393.347 399.937 388.649 400.063 386.733 400.296C387.071 398.349 387.209 396.628 387.075 394.652C389.869 394.742 393.848 394.266 396.481 393.234Z" fill="#C8C6D5" style="fill:#C8C6D5;fill:color(display-p3 0.7843 0.7765 0.8353);fill-opacity:1;"/>
<path d="M411.104 238.778C411.61 238.269 412.138 237.894 412.73 237.497C414.744 237.424 416.754 237.311 418.767 237.225C419.678 237.185 420.9 236.995 421.786 237.263C422.478 237.471 423.172 237.988 423.774 238.39C423.685 239.64 423.624 240.865 423.293 242.076C422.638 242.498 422.344 242.632 421.557 242.481C420.859 242.347 420.205 242.037 419.496 241.916C416.189 241.355 413.573 241.473 411.104 238.778Z" fill="#359A87" style="fill:#359A87;fill:color(display-p3 0.2078 0.6039 0.5294);fill-opacity:1;"/>
<path d="M381.465 265.615C381.472 263.366 381.432 261.132 381.331 258.885C381.295 258.09 381.065 256.834 381.495 256.166C382.291 256.099 382.91 256.158 383.685 256.36L385.583 257.672L389.91 266.704L381.465 265.615Z" fill="#D7661C" style="fill:#D7661C;fill:color(display-p3 0.8431 0.4000 0.1098);fill-opacity:1;"/>
<path d="M428.886 231.853C430.688 230.364 432.492 228.878 434.3 227.397C435.004 226.821 435.902 225.849 436.734 225.521C437.96 225.037 439.658 224.98 440.964 224.719C443.517 224.208 446.055 223.575 448.585 222.948L450.959 226.648C448.253 226.441 445.92 227.266 443.324 227.931C440.494 228.657 437.609 229.167 434.797 229.967C432.825 230.528 430.884 231.446 428.886 231.853Z" fill="#5081C0" style="fill:#5081C0;fill:color(display-p3 0.3137 0.5059 0.7529);fill-opacity:1;"/>
<path d="M406.67 243.766C408.038 245.409 409.547 246.494 411.368 247.543L410.304 250.518L410.118 251.318C409.504 250.928 409.298 250.661 408.567 250.731L408.291 251.025C406.789 252.601 405.895 252.925 403.777 252.922C402.997 252.92 402.319 253.469 401.875 253.052C400.968 253.687 400.436 254.304 399.269 254.092L397.716 253.512C397.946 252.545 398.295 251.782 398.765 250.916L399.68 250.975L406.67 243.766Z" fill="#50A7E1" style="fill:#50A7E1;fill:color(display-p3 0.3137 0.6549 0.8824);fill-opacity:1;"/>
<path d="M407.076 248.186C408.06 249.126 409.165 249.802 410.304 250.518L410.118 251.318C409.504 250.928 409.299 250.661 408.567 250.731L408.292 251.025C406.79 252.601 405.895 252.925 403.777 252.922C402.997 252.92 402.319 253.469 401.875 253.052C403.118 251.221 405.387 249.59 407.076 248.186Z" fill="#8EDAE9" style="fill:#8EDAE9;fill:color(display-p3 0.5569 0.8549 0.9137);fill-opacity:1;"/>
<path d="M353.406 304.425C355.972 305.158 358.414 305.573 361.054 305.846L358.927 314.363L351.601 314.857C352.656 311.477 353.033 307.939 353.406 304.425Z" fill="#D7661C" style="fill:#D7661C;fill:color(display-p3 0.8431 0.4000 0.1098);fill-opacity:1;"/>
<path d="M376.528 231.426L398.765 250.916C398.296 251.782 397.947 252.545 397.717 253.512C395.323 252.365 393.174 250.459 391.185 248.683C388.598 246.376 386.076 244.034 383.693 241.5C381.986 239.685 380.303 237.678 378.35 236.15L377.796 236.273L376.528 231.426Z" fill="#ADBFD8" style="fill:#ADBFD8;fill:color(display-p3 0.6784 0.7490 0.8471);fill-opacity:1;"/>
<path d="M354.48 227.482C356.286 229.227 357.58 231.887 358.622 234.181C362.695 243.146 364.05 252.733 364.393 262.557L364.475 265.63L361.236 264.541C361.894 262.916 361.229 260.551 361.151 258.824C361.07 257.061 361.26 255.286 361.136 253.521C360.687 247.157 359.475 240.485 357.35 234.475C356.506 232.088 355.351 229.858 354.48 227.482Z" fill="#5081C0" style="fill:#5081C0;fill:color(display-p3 0.3137 0.5059 0.7529);fill-opacity:1;"/>
<path d="M369.833 221.32C375.46 221.919 381.081 223.669 386.647 224.787C388.381 225.135 390.359 225.735 392.114 225.751C394.241 225.772 395.983 227.466 397.785 228.484C399.716 229.572 401.894 230.493 403.633 231.882C401.658 231.715 399.772 230.691 397.817 230.274C391.62 228.953 385.084 228.41 379.079 226.287C378.038 225.919 376.969 225.521 376.016 224.945C375.024 224.347 373.598 222.894 372.521 222.731C372.047 222.66 372.096 222.572 371.79 222.207L371.281 222.205L371.511 222.491L371.427 223.228C370.765 222.684 370.322 222.021 369.833 221.32Z" fill="#5081C0" style="fill:#5081C0;fill:color(display-p3 0.3137 0.5059 0.7529);fill-opacity:1;"/>
<path d="M333.903 222.9C336.513 222.164 339.689 222.181 342.4 221.936L336.524 228.161L316.341 229.186L316.663 228.972C319.094 227.32 321.719 226.432 324.456 225.507C327.168 224.893 331.616 224.487 333.903 222.9Z" fill="#ED7C22" style="fill:#ED7C22;fill:color(display-p3 0.9294 0.4863 0.1333);fill-opacity:1;"/>
<mask id="mask1_556_550" style="mask-type:luminance" maskUnits="userSpaceOnUse" x="457" y="232" width="19" height="46">
<path d="M457.355 232.834L458.295 232.225C460.952 238.658 464.364 244.526 466.206 251.326C467.078 254.549 467.786 257.846 468.362 261.14C468.762 263.42 468.829 266.727 469.698 268.775C470.851 271.489 473.465 273.53 475.311 275.713C475.258 276.397 475.385 276.961 474.884 277.433C472.476 274.772 469.436 271.923 467.838 268.649C467.073 267.085 466.931 264.689 466.634 262.938C466.166 260.187 465.606 257.408 464.915 254.709C462.996 247.217 460.32 239.939 457.355 232.834Z" fill="white" style="fill:white;fill-opacity:1;"/>
</mask>
<g mask="url(#mask1_556_550)">
<path d="M457.355 232.834L458.295 232.225C460.952 238.658 464.364 244.526 466.206 251.326C467.078 254.549 467.786 257.846 468.362 261.14C468.762 263.42 468.829 266.727 469.698 268.775C470.851 271.489 473.465 273.53 475.311 275.713C475.258 276.397 475.385 276.961 474.884 277.433C472.476 274.772 469.436 271.923 467.838 268.649C467.073 267.085 466.931 264.689 466.634 262.938C466.166 260.187 465.606 257.408 464.915 254.709C462.996 247.217 460.32 239.939 457.355 232.834Z" fill="url(#paint1_linear_556_550)" style=""/>
</g>
<mask id="mask2_556_550" style="mask-type:luminance" maskUnits="userSpaceOnUse" x="469" y="231" width="15" height="29">
<path d="M470.236 233.653L470.543 233.239L470.453 233.066C470.158 232.484 469.979 231.959 469.837 231.319L470.017 231.064C470.326 231.786 470.619 232.503 470.902 233.236C471.09 233.723 471.512 234.041 471.887 234.374L483.041 257.84C481.857 258.798 479.917 259.347 478.514 259.87L477.616 256.84L476.838 256.59L470.236 233.653Z" fill="white" style="fill:white;fill-opacity:1;"/>
</mask>
<g mask="url(#mask2_556_550)">
<path d="M470.236 233.653L470.543 233.239L470.453 233.066C470.158 232.484 469.979 231.959 469.837 231.319L470.017 231.064C470.326 231.786 470.619 232.503 470.902 233.236C471.09 233.723 471.512 234.041 471.887 234.374L483.041 257.84C481.857 258.798 479.917 259.347 478.514 259.87L477.616 256.84L476.838 256.59L470.236 233.653Z" fill="url(#paint2_linear_556_550)" style=""/>
</g>
<path d="M374.228 314.245L371.816 321.622C367.3 321.354 363.029 321.881 358.557 322.388C359.977 319.993 361.016 317.42 362.109 314.852L374.228 314.245Z" fill="#D5522A" style="fill:#D5522A;fill:color(display-p3 0.8353 0.3216 0.1647);fill-opacity:1;"/>
<path d="M459.324 219.934C461.731 222.799 463.602 226.712 465.105 230.142L463.384 230.416C461.593 230.889 459.966 231.386 458.292 232.224L457.353 232.834C455.707 229.147 454.177 225.79 452.051 222.375L459.324 219.934Z" fill="#D5522A" style="fill:#D5522A;fill:color(display-p3 0.8353 0.3216 0.1647);fill-opacity:1;"/>
<path d="M477.843 281.294C479.168 283.446 480.152 285.784 481.428 287.97C484.276 292.849 488.451 297.785 492.573 301.533L490.047 304.562C486.279 303.517 483.606 299.309 480.526 296.946C479.815 294.351 479.546 291.696 479.058 289.054C478.582 286.48 477.745 283.94 477.843 281.294Z" fill="#211F40" style="fill:#211F40;fill:color(display-p3 0.1294 0.1216 0.2510);fill-opacity:1;"/>
<path d="M364.258 305.964C366.162 305.828 367.397 305.447 368.917 304.223C371.117 305.305 373.4 305.887 375.752 306.503L374.229 314.245L362.109 314.852C363.189 311.98 363.746 308.988 364.258 305.964Z" fill="#D7661C" style="fill:#D7661C;fill:color(display-p3 0.8431 0.4000 0.1098);fill-opacity:1;"/>
<path d="M471.19 228.095C476.164 232.169 480.744 236.663 484.971 241.564C486.475 243.307 487.952 245.078 489.424 246.85C490.207 247.796 491 248.961 491.926 249.748L492.21 250.592L490.354 253.434L488.968 252.924L488.92 252.79L488.49 252.633C487.643 252.129 486.633 250.468 485.958 249.622C482.379 245.138 479.169 240.51 475.731 235.929C474.571 234.386 473.394 232.852 472.193 231.342C471.738 230.769 470.908 229.967 470.775 229.217C470.689 228.727 470.95 228.5 471.19 228.095Z" fill="white" style="fill:white;fill-opacity:1;"/>
<path d="M488.919 252.79C489.774 251.656 490.577 250.265 491.924 249.748L492.208 250.592L490.352 253.434L488.967 252.924L488.919 252.79Z" fill="#50A7E1" style="fill:#50A7E1;fill:color(display-p3 0.3137 0.6549 0.8824);fill-opacity:1;"/>
<path d="M414.19 247.201L418.559 246.719L416.664 247.186L416.679 247.568C416.685 248.26 416.253 248.769 416.026 249.401C415.677 250.376 415.386 251.425 415.184 252.444C413.805 259.368 415.328 268.532 420.341 273.698C420.738 274.107 421.021 274.2 421.54 274.339L421.918 274.448L422.182 274.51C421.451 275.274 421.029 275.343 420.053 275.366C417.489 274.011 414.934 272.466 412.669 270.615C412.033 270.096 411.113 269.368 410.788 268.574C410.265 267.292 410.643 265.179 410.766 263.821C411.274 258.252 412.087 252.383 414.19 247.201Z" fill="#26587D" style="fill:#26587D;fill:color(display-p3 0.1490 0.3451 0.4902);fill-opacity:1;"/>
<path d="M342.312 210.912L350.445 214.42C348.115 215.708 345.558 217.6 343.103 218.492C342.298 218.784 341.227 218.726 340.367 218.77C338.427 218.872 336.482 218.916 334.545 219.05C332.01 219.227 329.488 219.639 326.953 219.805C328.565 217.663 330.892 215.638 333.145 214.26C334.434 213.472 335.91 212.904 337.137 212.033L337.423 211.826L342.312 210.912Z" fill="#D5522A" style="fill:#D5522A;fill:color(display-p3 0.8353 0.3216 0.1647);fill-opacity:1;"/>
<path d="M299.417 232.839C300.248 231.451 301.189 230.016 302.266 228.824C303.535 227.419 304.975 226.251 306.727 225.574C311.774 223.625 317.95 223.864 323.292 223.558C326.835 223.354 330.354 222.984 333.904 222.9C331.617 224.487 327.169 224.893 324.457 225.507C321.72 226.432 319.095 227.32 316.664 228.972L316.342 229.186L304.322 231.276L299.417 232.839Z" fill="white" style="fill:white;fill-opacity:1;"/>
<path d="M304.322 231.276L304.504 230.852C305.623 228.729 310.798 226.73 313.002 226.08C316.629 225.009 320.721 225.316 324.457 225.507C321.72 226.432 319.095 227.32 316.664 228.972L316.342 229.186L304.322 231.276Z" fill="#EFC84C" style="fill:#EFC84C;fill:color(display-p3 0.9373 0.7843 0.2980);fill-opacity:1;"/>
<path d="M470.442 227.451L471.187 228.095C470.948 228.5 470.686 228.727 470.772 229.217C470.906 229.967 471.736 230.769 472.19 231.342C473.392 232.852 474.568 234.386 475.728 235.929C479.166 240.51 482.377 245.138 485.955 249.622C486.631 250.468 487.64 252.129 488.488 252.633L488.918 252.79L488.965 252.924L483.042 257.84L471.887 234.374C471.192 232.212 469.926 229.77 470.442 227.451Z" fill="#8EDAE9" style="fill:#8EDAE9;fill:color(display-p3 0.5569 0.8549 0.9137);fill-opacity:1;"/>
<path d="M358.556 322.388C363.028 321.881 367.299 321.354 371.815 321.622C369.485 326.105 365.151 329.641 360.437 331.102C355.676 332.578 351.345 331.976 346.562 331.111C351.389 329.537 355.613 326.789 358.556 322.388Z" fill="#963C20" style="fill:#963C20;fill:color(display-p3 0.5882 0.2353 0.1255);fill-opacity:1;"/>
<path d="M475.46 327.124C474.541 333.47 473.705 339.737 471.993 345.919C469.118 356.296 463.786 365.719 457.028 373.871C456.154 373.619 455.143 373.649 454.238 373.592C453.925 372.956 455.656 371.09 456.113 370.471C458.345 367.454 460.559 364.351 462.519 361.136C468.333 351.598 471.043 341.256 472.1 330.096C472.988 328.902 474.273 327.977 475.46 327.124Z" fill="#5081C0" style="fill:#5081C0;fill:color(display-p3 0.3137 0.5059 0.7529);fill-opacity:1;"/>
<path d="M505.557 286.054L507.131 284.548C510.557 290.913 514.635 298.413 513.79 305.961C513.555 305.303 513.535 304.816 513.478 304.124C513.297 301.933 505.338 299.487 503.46 298.427C501.546 297.348 499.906 296.03 498.209 294.626C500.387 291.638 502.867 288.555 505.557 286.054Z" fill="white" style="fill:white;fill-opacity:1;"/>
<path d="M348.081 221.33C351.21 219.479 353.86 218.113 357.365 217.122C359.544 217.931 362.828 218.815 364.711 220.171C366.58 221.519 368.196 223.968 369.547 225.865L372.188 230.486L359.267 228.793L356.621 224.956C353.791 221.999 352.035 221.609 348.081 221.33Z" fill="#963C20" style="fill:#963C20;fill:color(display-p3 0.5882 0.2353 0.1255);fill-opacity:1;"/>
<path d="M356.62 224.956C357.633 224.464 358.686 224.6 359.78 224.622C363.017 224.686 366.405 225.036 369.547 225.865L372.187 230.486L359.266 228.793L356.62 224.956Z" fill="#D5522A" style="fill:#D5522A;fill:color(display-p3 0.8353 0.3216 0.1647);fill-opacity:1;"/>
<path d="M468.728 85.5461C471.281 82.5775 474.335 79.2456 478.438 78.997C483.383 78.6978 487.519 81.0775 491.11 84.4371C494.897 87.9789 498.584 93.5432 498.86 99.0159C498.932 100.448 498.923 102.039 498.564 103.434L498.524 101.048C498.442 100.217 498.323 99.3525 497.943 98.6068C497.204 97.155 495.95 95.9012 494.978 94.6148C492.074 90.7713 488.939 86.6406 485.223 83.5996C484.204 82.7645 483.272 82.7259 482.039 82.89C477.759 83.4608 476.15 86.3872 473.735 89.6273L468.728 85.5461Z" fill="#DC2633" style="fill:#DC2633;fill:color(display-p3 0.8627 0.1490 0.2000);fill-opacity:1;"/>
<mask id="mask3_556_550" style="mask-type:luminance" maskUnits="userSpaceOnUse" x="399" y="226" width="33" height="10">
<path d="M430.344 226.453C430.77 226.348 431.17 226.425 431.602 226.465C430.59 227.59 429.229 228.534 428.056 229.483C425.618 231.456 423.188 233.335 420.574 235.053L412.866 235.168L405.708 230.511L399.971 226.636L430.344 226.453Z" fill="white" style="fill:white;fill-opacity:1;"/>
</mask>
<g mask="url(#mask3_556_550)">
<path d="M430.344 226.453C430.77 226.348 431.17 226.425 431.602 226.465C430.59 227.59 429.229 228.534 428.056 229.483C425.618 231.456 423.188 233.335 420.574 235.053L412.866 235.168L405.708 230.511L399.971 226.636L430.344 226.453Z" fill="url(#paint3_linear_556_550)" style=""/>
</g>
<path d="M433.428 249.131C440.754 243.76 446.247 236.352 452.234 229.53L461.306 251.88L456.615 253.185C455.904 246.667 454.563 238.913 450.821 233.511C447.281 239.105 442.985 244.097 438.075 248.428C436.514 249.804 434.78 251.448 432.77 252.003C430.731 251.73 429.395 249.29 428.203 247.714L425.658 249.278L425.091 247.154L425.338 246.975L425.727 246.663L425.969 246.471C426.965 245.644 427.577 244.525 428.245 243.416C429.904 245.431 431.506 247.375 433.428 249.131Z" fill="#50A7E1" style="fill:#50A7E1;fill:color(display-p3 0.3137 0.6549 0.8824);fill-opacity:1;"/>
<path d="M385.583 257.672L408.209 259.532L408.117 259.705C407.178 261.526 407.031 264.124 406.771 266.154C406.737 266.427 406.701 267.563 406.575 267.751C406.485 267.886 406.061 268.041 405.97 268.067L403.59 268.078C399.105 268.149 394.365 267.281 389.91 266.704L385.583 257.672Z" fill="#ED7C22" style="fill:#ED7C22;fill:color(display-p3 0.9294 0.4863 0.1333);fill-opacity:1;"/>
<path d="M433.679 399.087L433.954 398.811L434.615 399.12C434.712 397.492 432.064 395.433 431.128 394.096C430.024 392.519 429.133 390.666 428.923 388.714C428.755 387.144 428.933 385.833 429.922 384.571C434.174 381.963 438.721 388.574 443.369 388.088L443.64 388.056C444.927 390.583 445.506 393.569 444.684 396.383C444.241 397.9 443.229 399.56 441.803 400.238C440.344 400.933 438.148 400.6 436.569 400.462C438.1 398.23 439.538 395.328 439.09 392.469L438.848 391.284L438.239 390.845L437.589 391.101C437.622 394.137 437.66 396.798 435.55 399.208C435.32 399.471 435.147 399.577 434.82 399.669L433.679 399.087Z" fill="#C8C6D5" style="fill:#C8C6D5;fill:color(display-p3 0.7843 0.7765 0.8353);fill-opacity:1;"/>
<path d="M363.621 386.913L379.648 383.618C383.464 383.018 387.381 382.462 391.243 382.412C392.247 382.4 393.238 382.273 394.09 382.926C394.373 383.581 394.421 383.581 395.031 383.933C394.489 383.964 393.971 384.135 393.526 383.793C393.006 383.746 392.509 383.7 391.998 383.586C391.026 383.37 387.747 383.181 386.826 383.439C385.939 383.688 385.366 383.876 384.365 383.723C383.68 384.197 382.765 383.988 381.949 384.131C381.032 384.289 380.169 384.666 379.257 384.815C376.197 385.313 370.017 386.011 369.301 389.931C369.081 391.142 369.466 392.701 370.145 393.689C371.586 395.788 374.056 396.514 376.411 396.822C379.459 397.221 382.66 396.82 385.709 396.596L385.701 396.964C385.668 398.364 385.651 399.344 384.638 400.349C379.2 400.551 372.305 401.096 367.039 399.495C365.278 398.96 363.999 397.838 363.188 396.14C361.812 393.266 362.726 389.778 363.621 386.913Z" fill="#C8C6D5" style="fill:#C8C6D5;fill:color(display-p3 0.7843 0.7765 0.8353);fill-opacity:1;"/>
<path d="M377.796 236.273L378.35 236.15C380.304 237.678 381.986 239.685 383.693 241.5C386.076 244.034 388.598 246.376 391.185 248.683C393.174 250.459 395.323 252.365 397.717 253.512L399.27 254.092C400.438 254.304 400.969 253.687 401.876 253.052C402.32 253.469 402.998 252.92 403.778 252.922C405.896 252.925 406.79 252.601 408.293 251.025L408.568 250.731C409.3 250.661 409.505 250.928 410.119 251.318L409.074 256.15L381.022 254.091L377.796 236.273Z" fill="white" style="fill:white;fill-opacity:1;"/>
<path d="M456.95 78.7231L455.701 77.7854C456.188 76.2058 457.049 74.684 457.811 73.2287C460.272 68.532 463.905 63.4552 468.609 60.9826C474.541 57.8631 481.382 58.0043 487.594 60.1801C497.684 63.7147 505.291 72.7351 509.844 82.4411C510.717 84.3019 511.675 86.4427 512.001 88.499C510.93 87.8642 509.369 83.7612 508.572 82.4133C506.077 78.186 502.914 74.468 499.317 71.2146C492.672 65.2062 484.759 61.481 475.806 62.2593C469.147 62.8386 463.682 68.1205 460.102 73.5835C459.048 75.1921 458.3 77.0915 457.088 78.5613L456.95 78.7231Z" fill="#ADBFD8" style="fill:#ADBFD8;fill:color(display-p3 0.6784 0.7490 0.8471);fill-opacity:1;"/>
<path d="M374.213 289.975L374.657 290.443C379.988 290.541 385.807 289.935 389.411 285.284C390.198 284.268 391.002 281.987 392.16 281.661C394.386 283.674 392.176 285.892 393.254 287.88L393.434 288.182C393.025 289.468 392.445 290.425 391.256 291.055L390.382 291.471C390.391 291.936 390.545 292.112 390.762 292.498C391.197 293.272 391.251 294.122 391.017 294.98C388.16 296.437 385.292 298.257 381.977 298.18L381.084 297.754L381.007 298.078L382.786 299.8C379.33 301.397 374.347 299.875 370.675 300.873C372.232 297.457 373.205 293.599 374.213 289.975Z" fill="#ADBFD8" style="fill:#ADBFD8;fill:color(display-p3 0.6784 0.7490 0.8471);fill-opacity:1;"/>
<path d="M512.198 91.1345C512.865 91.9769 513.067 92.5633 513.272 93.6217L513.353 94.0271C514.604 100.367 512.316 108.976 508.918 114.262C507.048 117.17 504.813 120.243 501.654 121.706C500.313 122.328 498.733 122.614 497.303 122.943L493.417 115.089C494.38 114.133 495.276 113.207 496.45 112.533C498.751 112.32 500.592 111.343 502.411 109.909C508.257 105.307 511.19 98.4945 512.198 91.1345Z" fill="#211F40" style="fill:#211F40;fill:color(display-p3 0.1294 0.1216 0.2510);fill-opacity:1;"/>
<path d="M428.192 259.751C433.017 259.956 438.239 259.29 443.043 258.755C448.493 258.15 453.813 257.722 459.069 256.022C459.268 258.438 460.404 260.855 461.191 263.125L455.469 264.358C451.632 263.512 430.734 268.656 429.152 266.596C429.133 264.499 428.903 261.707 428.192 259.751Z" fill="#ED7C22" style="fill:#ED7C22;fill:color(display-p3 0.9294 0.4863 0.1333);fill-opacity:1;"/>
<path d="M351.601 314.857L358.927 314.363C356.961 319.679 354.215 324.203 348.956 326.581C346.01 327.913 342.456 328.316 339.277 328.678C334.988 329.168 330.687 329.531 326.391 329.955C320.861 330.5 314.987 331.411 309.442 331.306C308.258 331.284 306.947 331.029 305.842 330.58C304.557 330.057 303.359 329.198 302.24 328.369C303.174 328.595 304.103 328.761 305.066 328.724C310.814 328.5 316.718 327.453 322.465 326.893C328.539 326.299 334.905 326.239 340.885 325.019C342.529 324.682 344.314 323.83 345.73 322.911C348.596 321.051 350.494 318.093 351.601 314.857Z" fill="#963C20" style="fill:#963C20;fill:color(display-p3 0.5882 0.2353 0.1255);fill-opacity:1;"/>
<path d="M478.107 266.973C482.148 265.078 485.31 263.519 488.517 260.233L489.434 260.82L487.621 262.318C484.906 264.616 482.419 266.479 479.138 267.813C481.796 276.363 486.661 284.321 492.984 290.444C494.581 291.991 496.513 293.124 498.057 294.691L492.873 301.409L492.572 301.533C488.45 297.785 484.275 292.849 481.427 287.97C480.151 285.784 479.167 283.446 477.842 281.293L478.107 266.973Z" fill="#2B2F54" style="fill:#2B2F54;fill:color(display-p3 0.1686 0.1843 0.3294);fill-opacity:1;"/>
<path d="M328.242 86.6647C330.765 82.8369 334.667 80.1012 339.063 79.1973C343.051 78.3767 347.741 79.4435 351.096 81.8148C352.438 82.7633 353.638 83.9194 354.791 85.1008C351.311 87.7834 347.873 90.5505 344.861 93.8039C340.63 98.3726 336.999 103.929 333.752 109.285C333.432 109.811 331.629 113.084 331.355 113.043C330.831 112.967 330.408 112.529 330.006 112.198C330.226 111.579 330.323 110.906 330.47 110.263C332.219 102.567 339.124 94.2033 345.518 90.1003C344.199 88.5702 342.61 86.6901 340.923 85.6064L340.594 85.4061C340.041 85.0633 339.505 84.7508 338.897 84.5227C335.409 83.2122 331.394 85.213 328.242 86.6647Z" fill="#DC2633" style="fill:#DC2633;fill:color(display-p3 0.8627 0.1490 0.2000);fill-opacity:1;"/>
<path d="M309.121 86.83C309.479 94.5774 310.672 102.727 316.506 108.257C318.522 110.169 320.93 110.002 323.472 110.147C325.186 112.394 326.691 113.977 329.004 115.539L325.157 123.094L322.398 122.007C315.977 119.084 310.985 113.485 308.464 106.713C306.121 100.417 306.5 92.9712 309.121 86.83Z" fill="#2B2F54" style="fill:#2B2F54;fill:color(display-p3 0.1686 0.1843 0.3294);fill-opacity:1;"/>
<mask id="mask4_556_550" style="mask-type:luminance" maskUnits="userSpaceOnUse" x="297" y="231" width="38" height="72">
<path d="M297.56 237.73C305.562 232.862 316.406 232.216 325.516 231.608C328.282 231.423 331.142 231.053 333.909 231.207L334.058 231.574L333.119 232.863L315.654 234.827C311.655 236.017 306.095 236.77 302.902 239.622C301.335 246.506 301.048 253.551 300.573 260.588C300.409 263.026 300.462 265.719 300.009 268.102L299.488 288.46C299.434 290.738 299.508 301.189 298.401 302.715L297.56 237.73Z" fill="white" style="fill:white;fill-opacity:1;"/>
</mask>
<g mask="url(#mask4_556_550)">
<path d="M297.56 237.73C305.562 232.862 316.406 232.216 325.516 231.608C328.282 231.423 331.142 231.053 333.909 231.207L334.058 231.574L333.119 232.863L315.654 234.827C311.655 236.017 306.095 236.77 302.902 239.622C301.335 246.506 301.048 253.551 300.573 260.588C300.409 263.026 300.462 265.719 300.009 268.102L299.488 288.46C299.434 290.738 299.508 301.189 298.401 302.715L297.56 237.73Z" fill="url(#paint4_linear_556_550)" style=""/>
</g>
<path d="M300.011 268.102C299.161 265.572 299.197 263.35 299.14 260.699C299.048 256.298 298.233 241.462 301.157 238.547C302.069 237.639 303.47 237.164 304.65 236.747C308.197 235.496 311.918 234.855 315.656 234.827C311.656 236.017 306.096 236.77 302.903 239.622C301.336 246.506 301.049 253.551 300.575 260.588C300.411 263.026 300.463 265.719 300.011 268.102Z" fill="#EFC84C" style="fill:#EFC84C;fill:color(display-p3 0.9373 0.7843 0.2980);fill-opacity:1;"/>
<path d="M341.26 228.192C341.514 227.82 341.782 227.475 342.096 227.155C343.769 225.453 346.84 224.155 349.175 224.319C351.371 224.473 353.058 225.848 354.479 227.482C355.35 229.858 356.504 232.088 357.349 234.475C359.474 240.485 360.685 247.157 361.134 253.521C361.259 255.286 361.069 257.061 361.149 258.824C361.227 260.551 361.892 262.916 361.234 264.541C357.952 263.595 354.548 264.353 351.192 263.944C343.443 263 335.426 260.455 328.003 257.992C326.436 257.472 324.045 257.009 322.744 255.985L323.277 255.146L325.24 254.939C327.518 255.855 330.285 256.157 332.674 256.758C337.173 257.891 341.732 259.504 346.317 260.117C350.263 260.646 354.329 260.391 358.3 260.298C358.225 252.158 357.482 244.13 354.857 236.408C354.098 234.175 353.313 231.827 351.891 229.945C351.064 228.897 350.318 228.049 349.104 227.46C346.395 226.148 343.878 227.22 341.26 228.192Z" fill="#50A7E1" style="fill:#50A7E1;fill:color(display-p3 0.3137 0.6549 0.8824);fill-opacity:1;"/>
<path d="M374.212 289.975C374.845 287.123 374.997 284.207 374.586 281.31C374.382 279.871 374.06 278.402 373.59 277.031C373.19 275.868 371.96 273.567 372.307 272.449L373.016 272.22C374.862 272.741 376.217 275.118 377.187 276.702L379.117 275.608C381.44 274.394 384.736 274.117 387.216 274.991C389.724 275.875 391.79 277.619 392.958 280.113C394.13 282.616 394.299 285.557 393.434 288.182L393.253 287.88C392.176 285.892 394.386 283.674 392.159 281.662C391.001 281.987 390.198 284.268 389.411 285.284C385.807 289.935 379.987 290.541 374.657 290.443L374.212 289.975Z" fill="white" style="fill:white;fill-opacity:1;"/>
<path d="M498.209 294.626C499.906 296.03 501.546 297.348 503.459 298.427C505.338 299.487 513.297 301.933 513.478 304.124C513.535 304.816 513.555 305.303 513.79 305.961C513.77 307.342 513.313 308.519 512.592 309.667C511.883 310.341 511.242 310.96 510.389 311.439C508.897 312.379 507.576 312.937 505.816 312.991C500.797 313.149 493.664 308.053 490.047 304.562L492.572 301.533L492.873 301.409L498.058 294.691L498.209 294.626Z" fill="#C8C6D5" style="fill:#C8C6D5;fill:color(display-p3 0.7843 0.7765 0.8353);fill-opacity:1;"/>
<path d="M505.993 303.318L505.663 302.538C508.142 303.383 511.158 307.569 512.591 309.667C511.882 310.341 511.242 310.96 510.388 311.439C509.031 309.009 507.965 305.117 505.993 303.318Z" fill="#DC2633" style="fill:#DC2633;fill:color(display-p3 0.8627 0.1490 0.2000);fill-opacity:1;"/>
<mask id="mask5_556_550" style="mask-type:luminance" maskUnits="userSpaceOnUse" x="490" y="301" width="21" height="12">
<path d="M492.875 301.409C495.908 305.068 500.344 310.567 505.281 310.879C506.218 310.94 506.723 310.836 507.48 310.263C508.042 308.707 507.29 306.994 506.631 305.518C506.27 304.711 506.024 304.229 505.996 303.318C507.968 305.117 509.034 309.009 510.391 311.439C508.899 312.379 507.578 312.937 505.818 312.991C500.799 313.149 493.666 308.053 490.049 304.562L492.574 301.533L492.875 301.409Z" fill="white" style="fill:white;fill-opacity:1;"/>
</mask>
<g mask="url(#mask5_556_550)">
<path d="M492.875 301.409C495.908 305.068 500.344 310.567 505.281 310.879C506.218 310.94 506.723 310.836 507.48 310.263C508.042 308.707 507.29 306.994 506.631 305.518C506.27 304.711 506.024 304.229 505.996 303.318C507.968 305.117 509.034 309.009 510.391 311.439C508.899 312.379 507.578 312.937 505.818 312.991C500.799 313.149 493.666 308.053 490.049 304.562L492.574 301.533L492.875 301.409Z" fill="url(#paint5_linear_556_550)" style=""/>
</g>
<path d="M428.887 231.853C430.886 231.446 432.826 230.528 434.798 229.967C437.61 229.167 440.495 228.657 443.325 227.931C445.921 227.266 448.255 226.44 450.96 226.648C450.865 228.176 449.005 230.475 447.93 231.614L447.621 231.996C445.555 235.191 443.001 237.938 440.379 240.637C438.253 242.825 436.102 245.062 433.62 246.815L423.443 235.431L428.887 231.853Z" fill="#50A7E1" style="fill:#50A7E1;fill:color(display-p3 0.3137 0.6549 0.8824);fill-opacity:1;"/>
<path d="M426.592 235.87C432.13 234.007 437.92 232.343 443.717 231.716C445.111 231.566 446.557 231.181 447.93 231.614L447.621 231.996L447.484 232.058C445.812 232.747 444.671 234.135 443.391 235.401C441.848 236.928 440.252 238.393 438.653 239.856C436.983 241.385 435.935 242.543 433.59 242.593C431.033 240.693 428.825 238.163 426.592 235.87Z" fill="#8EDAE9" style="fill:#8EDAE9;fill:color(display-p3 0.5569 0.8549 0.9137);fill-opacity:1;"/>
<path d="M463.385 230.416L465.106 230.142C469.408 239.594 472.202 249.07 473.818 259.39C474.433 263.319 475.056 267.429 475.059 271.409L475.309 275.713C473.463 273.53 470.849 271.489 469.696 268.775C468.827 266.727 468.76 263.42 468.361 261.139C467.784 257.846 467.076 254.549 466.204 251.326C464.362 244.526 460.95 238.658 458.293 232.224C459.967 231.386 461.594 230.889 463.385 230.416Z" fill="#D39821" style="fill:#D39821;fill:color(display-p3 0.8275 0.5961 0.1294);fill-opacity:1;"/>
<path d="M463.387 230.416L465.107 230.142C469.409 239.594 472.203 249.07 473.819 259.39C474.434 263.319 475.058 267.429 475.06 271.409L474.901 274C474.226 273.704 474.23 271.759 474.159 270.983C473.724 266.24 472.682 261.76 471.693 257.123C470.51 251.589 469.412 245.758 467.639 240.399C466.481 236.901 465.006 233.704 463.387 230.416Z" fill="#F4DD46" style="fill:#F4DD46;fill:color(display-p3 0.9569 0.8667 0.2745);fill-opacity:1;"/>
<path d="M418.559 246.719C419.843 246.719 421.973 246.341 422.884 247.287C425.499 249.998 427.784 263.557 427.64 267.34C427.543 269.845 425.16 271.813 423.469 273.387L422.182 274.51L421.918 274.448L421.54 274.339C421.021 274.2 420.738 274.107 420.34 273.698C415.328 268.532 413.805 259.368 415.184 252.444C415.386 251.425 415.677 250.376 416.026 249.401C416.252 248.769 416.685 248.26 416.679 247.568L416.664 247.186L418.559 246.719Z" fill="#359A87" style="fill:#359A87;fill:color(display-p3 0.2078 0.6039 0.5294);fill-opacity:1;"/>
<path d="M328.243 86.6647C331.395 85.2129 335.409 83.2121 338.897 84.5227C339.505 84.7508 340.041 85.0633 340.595 85.406L340.924 85.6064C342.611 86.69 344.199 88.5701 345.519 90.1003C339.124 94.2032 332.219 102.567 330.47 110.263C330.324 110.906 330.226 111.579 330.006 112.198C326.737 109.488 324.824 106.248 324.27 101.919C323.555 96.3416 324.962 91.1393 328.243 86.6647Z" fill="#D5522A" style="fill:#D5522A;fill:color(display-p3 0.8353 0.3216 0.1647);fill-opacity:1;"/>
<path d="M394.091 382.926C397.117 384.293 399.562 387.296 400.795 390.447L400.873 390.651C399.924 391.294 398.836 392.257 397.805 392.674C397.963 394.972 397.634 396.307 396.664 398.35L395.828 397.629L395.87 397.505C396.411 395.976 396.543 394.861 396.481 393.234C393.847 394.266 389.869 394.742 387.075 394.652C386.09 391.521 385.059 389.701 382.548 387.657C384.065 390.541 385.417 393.257 385.71 396.596C382.661 396.82 379.46 397.221 376.412 396.822C374.057 396.514 371.587 395.788 370.146 393.689C369.467 392.701 369.082 391.142 369.302 389.931C370.018 386.011 376.198 385.313 379.258 384.815C380.17 384.666 381.033 384.289 381.95 384.131C382.766 383.988 383.681 384.197 384.366 383.723C385.367 383.876 385.94 383.688 386.827 383.439C387.748 383.181 391.027 383.37 391.999 383.586C392.51 383.7 393.007 383.746 393.527 383.793C393.972 384.135 394.49 383.964 395.032 383.933C394.422 383.581 394.374 383.581 394.091 382.926Z" fill="white" style="fill:white;fill-opacity:1;"/>
<path d="M396.48 393.234C396.165 391.624 395.723 390.33 395.124 388.83C394.859 388.165 394.887 387.985 395.168 387.339L395.578 387.391C396.984 388.806 397.37 390.768 397.804 392.674C397.962 394.972 397.633 396.307 396.664 398.35L395.828 397.629L395.869 397.505C396.41 395.976 396.543 394.861 396.48 393.234Z" fill="#32173D" style="fill:#32173D;fill:color(display-p3 0.1961 0.0902 0.2392);fill-opacity:1;"/>
<path d="M428.801 270.378C440.845 269.513 452.898 267.837 464.51 264.276C464.885 266.047 465.191 268.013 465.919 269.665C467.16 272.479 469.592 274.763 471.644 276.943C472.343 277.684 473.406 278.581 473.833 279.522C474.494 280.978 474.67 282.841 474.91 284.414C473.978 284.156 473.328 283.589 472.558 283.024C466.897 278.875 463.13 272.782 459.149 267.054C449.262 270.421 439.335 271.948 429.017 272.92L420.151 281.943C417.303 280.921 414.069 278.805 411.623 276.995C410.417 276.103 409.16 274.825 407.823 274.194C405.433 273.066 401.05 273.634 398.31 273.38C395.463 273.116 392.051 272.103 389.264 272.481C386.271 271.653 384.05 271.472 380.956 271.866L381.42 268.497L409.31 270.643C412.641 273.436 416.095 276.095 419.907 278.156C423.168 276.24 426.218 273.18 428.801 270.378Z" fill="#ADBFD8" style="fill:#ADBFD8;fill:color(display-p3 0.6784 0.7490 0.8471);fill-opacity:1;"/>
<path d="M419.828 370.722C424.772 375.577 430.794 379.639 437.023 382.485C438.539 383.178 440.085 383.817 441.673 384.309C442.958 384.709 444.609 384.949 445.622 385.879C445.303 386.919 444.445 387.377 443.641 388.056L443.37 388.087C438.721 388.574 434.174 381.963 429.922 384.571C428.933 385.833 428.755 387.144 428.924 388.714C429.133 390.666 430.025 392.519 431.128 394.096C432.064 395.433 434.712 397.492 434.615 399.12L433.954 398.811L433.679 399.087C433.145 398.917 432.659 398.712 432.163 398.446C425.227 394.751 416.612 389.349 414.112 381.242C415.384 377.25 417.491 374.096 419.828 370.722Z" fill="#9492B7" style="fill:#9492B7;fill:color(display-p3 0.5804 0.5725 0.7176);fill-opacity:1;"/>
<path d="M428.203 247.714C429.395 249.29 430.731 251.73 432.77 252.003C434.78 251.448 436.514 249.805 438.075 248.428C442.985 244.097 447.281 239.105 450.821 233.511C454.563 238.914 455.904 246.667 456.615 253.185C447.121 255.674 437.424 256.398 427.666 256.589L425.658 249.278L428.203 247.714Z" fill="#8EDAE9" style="fill:#8EDAE9;fill:color(display-p3 0.5569 0.8549 0.9137);fill-opacity:1;"/>
<path d="M473.734 89.6273C476.149 86.3871 477.758 83.4607 482.038 82.89C483.272 82.7258 484.203 82.7645 485.223 83.5995C488.939 86.6405 492.073 90.7713 494.977 94.6148C495.949 95.9012 497.203 97.155 497.942 98.6067C498.322 99.3525 498.441 100.217 498.524 101.048L498.563 103.434L498.512 104.025C497.917 107.91 495.651 111.058 492.642 113.309C487.334 104.196 481.452 96.7013 473.734 89.6273Z" fill="#D5522A" style="fill:#D5522A;fill:color(display-p3 0.8353 0.3216 0.1647);fill-opacity:1;"/>
<path d="M371.427 223.228L371.51 222.491L371.28 222.205L371.79 222.207C372.095 222.572 372.046 222.66 372.521 222.731C373.597 222.894 375.024 224.347 376.016 224.945C376.969 225.521 378.038 225.919 379.078 226.287C385.083 228.41 391.62 228.953 397.817 230.274C399.771 230.691 401.657 231.715 403.633 231.882L408.697 234.994L411.004 236.399L399.552 248.886L397.05 246.967C390.826 242.525 384.822 237.416 379.363 232.002C376.573 229.235 373.745 226.442 371.427 223.228Z" fill="#50A7E1" style="fill:#50A7E1;fill:color(display-p3 0.3137 0.6549 0.8824);fill-opacity:1;"/>
<path d="M386.074 232.828C389.482 232.969 392.884 233.732 396.263 234.211C400.089 234.754 404.016 235.05 407.764 236.019L408.775 236.683C408.273 238.401 404.091 241.489 402.711 242.721C401.946 243.404 401.099 244.392 400.229 244.888L400.063 244.967C397.773 243.79 395.596 242.011 393.591 240.391C390.82 238.152 388.015 235.908 386.074 232.828Z" fill="#8EDAE9" style="fill:#8EDAE9;fill:color(display-p3 0.5569 0.8549 0.9137);fill-opacity:1;"/>
<path d="M359.267 228.792L372.187 230.486C373.465 233.019 374.224 235.967 374.985 238.712C378.009 249.621 379.185 260.917 378.115 272.232C374.55 269.506 371.111 267.748 366.988 266.155C366.887 252.859 365.08 240.766 359.267 228.792Z" fill="#EFC84C" style="fill:#EFC84C;fill:color(display-p3 0.9373 0.7843 0.2980);fill-opacity:1;"/>
<path d="M327.406 261.646L348.161 266.271L344.731 268.008C343.8 268.514 343.071 268.942 342.764 269.998C339.61 270.719 335.74 272.088 333.927 275.102C333.266 276.201 333.455 277.283 333.786 278.45C335.373 284.064 340.642 288.259 345.412 290.909C348.365 292.549 351.36 293.423 354.581 294.282C357.626 295.094 360.743 296.02 363.877 296.361C365.81 296.572 367.832 296.455 369.775 296.433C368.745 298.719 367.655 300.389 365.861 302.07L364.951 302.188C363.958 302.326 363.051 302.389 362.045 302.331C358.002 302.102 354.447 301.091 350.626 299.745C343.996 297.408 337.68 294.086 332.976 288.559C326.584 281.051 326.903 271.017 327.406 261.646Z" fill="#2B2F54" style="fill:#2B2F54;fill:color(display-p3 0.1686 0.1843 0.3294);fill-opacity:1;"/>
<path d="M489.434 260.82C495.661 268.367 502.12 276.047 507.131 284.548L505.557 286.054C502.866 288.555 500.386 291.638 498.209 294.626L498.058 294.691C496.514 293.124 494.581 291.991 492.985 290.444C486.661 284.321 481.797 276.363 479.139 267.813C482.42 266.479 484.907 264.616 487.621 262.318L489.434 260.82Z" fill="#43537F" style="fill:#43537F;fill:color(display-p3 0.2627 0.3255 0.4980);fill-opacity:1;"/>
<path d="M489.436 260.82C495.663 268.367 502.121 276.046 507.133 284.548L505.558 286.054C502.763 283.196 500.55 279.132 498.163 275.85C494.798 271.223 491.159 266.805 487.623 262.318L489.436 260.82Z" fill="#8BA9D0" style="fill:#8BA9D0;fill:color(display-p3 0.5451 0.6627 0.8157);fill-opacity:1;"/>
<path d="M452.987 346.31C450.171 349.57 447.023 352.201 443.759 354.949C441.401 356.934 438.578 359.061 436.89 361.731C436.391 362.519 436.182 363.428 436.236 364.368C436.337 366.166 437.426 367.516 438.709 368.617C442.727 372.067 449.069 373.873 454.239 373.592C455.145 373.649 456.156 373.619 457.03 373.871C455.749 375.57 454.076 377.083 452.551 378.543C450.758 380.261 449.011 382.026 446.997 383.467C442.531 382.127 437.938 380.384 433.901 377.964C429.623 375.401 425.898 372.137 422.071 368.922L421.934 356.49C426.811 355.858 431.606 354.752 436.258 353.082C438.309 352.346 440.241 351.327 442.284 350.596L442.479 350.529C445.604 350.728 450.207 347.705 452.987 346.31Z" fill="#2B2F54" style="fill:#2B2F54;fill:color(display-p3 0.1686 0.1843 0.3294);fill-opacity:1;"/>
<path d="M435.412 74.8107C442.317 76.5835 449.103 78.6 455.572 81.7182C469.572 88.4676 481.219 99.9112 489.13 113.583C495.046 123.804 498.589 136.125 500.952 147.732C502.348 154.588 503.225 161.708 505.508 168.321C506.159 170.206 507.063 171.883 507.914 173.668C507.116 174.107 506.375 174.11 505.498 173.818L505.139 173.691C504.754 171.003 503.142 168.982 502.458 166.395C501.075 161.174 500.202 155.812 499.05 150.535C498.493 147.982 497.737 145.53 497.109 143.013L497.041 142.728L496.764 142.444C496.562 141.419 495.94 140.596 495.851 139.535C495.82 139.15 495.836 139.075 495.636 138.723C495.352 138.22 494.834 136.388 494.664 135.711C494.174 133.744 492.927 131.859 492.475 129.953L492.441 129.642C492.35 128.987 491.849 128.415 491.568 127.826C490.652 125.907 489.861 123.806 488.832 121.936C486.58 117.842 483.572 113.724 480.689 110.116C478.764 107.706 476.735 104.858 474.293 102.986C472.577 101.669 470.912 99.7495 469.324 98.2121C468.816 97.0754 466.504 95.6031 465.501 94.8405C456.219 87.799 446.511 83.3075 435.829 79.1056C434.719 78.7472 433.686 78.5831 432.537 78.4527C433.595 77.2858 434.594 76.1756 435.412 74.8107Z" fill="white" style="fill:white;fill-opacity:1;"/>
<path d="M317.348 180.261C320.219 183.589 323.011 188.12 326.701 190.511C328.542 191.704 330.263 193.723 332.066 195.087C337.296 199.036 342.822 202.513 348.63 205.468C352.899 207.641 357.56 209.306 362.066 210.886C382.052 217.896 404.385 220.222 425.409 218.801C432.655 218.311 439.921 217.53 447.026 215.95C452.065 214.829 457.086 213.322 462.001 211.716C465.018 210.73 468.037 209.82 470.95 208.519C479.497 204.701 487.295 199.61 494.728 193.835C496.751 192.264 498.503 190.4 500.285 188.552C501.304 187.497 502.355 186.046 503.715 185.533C502.367 187.899 500.241 190.059 498.384 192.002C491.211 199.509 482.871 205.709 473.754 210.398C466.243 214.261 458.521 216.671 450.407 218.744C440.876 221.179 431.331 222.869 421.513 223.394C406.794 224.18 391.79 222.414 377.43 219.043C372.057 217.782 366.684 216.475 361.463 214.639C346.653 209.425 332.791 202.005 322.604 189.323C320.511 186.718 318.401 183.959 316.951 180.906L317.348 180.261Z" fill="#8BA9D0" style="fill:#8BA9D0;fill:color(display-p3 0.5451 0.6627 0.8157);fill-opacity:1;"/>
<path d="M341.259 228.192C343.878 227.22 346.395 226.149 349.104 227.46C350.318 228.049 351.064 228.897 351.891 229.945C353.313 231.827 354.098 234.175 354.857 236.408C357.482 244.13 358.225 252.158 358.299 260.298C354.329 260.391 350.263 260.646 346.317 260.117C341.731 259.504 337.173 257.891 332.674 256.758C330.285 256.157 327.518 255.855 325.24 254.939L323.276 255.146C328.526 245.718 333.89 236.034 341.259 228.192Z" fill="#8EDAE9" style="fill:#8EDAE9;fill:color(display-p3 0.5569 0.8549 0.9137);fill-opacity:1;"/>
<path d="M341.259 228.192C343.878 227.22 346.395 226.149 349.104 227.46C350.318 228.049 351.064 228.898 351.891 229.945C350.061 230.009 347.978 229.099 346.102 228.838C336.855 234.592 332.336 246.854 325.24 254.939L323.276 255.146C328.526 245.718 333.89 236.034 341.259 228.192Z" fill="white" style="fill:white;fill-opacity:1;"/>
<path d="M355.101 268.565C356.703 268.354 358.407 268.036 360.025 268.087C364.306 268.221 368.049 269.73 371.864 271.597C371.94 272.228 371.677 272.65 371.455 273.231C372.627 276.341 373.292 278.878 373.088 282.244C372.788 287.018 371.615 292.043 369.775 296.433C367.832 296.455 365.81 296.572 363.877 296.361C360.743 296.02 357.626 295.094 354.581 294.282C351.36 293.423 348.365 292.549 345.412 290.909C340.642 288.259 335.373 284.064 333.786 278.45C333.455 277.283 333.266 276.201 333.927 275.102C335.74 272.088 339.611 270.719 342.764 269.998C346.868 270.295 351.107 268.002 355.101 268.565Z" fill="#2B3E73" style="fill:#2B3E73;fill:color(display-p3 0.1686 0.2431 0.4510);fill-opacity:1;"/>
<path d="M355.1 268.565C356.702 268.353 358.407 268.036 360.024 268.087C364.305 268.221 368.049 269.73 371.863 271.597C371.939 272.228 371.676 272.65 371.454 273.231C372.626 276.341 373.291 278.878 373.088 282.244C366.407 283.164 359.901 282.01 354.214 278.099C351.897 276.505 349.771 274.378 349.192 271.456C349.503 270.941 349.46 270.93 350.02 270.781C351.632 269.816 353.356 269.211 355.1 268.565Z" fill="#43537F" style="fill:#43537F;fill:color(display-p3 0.2627 0.3255 0.4980);fill-opacity:1;"/>
<path d="M355.099 268.565C356.701 268.353 358.406 268.036 360.023 268.087C364.304 268.221 368.048 269.73 371.863 271.597C371.938 272.228 371.675 272.649 371.453 273.231C367.403 270.608 361.159 269.283 356.426 269.826C354.36 270.062 352.268 270.74 350.196 270.781H350.02C351.631 269.816 353.355 269.211 355.099 268.565Z" fill="#C8C6D5" style="fill:#C8C6D5;fill:color(display-p3 0.7843 0.7765 0.8353);fill-opacity:1;"/>
<path d="M299.49 288.46L299.581 288.619C300.428 290.151 300.755 292.207 301.291 293.89C303.531 300.92 306.851 309.605 314.53 311.785C318.547 312.926 324.022 311.402 327.507 309.259C331.682 306.691 335.728 302.612 337.846 298.041L344.396 301.263L350.419 303.684C349.815 309.136 349.487 315.861 345.037 319.589C343.904 320.537 342.489 321.303 341.064 321.611C338.892 322.078 336.557 322.208 334.351 322.446C329.328 322.986 324.287 323.348 319.259 323.827C315.445 324.191 311.633 324.597 307.816 324.942C306.189 325.088 304.199 325.463 302.584 325.247C302.196 325.195 301.851 325.101 301.477 324.985L301.169 324.895C300.135 324.548 299.185 323.418 298.696 322.432C297.927 320.88 298.062 319.288 298.062 317.597C298.062 315.203 298.086 312.809 298.091 310.415C298.094 308.103 297.851 305.391 298.288 303.137L298.403 302.715C299.51 301.189 299.436 290.738 299.49 288.46Z" fill="#963C20" style="fill:#963C20;fill:color(display-p3 0.5882 0.2353 0.1255);fill-opacity:1;"/>
<path d="M299.49 288.46L299.581 288.618C300.427 290.151 300.755 292.207 301.291 293.889C303.531 300.92 306.851 309.605 314.529 311.784C318.546 312.926 324.021 311.402 327.507 309.259C331.682 306.691 335.728 302.612 337.846 298.041L344.396 301.263C342.857 305.562 340.714 311.886 336.301 313.895C334.111 314.893 331.108 314.998 328.738 315.274C324.379 315.784 320.015 316.231 315.647 316.649C313.063 316.895 310.49 317.215 307.901 317.387C306.691 317.467 305.18 317.601 304.027 317.165C300.959 316.006 300.106 312.688 298.356 310.317L298.288 303.137L298.403 302.714C299.51 301.189 299.436 290.737 299.49 288.46Z" fill="#D5522A" style="fill:#D5522A;fill:color(display-p3 0.8353 0.3216 0.1647);fill-opacity:1;"/>
<path d="M456.95 78.7231L457.089 78.5614C458.3 77.0916 459.049 75.1922 460.102 73.5836C463.682 68.1206 469.148 62.8386 475.806 62.2594C484.759 61.481 492.672 65.2063 499.318 71.2147C502.914 74.4681 506.078 78.1861 508.573 82.4134C509.369 83.7613 510.93 87.8643 512.001 88.499C512.107 89.3836 512.218 90.2416 512.198 91.1346C511.19 98.4946 508.258 105.307 502.412 109.909C500.592 111.343 498.752 112.32 496.451 112.533C497.002 111.918 497.485 111.233 497.91 110.519C501.08 105.187 501.266 99.536 499.944 93.5505C497.081 89.2026 494.967 84.8027 490.674 81.6712C486.59 78.6917 481.999 76.5763 476.918 77.5501C472.458 78.4033 469.864 80.8229 467.339 84.5903C466.683 84.5397 466.299 84.1257 465.811 83.7155L456.95 78.7231Z" fill="#43537F" style="fill:#43537F;fill:color(display-p3 0.2627 0.3255 0.4980);fill-opacity:1;"/>
<path d="M465.811 83.7154C466.428 80.5102 468.02 77.7033 470.725 75.8703C473.961 73.68 478.694 73.6583 482.376 74.5199C488.322 75.9113 493.742 80.1422 496.955 85.4688C498.381 87.834 499.623 90.7568 499.944 93.5504C497.08 89.2025 494.967 84.8027 490.674 81.6711C486.59 78.6917 481.998 76.5762 476.917 77.5501C472.457 78.4032 469.864 80.8228 467.338 84.5903C466.683 84.5396 466.299 84.1257 465.811 83.7154Z" fill="#2B2F54" style="fill:#2B2F54;fill:color(display-p3 0.1686 0.1843 0.3294);fill-opacity:1;"/>
<path d="M320.094 69.8668C326.975 63.1777 335.375 58.9384 344.971 59.2256C349.66 59.3668 353.931 60.1391 357.299 63.8161C359.609 66.3358 361.554 69.594 363.07 72.6894L366.035 78.2296L357.236 82.6282C352.558 77.8844 348.349 75.028 341.556 75.1704C336.006 75.2875 331.309 77.7456 327.579 81.921C322.809 87.2633 320.491 94.1068 320.802 101.358C320.936 104.48 321.997 107.46 323.473 110.147C320.931 110.002 318.523 110.169 316.507 108.257C310.673 102.727 309.48 94.5774 309.122 86.8301C309.709 85.5026 310.043 84.0726 310.65 82.738C312.854 77.8929 316.153 73.3422 320.094 69.8668Z" fill="#43537F" style="fill:#43537F;fill:color(display-p3 0.2627 0.3255 0.4980);fill-opacity:1;"/>
<path d="M320.096 69.8667C326.976 63.1776 335.377 58.9383 344.972 59.2255C349.661 59.3667 353.933 60.139 357.301 63.816C359.61 66.3357 361.555 69.5939 363.071 72.6893L362.663 72.8992C360.062 69.7508 357.384 66.3876 354.048 64.0441C350.593 61.6149 344.836 61.7078 340.84 62.4982C333.193 64.0091 325.753 69.0231 320.689 75.0919C318.922 77.2097 317.591 79.4266 316.093 81.7218L320.096 69.8667Z" fill="#ADBFD8" style="fill:#ADBFD8;fill:color(display-p3 0.6784 0.7490 0.8471);fill-opacity:1;"/>
<path d="M365.298 333.679L377.859 337.397C389.175 339.725 401.277 340.584 412.796 340.353C420.215 340.206 427.533 339.245 434.863 338.146C448.393 336.116 463.624 333.359 475.156 325.365L475.566 325.814L475.461 327.124C474.274 327.977 472.99 328.902 472.101 330.096C470.911 331.808 468.878 332.941 467.115 333.92C460.251 337.732 452.025 339.883 444.379 341.183C433.787 342.985 423.419 343.51 412.729 344.043C405.779 344.39 398.843 344.894 391.882 344.984C381.882 345.113 372.34 344.281 362.406 346.041C364.178 354.045 366.194 362.278 370.32 369.393C371.71 371.787 373.343 374.15 375.569 375.773C379.909 376.792 387.686 376.422 391.49 373.867C395.48 371.187 396.291 365.959 397.556 361.592C392.533 360.537 387.742 357.607 383.322 355.002C379.848 352.953 376.205 350.963 373.57 347.777L378.158 349.097L378.014 349.578C379.536 351.168 381.541 352.172 383.494 353.064C388.874 355.52 394.25 356.378 400.073 356.679C399.34 363.916 397.206 373.1 393.722 379.446C384.112 379.838 374.318 382.271 364.808 383.749C360.713 378.65 357.899 373.308 355.246 367.324C350.582 356.802 347.587 345.877 345.776 334.464C352.551 336.589 358.647 335.996 365.298 333.679Z" fill="#2B2F54" style="fill:#2B2F54;fill:color(display-p3 0.1686 0.1843 0.3294);fill-opacity:1;"/>
<path d="M333.121 232.863C328.831 238.556 325.228 244.914 321.599 251.079C320.631 252.722 318.197 255.949 318.382 257.825C318.455 258.563 318.858 259.04 319.424 259.459C320.699 260.402 322.311 260.954 323.777 261.492C322.738 271.187 323.171 282.238 329.26 290.233C331.665 293.39 334.633 295.832 337.846 298.041C335.729 302.612 331.683 306.691 327.508 309.259C324.022 311.402 318.547 312.926 314.53 311.785C306.852 309.605 303.531 300.92 301.292 293.89C300.756 292.207 300.428 290.151 299.582 288.618L299.491 288.46L300.012 268.102C300.464 265.719 300.412 263.026 300.576 260.588C301.05 253.551 301.338 246.506 302.905 239.622C306.097 236.77 311.657 236.017 315.657 234.827L333.121 232.863Z" fill="#ED7C22" style="fill:#ED7C22;fill:color(display-p3 0.9294 0.4863 0.1333);fill-opacity:1;"/>
<path d="M472.102 330.096C471.045 341.256 468.334 351.598 462.521 361.136C460.561 364.351 458.347 367.454 456.115 370.471C455.658 371.09 453.927 372.956 454.239 373.592C449.069 373.873 442.727 372.067 438.709 368.617C437.426 367.516 436.337 366.166 436.236 364.368C436.182 363.427 436.391 362.519 436.89 361.731C438.578 359.061 441.401 356.934 443.759 354.949C447.023 352.201 450.171 349.57 452.987 346.31C450.207 347.705 445.604 350.728 442.479 350.529C445.388 349.137 448.11 347.596 450.747 345.709C445.035 347.794 439.418 349.685 433.489 351.033C421.925 353.662 409.149 354.277 397.392 352.874C390.831 352.091 384.578 350.62 378.158 349.097L373.57 347.777C376.205 350.963 379.849 352.953 383.323 355.002C387.742 357.607 392.533 360.537 397.556 361.592C396.291 365.959 395.481 371.187 391.49 373.867C387.686 376.422 379.909 376.792 375.569 375.773C373.343 374.15 371.71 371.787 370.321 369.392C366.194 362.277 364.178 354.045 362.406 346.041C372.34 344.281 381.882 345.113 391.882 344.983C398.843 344.894 405.78 344.39 412.729 344.043C423.42 343.51 433.787 342.985 444.379 341.183C452.026 339.883 460.252 337.732 467.115 333.92C468.879 332.941 470.911 331.808 472.102 330.096Z" fill="#43537F" style="fill:#43537F;fill:color(display-p3 0.2627 0.3255 0.4980);fill-opacity:1;"/>
<path d="M379.078 306.669C381.572 305.998 384.304 305.622 386.349 303.867C387.069 303.249 387.614 302.264 388.401 301.767C389.901 300.822 390.774 300.637 392.079 299.193C393.797 297.293 394.154 295.492 394.038 292.963L394.027 292.744C394.98 291.831 395.723 290.849 396.491 289.767C396.603 295.884 393.483 303.464 389.415 307.886C387.35 310.13 385.077 311.717 382.507 313.272C384.356 314.015 386.417 314.273 388.365 314.61C393.317 315.468 398.321 315.822 403.333 315.986C421.052 316.568 438.552 315.762 455.951 312.039C462.962 310.539 470.09 308.699 476.652 305.66L477.455 305.234L477.505 302.401C478.338 305.647 477.894 310.496 477.829 313.936C477.805 315.254 477.917 316.828 477.577 318.101C476.814 320.944 474.107 323.387 471.712 324.741C465.198 328.423 456.95 330.574 449.74 332.198C423.585 338.092 394.301 339.05 368.488 331.025C375.86 325.212 377.591 315.612 379.078 306.669Z" fill="#8BA9D0" style="fill:#8BA9D0;fill:color(display-p3 0.5451 0.6627 0.8157);fill-opacity:1;"/>
<path d="M429.018 272.92C439.336 271.948 449.263 270.421 459.15 267.054C463.131 272.782 466.898 278.875 472.559 283.024C473.329 283.589 473.978 284.156 474.911 284.414C475.995 290.306 477.256 296.398 477.505 302.401L477.455 305.234L476.653 305.66C470.091 308.699 462.962 310.539 455.951 312.039C438.552 315.762 421.053 316.568 403.334 315.986C398.321 315.822 393.317 315.468 388.366 314.61C386.417 314.273 384.357 314.015 382.507 313.272C385.077 311.717 387.35 310.13 389.415 307.886C393.484 303.464 396.603 295.884 396.491 289.767C397.455 286.87 397.422 283.743 396.533 280.823C395.274 276.683 392.882 274.443 389.265 272.481C392.052 272.103 395.464 273.117 398.311 273.38C401.051 273.634 405.433 273.066 407.824 274.194C409.161 274.825 410.418 276.103 411.624 276.995C414.07 278.805 417.304 280.921 420.152 281.943L429.018 272.92Z" fill="white" style="fill:white;fill-opacity:1;"/>
<path d="M349.287 92.2327C352.246 89.5682 355.808 87.4274 359.25 85.5147C368.164 80.5597 378.006 77.6901 387.877 75.6313C395.279 74.0867 402.995 73.1551 410.198 70.7875C414.545 69.3587 418.66 67.242 422.535 64.7742L420.912 68.1809C419.792 69.9838 417.935 71.6925 417.064 73.5268L417.257 73.8864C422.771 73.7247 427.948 73.1696 433.331 71.9109L431.804 74.0469C429.253 77.2327 426.952 78.6241 423.563 80.6659C426.43 81.0919 432.094 81.9958 434.699 80.2798C435.139 79.9889 435.504 79.5255 435.827 79.1056C446.51 83.3075 456.218 87.799 465.5 94.8405C466.503 95.6031 468.815 97.0754 469.323 98.2121C470.911 99.7495 472.576 101.669 474.292 102.986C476.734 104.858 478.762 107.706 480.688 110.116C483.571 113.724 486.579 117.842 488.831 121.936C489.86 123.806 490.651 125.907 491.567 127.826C491.848 128.415 492.349 128.987 492.44 129.642L492.474 129.953C492.926 131.859 494.172 133.744 494.663 135.711C494.833 136.388 495.351 138.22 495.635 138.723C495.835 139.075 495.819 139.15 495.85 139.535C495.939 140.596 496.561 141.419 496.763 142.444L497.04 142.728L497.108 143.013C497.736 145.53 498.492 147.982 499.049 150.535C500.201 155.812 501.074 161.174 502.456 166.395C503.141 168.982 504.753 171.003 505.138 173.691L503.548 172.791C503.395 174.14 503.85 175.577 504.124 176.895C504.575 179.063 504.971 181.245 505.451 183.406L503.716 185.533C502.355 186.046 501.304 187.497 500.286 188.552C498.503 190.4 496.751 192.264 494.728 193.835C487.295 199.61 479.497 204.701 470.95 208.519C468.038 209.82 465.019 210.73 462.001 211.716C457.087 213.322 452.065 214.829 447.026 215.95C439.921 217.53 432.656 218.311 425.41 218.801C404.385 220.222 382.053 217.895 362.067 210.885C357.56 209.306 352.899 207.64 348.631 205.468C342.822 202.513 337.296 199.036 332.066 195.087C330.263 193.723 328.542 191.704 326.702 190.511C323.012 188.12 320.22 183.589 317.348 180.26C318.195 178.844 319.442 176.108 319.082 174.398C318.967 173.85 318.621 173.801 318.188 173.562C317.022 174.031 315.104 173.965 313.949 173.491L313.849 173.214C319.116 165.849 319.42 156.691 321.239 148.055C324.348 133.303 329.38 118.794 337.468 106.161C340.717 101.087 344.649 96.0038 349.287 92.2327Z" fill="white" style="fill:white;fill-opacity:1;"/>
<path d="M411.904 73.7452C414.221 71.859 418.045 68.4729 420.911 68.1808C419.792 69.9837 417.935 71.6925 417.064 73.5268L417.257 73.8864L411.904 73.7452Z" fill="#ADBFD8" style="fill:#ADBFD8;fill:color(display-p3 0.6784 0.7490 0.8471);fill-opacity:1;"/>
<path d="M425.31 175.857C427.826 175.63 429.219 174.817 431.225 173.272C430.46 175.332 427.657 180.212 425.593 181.061C425.281 181.189 424.979 181.273 424.65 181.337L425.31 175.857Z" fill="#C8C6D5" style="fill:#C8C6D5;fill:color(display-p3 0.7843 0.7765 0.8353);fill-opacity:1;"/>
<path d="M413.635 165.304L413.399 164.868L413.746 164.301C417.65 163.624 421.142 161.767 424.674 160.022C423.783 161.687 420.352 163.974 418.674 164.773C417.807 165.187 414.611 166.199 414.174 166.858C413.963 167.174 414.012 169.061 413.994 169.547C413.544 168.257 413.658 166.671 413.635 165.304Z" fill="#C8C6D5" style="fill:#C8C6D5;fill:color(display-p3 0.7843 0.7765 0.8353);fill-opacity:1;"/>
<path d="M401.336 159.728C402.672 160.161 403.8 161.02 405.087 161.585C407.536 162.661 410.144 163.465 412.695 164.241C413.043 164.347 413.06 164.26 413.2 164.541C413.463 165.064 413.428 165.791 413.463 166.373C413.473 167.375 413.481 168.205 413.187 169.176C411.473 168.09 410.161 166.367 408.579 165.071C407.279 164.004 405.935 163.097 404.502 162.234C403.371 161.555 401.87 161.037 401.336 159.728Z" fill="#C8C6D5" style="fill:#C8C6D5;fill:color(display-p3 0.7843 0.7765 0.8353);fill-opacity:1;"/>
<mask id="mask6_556_550" style="mask-type:luminance" maskUnits="userSpaceOnUse" x="396" y="145" width="35" height="7">
<path d="M412.318 145.265C413.97 145.145 415.817 145.304 417.464 145.525C421.284 146.038 427.719 147.526 430.178 150.818L430.035 151.162C426.2 148.599 421.267 147.836 416.835 147.166C412.728 146.876 408.702 147.189 404.681 148.113C401.969 148.736 399.322 149.715 396.617 150.41L397.632 149.679C401.875 146.586 407.257 145.648 412.318 145.265Z" fill="white" style="fill:white;fill-opacity:1;"/>
</mask>
<g mask="url(#mask6_556_550)">
<path d="M412.318 145.265C413.97 145.145 415.817 145.304 417.464 145.525C421.284 146.038 427.719 147.526 430.178 150.818L430.035 151.162C426.2 148.599 421.267 147.836 416.835 147.166C412.728 146.876 408.702 147.189 404.681 148.113C401.969 148.736 399.322 149.715 396.617 150.41L397.632 149.679C401.875 146.586 407.257 145.648 412.318 145.265Z" fill="url(#paint6_linear_556_550)" style=""/>
</g>
<path d="M410.545 80.3232C414.899 79.8972 419.374 79.2021 423.471 77.5453C426.306 76.4 428.792 74.7564 431.803 74.0469C429.252 77.2327 426.951 78.6241 423.562 80.6659C426.429 81.0919 432.094 81.9958 434.698 80.2798C435.139 79.9889 435.504 79.5255 435.827 79.1056C446.51 83.3075 456.218 87.799 465.5 94.8404C466.503 95.6031 468.814 97.0753 469.322 98.2121L469.208 98.6598C469.837 99.2644 470.462 99.8388 470.983 100.551C470.282 100.406 469.761 99.6433 469.235 99.1389C468.133 98.0806 466.967 97.0874 465.802 96.1039C463.914 94.5098 461.932 92.9712 459.901 91.5762C455.81 88.7656 451.214 86.4547 446.619 84.6603C443.766 83.5464 438.544 81.6216 435.504 82.184C434.502 82.3686 433.482 82.9286 432.493 83.2266C430.674 83.7745 428.867 83.9278 426.975 83.8023C421.415 83.4342 415.962 81.5215 410.545 80.3232Z" fill="#C8C6D5" style="fill:#C8C6D5;fill:color(display-p3 0.7843 0.7765 0.8353);fill-opacity:1;"/>
<path d="M401.337 159.728C400.723 158.15 399.974 156.349 400.637 154.662C401.155 153.34 402.567 152.533 403.801 152.064C405.44 151.44 407.25 151.25 408.978 151.09C413.457 150.672 419.237 150.449 423.334 152.553C424.485 153.145 425.662 154.25 426.001 155.579C426.239 156.507 426.226 157.817 425.733 158.645L424.674 160.022C421.141 161.767 417.65 163.624 413.746 164.301L413.399 164.868L413.635 165.304L413.463 166.373C413.428 165.792 413.463 165.064 413.2 164.541C413.061 164.26 413.043 164.347 412.696 164.241C410.145 163.465 407.537 162.661 405.087 161.585C403.8 161.02 402.672 160.161 401.337 159.728Z" fill="#32173D" style="fill:#32173D;fill:color(display-p3 0.1961 0.0902 0.2392);fill-opacity:1;"/>
<path d="M413.636 165.304C413.658 166.671 413.544 168.257 413.994 169.547C416.182 172.116 419.325 173.859 422.673 174.082C425.898 174.298 428.779 173.342 431.209 171.113C432.671 169.773 433.596 167.915 434.692 166.263C433.916 169.146 433.03 170.948 431.226 173.272C429.219 174.817 427.826 175.63 425.31 175.857L424.651 181.337L424.361 182.558C424.024 184.326 423.611 186.043 422.684 187.593C421.14 190.173 418.425 192.339 415.541 192.965C412.177 193.694 408.305 193.129 405.423 191.11C401.86 188.618 400.884 184.67 400.048 180.54L399.899 180.432L399.655 180.246C397.32 178.509 394.66 175.785 393.567 172.987C392.086 170.884 391.171 168.814 390.275 166.401C391.444 167.958 392.553 169.715 393.926 171.077C396.139 173.271 399.064 174.416 402.11 174.33C406.364 174.21 410.284 172.365 413.188 169.176C413.482 168.205 413.474 167.375 413.464 166.373L413.636 165.304Z" fill="#32173D" style="fill:#32173D;fill:color(display-p3 0.1961 0.0902 0.2392);fill-opacity:1;"/>
<path d="M393.566 172.987C395.437 174.425 396.986 175.4 399.213 176.084L400.047 180.54L399.898 180.432L399.654 180.246C397.319 178.509 394.659 175.785 393.566 172.987Z" fill="#C8C6D5" style="fill:#C8C6D5;fill:color(display-p3 0.7843 0.7765 0.8353);fill-opacity:1;"/>
<path d="M411.979 172.576L412.094 179.821C408.39 179.716 405.698 180.067 402.856 182.763C402.473 183.128 402.234 183.54 402.008 184.019L400.341 176.084C401.516 176.085 402.614 175.991 403.775 175.817C406.73 175.727 409.641 174.368 411.979 172.576Z" fill="#DC2633" style="fill:#DC2633;fill:color(display-p3 0.8627 0.1490 0.2000);fill-opacity:1;"/>
<path d="M411.978 172.576L413.351 171.356C416.635 174.456 419.723 175.61 424.158 175.817L425.309 175.857L424.65 181.337L424.361 182.558L423.907 182.331L423.368 182.563L423.236 182.951C422.901 181.903 422.343 181.494 421.399 180.998C419.404 179.95 415.863 179.173 413.73 179.913L413.012 183.143C412.519 183.157 412.358 182.971 411.938 182.725C412.132 181.81 412.068 180.759 412.093 179.821L411.978 172.576Z" fill="#B52954" style="fill:#B52954;fill:color(display-p3 0.7098 0.1608 0.3294);fill-opacity:1;"/>
<path d="M424.158 175.817L425.309 175.857L424.65 181.337L424.36 182.558L423.907 182.331L423.367 182.563L424.158 175.817Z" fill="#551237" style="fill:#551237;fill:color(display-p3 0.3333 0.0706 0.2157);fill-opacity:1;"/>
<path d="M413.012 183.143L413.731 179.913C415.863 179.173 419.405 179.95 421.4 180.998C422.344 181.494 422.902 181.903 423.237 182.951C422.267 186.575 421.366 188.845 418.079 190.739C415.398 192.285 411.675 192.44 408.756 191.552C406.397 190.833 404.291 189.298 403.133 187.022L402.807 186.351L402.008 184.019C402.233 183.54 402.473 183.128 402.855 182.763C405.698 180.067 408.39 179.716 412.094 179.821C412.068 180.759 412.132 181.81 411.938 182.725C410.975 181.975 410.152 181.812 408.958 181.962C407.34 182.165 405.757 182.831 404.737 184.182C404.491 184.506 404.354 184.832 404.204 185.207L403.847 185.755C404.331 186.339 404.821 186.935 405.411 187.408C407.879 189.383 410.951 190.39 414.051 189.91C416.025 189.603 419.325 188.223 420.41 186.361C420.917 185.492 420.731 185.089 420.508 184.17C419.584 183.067 418.82 182.248 417.339 182.039C415.742 181.815 414.486 181.966 413.198 182.991L413.012 183.143Z" fill="#F25460" style="fill:#F25460;fill:color(display-p3 0.9490 0.3294 0.3765);fill-opacity:1;"/>
<path d="M403.848 185.755L404.205 185.207C404.355 184.832 404.492 184.506 404.737 184.182C405.758 182.831 407.34 182.165 408.959 181.962C410.153 181.812 410.976 181.975 411.939 182.725C412.36 182.971 412.52 183.157 413.013 183.143L413.199 182.991C414.486 181.966 415.743 181.815 417.339 182.039C418.82 182.248 419.584 183.067 420.509 184.17C420.732 185.089 420.918 185.492 420.411 186.361C419.325 188.223 416.025 189.603 414.051 189.91C410.952 190.39 407.88 189.384 405.411 187.408C404.822 186.935 404.331 186.339 403.848 185.755Z" fill="#F78F8D" style="fill:#F78F8D;fill:color(display-p3 0.9686 0.5608 0.5529);fill-opacity:1;"/>
<path d="M349.287 92.2327C350.718 92.398 351.866 92.1518 353.24 91.7367C356.627 90.7134 359.82 89.0854 363.135 87.8534C370.379 85.1599 377.605 82.8405 385.093 80.9881C387.423 80.4113 389.665 79.5931 392.095 79.5992C389.978 80.3715 387.764 80.6949 385.597 81.2934C382.811 82.0634 380.109 83.001 377.417 84.069C358.214 91.686 344.352 106.307 335.566 125.412C333.323 130.288 331.52 135.389 329.935 140.528C327.103 149.716 324.902 159.404 328.151 168.781C333.29 183.608 346.05 193.953 359.404 200.377C369.265 205.12 380.075 207.568 390.792 209.127C404.663 211.145 418.656 211.445 432.607 210.211C444.095 209.195 455.489 207.152 466.339 202.981C478.994 198.118 490.951 191.595 496.886 178.26C499.993 171.279 499.3 163.604 498.307 156.211C497.81 152.522 497.343 148.899 496.454 145.283C496.223 144.35 496.233 143.296 495.943 142.411C495.834 142.075 495.698 141.784 495.607 141.438C495.3 140.267 494.836 139.05 494.421 137.918L494.265 137.345C491.892 128.848 487.423 120.854 482.479 113.741C479.074 108.84 475.588 104.322 470.983 100.551C470.462 99.8388 469.838 99.2644 469.209 98.6598L469.323 98.2121C470.911 99.7495 472.576 101.669 474.292 102.986C476.734 104.858 478.762 107.706 480.688 110.116C483.571 113.724 486.579 117.842 488.831 121.936C489.86 123.806 490.651 125.907 491.567 127.826C491.848 128.415 492.349 128.987 492.44 129.642L492.474 129.953C492.926 131.859 494.172 133.744 494.663 135.711C494.833 136.388 495.351 138.22 495.635 138.723C495.835 139.075 495.819 139.15 495.85 139.535C495.939 140.596 496.561 141.419 496.763 142.444L497.04 142.728L497.108 143.013C497.736 145.53 498.492 147.982 499.049 150.535C500.201 155.812 501.074 161.174 502.456 166.395C503.141 168.982 504.753 171.003 505.138 173.691L503.548 172.791C503.395 174.14 503.85 175.577 504.124 176.895C504.575 179.063 504.971 181.245 505.451 183.406L503.716 185.533C502.355 186.046 501.304 187.497 500.286 188.552C498.503 190.4 496.751 192.264 494.728 193.835C487.295 199.61 479.497 204.701 470.95 208.519C468.038 209.82 465.019 210.73 462.001 211.716C457.087 213.322 452.065 214.829 447.026 215.95C439.921 217.53 432.656 218.311 425.41 218.801C404.385 220.222 382.053 217.895 362.067 210.885C357.56 209.306 352.899 207.64 348.631 205.468C342.822 202.513 337.296 199.036 332.066 195.087C330.263 193.723 328.542 191.704 326.702 190.511C323.012 188.12 320.22 183.589 317.348 180.26C318.195 178.844 319.442 176.108 319.082 174.398C318.967 173.85 318.621 173.801 318.188 173.562C317.022 174.031 315.104 173.965 313.949 173.491L313.849 173.214C319.116 165.849 319.42 156.691 321.239 148.055C324.348 133.303 329.38 118.794 337.468 106.161C340.717 101.087 344.649 96.0038 349.287 92.2327Z" fill="#ADBFD8" style="fill:#ADBFD8;fill:color(display-p3 0.6784 0.7490 0.8471);fill-opacity:1;"/>
<path d="M445.022 102.931C452.623 102.146 460.531 104.421 466.893 108.699C477.939 116.129 485.87 128.952 488.531 142.23C490.212 150.615 490.101 162.445 485.421 169.762C481.992 175.122 476.818 179.009 470.711 180.271C464.271 181.291 457.804 179.592 452.518 175.655C446.869 171.45 442.802 164.896 438.328 159.438C436.667 157.412 434.693 155.594 433.153 153.477C431.915 151.771 430.883 149.821 429.934 147.932C428.465 145.008 427.897 141.981 427.378 138.765C425.905 129.646 425.222 118.861 430.726 110.995C434.347 105.821 439.179 103.937 445.022 102.931Z" fill="#43537F" style="fill:#43537F;fill:color(display-p3 0.2627 0.3255 0.4980);fill-opacity:1;"/>
<path d="M438.824 157.773C436.909 156.481 435.182 154.95 433.792 153.054L433.59 152.773C431.665 150.199 430.808 145.95 430.53 142.732C430.067 137.349 432.238 131.28 435.602 127.207C438.934 123.174 443.699 120.732 448.765 120.315C453.76 119.905 458.556 122.036 462.296 125.387C466.228 128.912 468.716 134.523 469.001 139.882C469.292 145.372 468.006 150.023 464.446 154.161C460.91 158.186 455.69 160.852 450.421 161.132C445.946 161.369 442.511 160.412 438.824 157.773Z" fill="#32173D" style="fill:#32173D;fill:color(display-p3 0.1961 0.0902 0.2392);fill-opacity:1;"/>
<path d="M439.405 157.237C437.157 155.681 434.972 153.528 433.665 151.051C431.529 147 431.215 141.799 432.478 137.422C433.881 132.555 436.951 128.368 441.318 125.986C445.19 123.875 449.986 122.971 454.22 124.411C458.724 125.942 462.342 129.223 464.43 133.64C466.796 138.643 466.433 144.527 464.73 149.637C462.323 154.325 459.393 157.703 454.364 159.316C449.71 160.809 445.088 160.433 440.786 158.04L439.405 157.237Z" fill="white" style="fill:white;fill-opacity:1;"/>
<path d="M435.995 132.331C437.853 129.348 440.755 126.996 444.149 126.243C447.49 125.502 452.131 126.646 454.923 128.609C458.293 130.979 460.467 134.716 461.22 138.836C462.088 143.598 460.936 148.973 458.254 152.912C456.136 156.019 453.039 157.81 449.424 158.387C445.767 158.971 442.198 157.639 439.307 155.354C437.245 153.726 435.151 151.262 434.442 148.624C433.747 147.179 433.332 145.569 433.164 143.963C432.762 140.114 433.64 135.401 435.995 132.331Z" fill="#2B3E73" style="fill:#2B3E73;fill:color(display-p3 0.1686 0.2431 0.4510);fill-opacity:1;"/>
<path d="M443.608 142.837C444.218 142.979 444.809 143.119 445.283 143.57C445.933 144.188 445.971 144.993 445.988 145.85C445.577 146.925 445.111 147.299 444.173 147.893C443.239 147.677 442.718 147.44 442.008 146.772C441.581 145.907 441.545 145.389 441.657 144.431C442.088 143.509 442.765 143.266 443.608 142.837Z" fill="white" style="fill:white;fill-opacity:1;"/>
<path d="M435.996 132.331C437.854 129.348 440.756 126.996 444.149 126.243C447.49 125.502 452.131 126.646 454.923 128.609C458.293 130.979 460.468 134.716 461.22 138.836C462.088 143.598 460.936 148.973 458.254 152.912C456.137 156.019 453.039 157.81 449.425 158.387C445.767 158.971 442.199 157.639 439.307 155.354C437.246 153.726 435.152 151.262 434.442 148.624C435.035 148.905 436.801 151.821 437.321 152.61C437.843 153.404 438.718 154.032 439.331 154.792C440.005 155.018 440.165 155.562 440.725 155.68C441.157 155.772 441.286 155.926 441.609 156.204C442.03 156.567 442.704 156.898 443.226 157.028C443.613 157.123 443.932 157.399 444.254 157.63L444.938 157.56L445.348 157.914L445.698 157.84C446.946 157.596 448.818 157.781 450.134 157.773L450.407 157.56L450.716 157.577C451.177 157.577 451.515 157.464 451.809 157.081L451.911 156.923L452.322 156.993L452.56 156.825C452.928 156.589 452.771 156.67 453.143 156.572C453.518 156.474 453.344 156.548 453.673 156.293C453.965 156.066 454.044 156.037 454.373 155.937C454.876 155.784 454.94 155.523 455.33 155.22L455.558 155.125C456.335 154.774 457.059 153.759 457.449 153.018C457.838 152.282 458.405 151.588 458.818 150.818L459.021 150.535L459.086 150.29L459.296 149.873C459.511 149.592 459.516 149.316 459.571 148.973L459.978 148.688L459.98 148.333L460.252 147.98L460.118 147.269L460.526 146.985C460.444 146.465 460.342 146.281 460.527 145.78C460.716 145.266 460.902 144.261 460.738 143.737L460.665 143.579C461.377 142.835 461.072 141.226 461.072 140.173C460.562 139.463 460.963 138.892 460.347 138.521C460.306 139.204 460.344 139.639 460.479 140.307C461.206 143.888 459.935 148.948 457.863 151.872C456.138 154.307 454.684 155.563 451.964 156.682L450.703 157.163C449.366 157.663 446.392 157.504 445.076 157.061L444.681 156.962C444.304 156.856 444.181 156.773 443.912 156.496C444.226 156.524 444.372 156.56 444.66 156.655C446.335 157.203 448.901 157.61 450.52 156.74L450.699 156.631C451.181 155.514 452.816 154.721 453.75 153.942C455.488 152.491 456.807 150.63 457.571 148.449C458.293 146.392 459.19 141.818 458.277 139.817C458.83 138.316 458.894 136.998 458.919 135.402C457.743 132.772 456.618 131.511 454.314 129.84C453.018 127.983 451.238 127.798 449.13 127.43C445.476 126.792 442.723 127.915 439.776 130.118L436.597 132.578L435.996 132.331Z" fill="#211F40" style="fill:#211F40;fill:color(display-p3 0.1294 0.1216 0.2510);fill-opacity:1;"/>
<path d="M458.919 135.402C460.384 137.911 460.397 143.701 459.753 146.52C459.012 149.768 456.782 153.399 454.019 155.164C452.979 155.826 451.854 156.246 450.699 156.631C451.182 155.514 452.816 154.721 453.75 153.942C455.488 152.491 456.808 150.63 457.572 148.449C458.294 146.392 459.19 141.818 458.277 139.817C458.831 138.316 458.895 136.998 458.919 135.402Z" fill="#26587D" style="fill:#26587D;fill:color(display-p3 0.1490 0.3451 0.4902);fill-opacity:1;"/>
<path d="M458.278 139.817C457.765 140.82 456.928 141.952 455.963 142.511C454.578 143.313 452.847 143.45 451.332 142.954C449.448 142.337 447.959 140.792 447.11 138.97C446.28 137.187 446.212 135.282 446.91 133.436C447.484 131.923 448.75 130.389 450.223 129.793C451.835 129.139 452.774 129.165 454.314 129.84C456.619 131.511 457.744 132.772 458.92 135.402C458.895 136.998 458.831 138.316 458.278 139.817Z" fill="white" style="fill:white;fill-opacity:1;"/>
<path d="M374.538 102.935L375.891 102.797C381.466 102.332 388.009 103.786 392.297 107.682C396.676 111.661 399.489 117.223 399.823 123.299C400.167 129.578 399.201 135.809 397.546 141.829C396.924 144.094 396.408 146.305 395.11 148.284C392.874 151.695 389.5 154.58 386.879 157.685C383.687 161.465 380.833 165.514 377.57 169.25C372.512 175.045 367.895 179.767 359.978 180.176C354.191 180.005 348.682 178.03 343.992 174.501C338.694 170.514 335.397 164.906 334.409 158.214C332.565 145.732 339.152 131.404 346.143 121.644C352.998 112.073 363.071 104.651 374.538 102.935Z" fill="#43537F" style="fill:#43537F;fill:color(display-p3 0.2627 0.3255 0.4980);fill-opacity:1;"/>
<path d="M370.424 119.671C375.025 119.167 379.964 119.608 383.92 122.322C388.222 125.271 391.053 131.144 392.014 136.299C393.115 142.207 391.884 148.362 388.692 153.351C384.909 159.262 380.248 161.623 373.679 162.982C368.81 163.553 363.816 163.037 359.684 160.085C355.441 157.052 352.456 152.092 351.573 146.83C350.596 141.021 352.008 134.783 355.283 129.982C359.07 124.433 363.944 120.852 370.424 119.671Z" fill="#32173D" style="fill:#32173D;fill:color(display-p3 0.1961 0.0902 0.2392);fill-opacity:1;"/>
<path d="M357.121 152.652L356.198 150.722C354.117 145.671 354.093 140.455 356.105 135.387C358.124 130.307 362.346 126.193 367.224 124.144C371.257 122.451 375.512 122.13 379.583 123.928C379.446 124.575 379.375 125.157 379.341 125.819C380.285 126.186 381.249 126.502 382.086 127.098C380.797 127.411 379.014 126.717 377.63 126.646C374.313 126.613 371.494 127.137 369.011 129.628C367.163 131.481 365.933 134.148 365.25 136.692C365.176 136.295 365.065 135.891 365.145 135.486L365.223 135.206C365.509 134.031 366.162 132.863 366.726 131.8L366.455 131.75C365.615 133.276 364.968 134.595 364.486 136.285L363.88 136.571L363.732 136.779C360.919 138.525 358.065 144.596 357.325 147.874C356.961 149.487 356.927 151.016 357.121 152.652Z" fill="#BA738E" style="fill:#BA738E;fill:color(display-p3 0.7294 0.4510 0.5569);fill-opacity:1;"/>
<path d="M363.881 136.571C364.598 132.985 366.905 129.395 369.877 127.419C372.829 125.458 375.978 125.024 379.342 125.819C380.286 126.186 381.25 126.502 382.087 127.098C380.798 127.411 379.015 126.717 377.631 126.646C374.313 126.613 371.495 127.137 369.012 129.628C367.164 131.481 365.934 134.148 365.25 136.692C365.177 136.295 365.066 135.891 365.146 135.486L365.224 135.206C365.51 134.031 366.163 132.863 366.727 131.8L366.456 131.75C365.616 133.276 364.969 134.595 364.487 136.285L363.881 136.571Z" fill="#32173D" style="fill:#32173D;fill:color(display-p3 0.1961 0.0902 0.2392);fill-opacity:1;"/>
<path d="M379.584 123.928C384.346 125.824 387.443 128.625 389.558 133.528C391.559 138.168 391.592 144.245 389.817 148.968C387.929 153.994 384.475 157.617 379.732 159.76C375.199 161.809 370.083 162.451 365.404 160.539C361.773 159.054 358.873 156.253 357.122 152.652C356.928 151.016 356.962 149.487 357.325 147.874C358.066 144.596 360.919 138.525 363.733 136.779L363.881 136.571L364.486 136.285C364.969 134.595 365.615 133.276 366.456 131.75L366.727 131.8C366.163 132.863 365.509 134.031 365.223 135.206L365.146 135.486C365.065 135.891 365.177 136.295 365.25 136.692C364.633 141.868 364.751 146.948 367.962 151.29C369.502 153.374 371.414 154.937 373.838 155.731C376.555 156.621 379.287 156.401 381.841 155.059C384.94 153.432 387.373 150.444 388.378 146.994C389.008 144.829 389.27 142.318 388.914 140.085C388.384 139.562 387.997 139.189 387.736 138.469C387.847 137.679 387.768 137.26 387.432 136.54L387.054 137.666C387.083 136.984 387.01 136.346 386.926 135.67C386.603 133.904 386.031 132.366 384.896 130.995C383.092 128.815 381.354 128.669 378.753 128.488C378.946 128.167 379.06 128.079 379.386 127.873L379.704 127.685C379.157 127.179 378.305 126.929 377.63 126.646C379.015 126.717 380.797 127.411 382.087 127.098C381.25 126.502 380.286 126.186 379.342 125.819C379.375 125.157 379.446 124.575 379.584 123.928Z" fill="white" style="fill:white;fill-opacity:1;"/>
<mask id="mask7_556_550" style="mask-type:luminance" maskUnits="userSpaceOnUse" x="377" y="126" width="14" height="15">
<path d="M377.627 126.646C379.012 126.717 380.794 127.411 382.083 127.098C384.905 128.134 387.341 131.177 388.586 133.919C389.348 135.595 389.774 137.339 390.022 139.167L388.911 140.085C388.38 139.562 387.993 139.189 387.733 138.469C387.843 137.679 387.764 137.26 387.428 136.54L387.05 137.666C387.079 136.984 387.006 136.346 386.922 135.67C386.599 133.904 386.027 132.366 384.892 130.995C383.089 128.815 381.351 128.669 378.75 128.488C378.943 128.167 379.057 128.079 379.383 127.873L379.701 127.685C379.154 127.179 378.301 126.929 377.627 126.646Z" fill="white" style="fill:white;fill-opacity:1;"/>
</mask>
<g mask="url(#mask7_556_550)">
<path d="M377.627 126.646C379.012 126.717 380.794 127.411 382.083 127.098C384.905 128.134 387.341 131.177 388.586 133.919C389.348 135.595 389.774 137.339 390.022 139.167L388.911 140.085C388.38 139.562 387.993 139.189 387.733 138.469C387.843 137.679 387.764 137.26 387.428 136.54L387.05 137.666C387.079 136.984 387.006 136.346 386.922 135.67C386.599 133.904 386.027 132.366 384.892 130.995C383.089 128.815 381.351 128.669 378.75 128.488C378.943 128.167 379.057 128.079 379.383 127.873L379.701 127.685C379.154 127.179 378.301 126.929 377.627 126.646Z" fill="url(#paint7_linear_556_550)" style=""/>
</g>
<path d="M363.879 136.571L364.485 136.285C364.968 134.595 365.614 133.276 366.455 131.75L366.726 131.8C366.162 132.863 365.508 134.031 365.222 135.206L365.144 135.486C365.064 135.891 365.176 136.295 365.249 136.692C364.632 141.868 364.75 146.948 367.96 151.29C369.501 153.374 371.412 154.937 373.837 155.731C376.554 156.621 379.286 156.401 381.84 155.059C384.939 153.432 387.372 150.444 388.377 146.994C389.007 144.829 389.269 142.318 388.913 140.085L390.024 139.167C390.27 141.004 390.379 142.938 390.143 144.781C389.562 149.322 386.99 153.802 383.455 156.527C380.928 158.477 377.971 159.274 374.856 158.803C371.571 158.307 368.392 155.827 366.483 153.09C363.203 148.387 362.897 142.32 363.732 136.779L363.879 136.571Z" fill="#211F40" style="fill:#211F40;fill:color(display-p3 0.1294 0.1216 0.2510);fill-opacity:1;"/>
<path d="M365.249 136.692C365.933 134.148 367.163 131.481 369.01 129.628C371.494 127.137 374.312 126.613 377.629 126.646C378.304 126.929 379.156 127.179 379.703 127.685L379.385 127.873C379.059 128.079 378.945 128.167 378.752 128.488C381.353 128.669 383.091 128.815 384.895 130.995C386.029 132.366 386.601 133.904 386.925 135.67C387.008 136.346 387.082 136.984 387.053 137.666L387.43 136.54C387.766 137.26 387.846 137.679 387.735 138.469C387.996 139.189 388.383 139.562 388.913 140.085C389.269 142.318 389.007 144.829 388.377 146.994C387.372 150.444 384.939 153.432 381.84 155.059C379.286 156.401 376.554 156.621 373.837 155.731C371.412 154.937 369.501 153.374 367.96 151.29C364.75 146.948 364.632 141.868 365.249 136.692Z" fill="#2B3E73" style="fill:#2B3E73;fill:color(display-p3 0.1686 0.2431 0.4510);fill-opacity:1;"/>
<path d="M370.737 143.337C371.665 143.397 372.538 143.3 373.255 144.043C373.849 144.659 373.968 145.441 373.883 146.276C373.788 147.204 373.005 147.748 372.349 148.273C371.532 148.336 371.141 148.311 370.419 147.893C369.872 147.205 369.564 146.741 369.422 145.85C369.608 144.653 369.876 144.156 370.737 143.337Z" fill="white" style="fill:white;fill-opacity:1;"/>
<path d="M378.754 128.488C381.355 128.669 383.093 128.815 384.897 130.995C386.031 132.366 386.603 133.904 386.927 135.67L386.561 138.186C386.178 139.873 384.819 141.384 383.407 142.244C382.041 143.074 380.347 143.395 378.803 142.956C376.89 142.411 375.299 140.749 374.37 138.977C373.445 137.214 373.39 135.303 374.029 133.431C374.9 130.886 376.481 129.64 378.754 128.488Z" fill="white" style="fill:white;fill-opacity:1;"/>
<defs>
<linearGradient id="paint0_linear_556_550" x1="484.532" y1="262.094" x2="483.36" y2="253.841" gradientUnits="userSpaceOnUse">
<stop stop-color="#3A6EBF" style="stop-color:#3A6EBF;stop-color:color(display-p3 0.2275 0.4314 0.7490);stop-opacity:1;"/>
<stop offset="1" stop-color="#4EA1DE" style="stop-color:#4EA1DE;stop-color:color(display-p3 0.3059 0.6314 0.8706);stop-opacity:1;"/>
</linearGradient>
<linearGradient id="paint1_linear_556_550" x1="468.119" y1="254.332" x2="464.282" y2="255.489" gradientUnits="userSpaceOnUse">
<stop stop-color="#F07416" style="stop-color:#F07416;stop-color:color(display-p3 0.9412 0.4549 0.0863);stop-opacity:1;"/>
<stop offset="1" stop-color="#E1591D" style="stop-color:#E1591D;stop-color:color(display-p3 0.8824 0.3490 0.1137);stop-opacity:1;"/>
</linearGradient>
<linearGradient id="paint2_linear_556_550" x1="465.115" y1="240.79" x2="485.491" y2="250.459" gradientUnits="userSpaceOnUse">
<stop stop-color="#3C81CB" style="stop-color:#3C81CB;stop-color:color(display-p3 0.2353 0.5059 0.7961);stop-opacity:1;"/>
<stop offset="1" stop-color="#4CA2DF" style="stop-color:#4CA2DF;stop-color:color(display-p3 0.2980 0.6353 0.8745);stop-opacity:1;"/>
</linearGradient>
<linearGradient id="paint3_linear_556_550" x1="420.123" y1="234.43" x2="412.157" y2="220.99" gradientUnits="userSpaceOnUse">
<stop stop-color="#ADB9D6" style="stop-color:#ADB9D6;stop-color:color(display-p3 0.6784 0.7255 0.8392);stop-opacity:1;"/>
<stop offset="1" stop-color="#BED4E3" style="stop-color:#BED4E3;stop-color:color(display-p3 0.7451 0.8314 0.8902);stop-opacity:1;"/>
</linearGradient>
<linearGradient id="paint4_linear_556_550" x1="320.359" y1="279.046" x2="303.917" y2="235.043" gradientUnits="userSpaceOnUse">
<stop stop-color="#F9D8B8" style="stop-color:#F9D8B8;stop-color:color(display-p3 0.9765 0.8471 0.7216);stop-opacity:1;"/>
<stop offset="1" stop-color="white" style="stop-color:white;stop-opacity:1;"/>
</linearGradient>
<linearGradient id="paint5_linear_556_550" x1="496.361" y1="311.15" x2="504.129" y2="304.582" gradientUnits="userSpaceOnUse">
<stop stop-color="#9395B2" style="stop-color:#9395B2;stop-color:color(display-p3 0.5765 0.5843 0.6980);stop-opacity:1;"/>
<stop offset="1" stop-color="#BCB8BF" style="stop-color:#BCB8BF;stop-color:color(display-p3 0.7373 0.7216 0.7490);stop-opacity:1;"/>
</linearGradient>
<linearGradient id="paint6_linear_556_550" x1="413.796" y1="145.505" x2="413.419" y2="149.994" gradientUnits="userSpaceOnUse">
<stop stop-color="#969AB1" style="stop-color:#969AB1;stop-color:color(display-p3 0.5882 0.6039 0.6941);stop-opacity:1;"/>
<stop offset="1" stop-color="#C3C2C1" style="stop-color:#C3C2C1;stop-color:color(display-p3 0.7647 0.7608 0.7569);stop-opacity:1;"/>
</linearGradient>
<linearGradient id="paint7_linear_556_550" x1="385.818" y1="130.355" x2="383.683" y2="132.892" gradientUnits="userSpaceOnUse">
<stop stop-color="#1F204A" style="stop-color:#1F204A;stop-color:color(display-p3 0.1216 0.1255 0.2902);stop-opacity:1;"/>
<stop offset="1" stop-color="#263571" style="stop-color:#263571;stop-color:color(display-p3 0.1490 0.2078 0.4431);stop-opacity:1;"/>
</linearGradient>
<clipPath id="clip0_556_550">
<rect width="525.734" height="471.484" fill="white" style="fill:white;fill-opacity:1;" transform="matrix(-0.997557 0.0698572 -0.0696559 -0.997571 557.291 470.339)"/>
</clipPath>
</defs>
</svg>
