<svg width="414" height="415" viewBox="0 0 414 415" fill="none" xmlns="http://www.w3.org/2000/svg">
<path d="M269.421 211.351C334.01 170.999 346.535 150.281 378.415 146.428C456.063 137.045 399.17 323.41 221.361 363.234C136.88 382.155 32.2315 330.548 17.2663 290.452C2.79712 251.687 41.7529 237.144 99.2728 257.936C156.793 278.728 236.513 231.909 269.421 211.351Z" stroke="#AEB8B2" style="stroke:#AEB8B2;stroke:color(display-p3 0.6824 0.7216 0.6980);stroke-opacity:1;" stroke-width="1.33333" stroke-miterlimit="10"/>
<path d="M347.809 165.336C347.809 170.379 343.407 174.467 337.975 174.467C332.544 174.467 328.141 170.379 328.141 165.336C328.141 160.293 332.544 156.204 337.975 156.204C343.407 156.204 347.809 160.293 347.809 165.336Z" fill="#D2D4D1" style="fill:#D2D4D1;fill:color(display-p3 0.8235 0.8314 0.8196);fill-opacity:1;"/>
<path d="M343.845 344.756C343.845 349.799 339.442 353.887 334.01 353.887C328.579 353.887 324.176 349.799 324.176 344.756C324.176 339.712 328.579 335.625 334.01 335.625C339.442 335.625 343.845 339.712 343.845 344.756Z" stroke="#AEB8B2" style="stroke:#AEB8B2;stroke:color(display-p3 0.6824 0.7216 0.6980);stroke-opacity:1;" stroke-width="1.33333" stroke-miterlimit="10"/>
<path d="M215.756 137.045C215.756 142.088 211.354 146.176 205.922 146.176C200.491 146.176 196.088 142.088 196.088 137.045C196.088 132.002 200.491 127.913 205.922 127.913C211.354 127.913 215.756 132.002 215.756 137.045Z" stroke="#AEB8B2" style="stroke:#AEB8B2;stroke:color(display-p3 0.6824 0.7216 0.6980);stroke-opacity:1;" stroke-width="1.33333" stroke-miterlimit="10"/>
<path d="M178.093 173.525L168.117 186.418H187.075L178.093 173.525Z" stroke="#AEB8B2" style="stroke:#AEB8B2;stroke:color(display-p3 0.6824 0.7216 0.6980);stroke-opacity:1;" stroke-width="1.33333" stroke-miterlimit="10" stroke-linecap="round" stroke-linejoin="round"/>
<path d="M131.214 337.307L124.943 348.517H143.9L131.214 337.307Z" fill="#D2D4D1" style="fill:#D2D4D1;fill:color(display-p3 0.8235 0.8314 0.8196);fill-opacity:1;"/>
<path d="M38.7498 195.45C38.7498 205.07 30.3498 212.87 19.9879 212.87C9.62614 212.87 1.22656 205.07 1.22656 195.45C1.22656 185.829 9.62614 178.03 19.9879 178.03C30.3498 178.03 38.7498 185.829 38.7498 195.45Z" stroke="#AEB8B2" stroke-opacity="0.34" style="stroke:#AEB8B2;stroke:color(display-p3 0.6824 0.7216 0.6980);stroke-opacity:0.34;" stroke-width="1.33333" stroke-miterlimit="10" stroke-linecap="round" stroke-linejoin="round"/>
<path d="M18.5683 211.741C18.3467 210.585 18.2359 209.556 18.2359 208.653C18.2359 207.181 18.4417 205.986 18.8533 205.068C19.2649 204.134 19.7874 203.374 20.4206 202.788C21.0539 202.186 21.703 201.64 22.3679 201.149C23.2544 200.5 24.0381 199.812 24.7188 199.083C25.3996 198.339 25.74 197.271 25.74 195.877C25.74 194.516 25.3363 193.487 24.5289 192.79C23.7215 192.094 22.6845 191.745 21.418 191.745C19.9298 191.745 18.695 192.141 17.7134 192.933C16.7319 193.724 16.0353 194.516 15.6237 195.308L12.2516 190.701C13.059 189.703 14.2622 188.753 15.8612 187.851C17.476 186.933 19.3757 186.474 21.5605 186.474C25.075 186.474 27.6793 187.241 29.3733 188.777C31.0672 190.313 31.9142 192.474 31.9142 195.26C31.9142 196.479 31.7242 197.5 31.3443 198.323C30.9801 199.131 30.4973 199.835 29.8957 200.437C29.2941 201.023 28.6529 201.593 27.9722 202.147C27.2439 202.732 26.5394 203.366 25.8587 204.046C25.1779 204.727 24.6159 205.566 24.1726 206.564C23.7294 207.545 23.5077 208.796 23.5077 210.316V211.741H18.5683ZM18.5208 223.377V216.3H23.8877V223.377H18.5208Z" fill="#094067" style="fill:#094067;fill:color(display-p3 0.0353 0.2510 0.4039);fill-opacity:1;"/>
<path d="M231.946 68.1032C231.946 77.7241 223.547 85.5232 213.185 85.5232C202.823 85.5232 194.424 77.7241 194.424 68.1032C194.424 58.4823 202.823 50.6833 213.185 50.6833C223.547 50.6833 231.946 58.4823 231.946 68.1032Z" fill="#094067" style="fill:#094067;fill:color(display-p3 0.0353 0.2510 0.4039);fill-opacity:1;"/>
<path d="M211.766 84.3934C211.544 83.2377 211.433 82.2086 211.433 81.3062C211.433 79.8339 211.639 78.6386 212.051 77.7204C212.462 76.7864 212.985 76.0265 213.618 75.4407C214.251 74.8391 214.9 74.2929 215.565 73.8022C216.452 73.1531 217.235 72.4644 217.916 71.7362C218.597 70.9921 218.937 69.9235 218.937 68.5303C218.937 67.1688 218.534 66.1398 217.726 65.4432C216.919 64.7466 215.882 64.3983 214.615 64.3983C213.127 64.3983 211.892 64.7941 210.911 65.5857C209.929 66.3772 209.233 67.1688 208.821 67.9604L205.449 63.3535C206.256 62.3561 207.459 61.4062 209.058 60.5038C210.673 59.5856 212.573 59.1265 214.758 59.1265C218.272 59.1265 220.877 59.8943 222.571 61.4299C224.264 62.9656 225.111 65.1266 225.111 67.9129C225.111 69.1319 224.921 70.153 224.542 70.9763C224.177 71.7837 223.695 72.4882 223.093 73.0898C222.491 73.6755 221.85 74.2454 221.169 74.7995C220.441 75.3853 219.737 76.0186 219.056 76.6993C218.375 77.3801 217.813 78.2191 217.37 79.2165C216.927 80.198 216.705 81.4487 216.705 82.9685V84.3934H211.766ZM211.718 96.0294V88.9528H217.085V96.0294H211.718Z" fill="white" style="fill:white;fill-opacity:1;"/>
<path d="M78.2167 202.738C78.2167 207.583 73.9856 211.51 68.7675 211.51C63.5494 211.51 59.3184 207.583 59.3184 202.738C59.3184 197.892 63.5494 193.964 68.7675 193.964C73.9856 193.964 78.2167 197.892 78.2167 202.738Z" fill="#D2D4D1" style="fill:#D2D4D1;fill:color(display-p3 0.8235 0.8314 0.8196);fill-opacity:1;"/>
<path d="M403.501 45.9351H318.943C314.117 45.9351 310.205 49.5686 310.205 54.0504V101.303C310.205 105.785 314.117 109.417 318.943 109.417H336.155L332.742 117.606C331.754 119.977 334.71 122.078 336.917 120.572L353.262 109.417H403.501C408.327 109.417 412.239 105.785 412.239 101.303V54.0504C412.239 49.5686 408.327 45.9351 403.501 45.9351Z" fill="#094067" style="fill:#094067;fill:color(display-p3 0.0353 0.2510 0.4039);fill-opacity:1;"/>
<path d="M320.18 59.1823H401.064" stroke="white" style="stroke:white;stroke-opacity:1;" stroke-width="1.33333" stroke-miterlimit="10" stroke-linecap="round" stroke-linejoin="round"/>
<path d="M320.18 66.004H401.064" stroke="white" style="stroke:white;stroke-opacity:1;" stroke-width="1.33333" stroke-miterlimit="10" stroke-linecap="round" stroke-linejoin="round"/>
<path d="M320.18 72.8248H401.064" stroke="white" style="stroke:white;stroke-opacity:1;" stroke-width="1.33333" stroke-miterlimit="10" stroke-linecap="round" stroke-linejoin="round"/>
<path d="M320.18 79.6465H401.064" stroke="white" style="stroke:white;stroke-opacity:1;" stroke-width="1.33333" stroke-miterlimit="10" stroke-linecap="round" stroke-linejoin="round"/>
<path d="M320.18 86.4684H401.064" stroke="white" style="stroke:white;stroke-opacity:1;" stroke-width="1.33333" stroke-miterlimit="10" stroke-linecap="round" stroke-linejoin="round"/>
<path d="M320.18 93.2902H401.064" stroke="white" style="stroke:white;stroke-opacity:1;" stroke-width="1.33333" stroke-miterlimit="10" stroke-linecap="round" stroke-linejoin="round"/>
<path d="M139.114 196.147C139.114 196.147 138.254 189.436 137.135 186.24C136.017 183.044 131.283 176.972 131.283 176.972C131.283 176.972 129.39 180.727 132.144 183.844C132.144 183.844 131.971 188.797 132.23 190.555C132.23 190.555 123.285 183.46 121.564 182.74C120.472 181.932 119.141 180.946 117.515 179.744C111.578 175.349 107.62 176.708 108.137 177.027C108.491 177.247 115.282 182.345 119.484 185.505L118.935 186.236C117.658 185.29 115.624 183.783 112.611 181.553C106.673 177.158 102.715 178.516 103.231 178.836C103.663 179.104 113.603 186.578 116.844 189.017L115.887 190.289C114.631 189.357 112.54 187.807 109.341 185.441C103.403 181.046 99.4452 182.404 99.9616 182.724C100.404 182.998 110.818 190.831 113.795 193.072L112.781 194.421C111.675 193.488 108.605 190.957 105.64 189.036C101.941 186.64 99.2734 187.758 99.2734 187.758C99.2734 187.758 99.2734 187.758 100.908 189.116C102.543 190.475 111.062 196.706 111.062 196.706C111.062 196.706 124.068 207.493 127.332 208.531L130.514 211.351L142.225 199.581L139.114 196.147Z" fill="#F57D60" style="fill:#F57D60;fill:color(display-p3 0.9608 0.4902 0.3765);fill-opacity:1;"/>
<path d="M232.742 270.648C225.759 279.997 215.993 285.771 203.007 283.317C168.234 276.755 127.176 214.081 127.176 214.081L129.242 212.005L144.568 196.61L197.902 241.612L214.558 219.226L230.826 197.365L238.866 186.561C238.866 186.561 243.574 193.474 246.537 215.448C248.387 229.222 244.481 254.965 232.742 270.648Z" fill="#DC9C6A" style="fill:#DC9C6A;fill:color(display-p3 0.8627 0.6118 0.4157);fill-opacity:1;"/>
<path d="M232.742 270.648C225.759 279.997 215.993 285.771 203.007 283.317C168.234 276.755 127.176 214.081 127.176 214.081L129.242 212.005L130.517 211.348C130.517 211.348 179.445 273.847 200.063 264.55C212.812 258.802 214.86 235.891 214.558 219.226L230.826 197.365L232.742 270.648Z" fill="#C8885A" style="fill:#C8885A;fill:color(display-p3 0.7843 0.5333 0.3529);fill-opacity:1;"/>
<path d="M363.351 264.551L360.183 316.353H347.896L352.725 264.551H363.351Z" fill="#094067" style="fill:#094067;fill:color(display-p3 0.0353 0.2510 0.4039);fill-opacity:1;"/>
<path d="M288.149 264.551L284.979 316.353H272.693L277.523 264.551H288.149Z" fill="#094067" style="fill:#094067;fill:color(display-p3 0.0353 0.2510 0.4039);fill-opacity:1;"/>
<path d="M364.61 273.518H267.266C257.591 273.518 249.748 266.235 249.748 257.252V206.694C249.748 197.71 257.591 190.428 267.266 190.428H364.61C374.284 190.428 382.128 197.71 382.128 206.694V257.252C382.128 266.235 374.284 273.518 364.61 273.518Z" fill="#094067" style="fill:#094067;fill:color(display-p3 0.0353 0.2510 0.4039);fill-opacity:1;"/>
<path d="M356.4 273.518H259.057C249.382 273.518 241.537 266.235 241.537 257.252V206.694C241.537 197.71 249.382 190.428 259.057 190.428H356.4C366.074 190.428 373.919 197.71 373.919 206.694V257.252C373.919 266.235 366.074 273.518 356.4 273.518Z" fill="#094067" style="fill:#094067;fill:color(display-p3 0.0353 0.2510 0.4039);fill-opacity:1;"/>
<path d="M283.026 167.102C283.026 167.102 302.224 164.24 328.053 189.049L334.01 316.353H226.066C226.066 316.353 214.279 230.469 228.018 199.927C241.758 169.383 266.434 165.736 283.026 167.102Z" fill="#FBC17E" style="fill:#FBC17E;fill:color(display-p3 0.9843 0.7569 0.4941);fill-opacity:1;"/>
<path d="M245.367 98.0595L250.106 92.0343L290.513 104.595L290.161 118.687H292.83C298.249 118.687 302.642 122.766 302.642 127.797C302.642 132.829 298.249 136.908 292.83 136.908H289.707L289.232 156.035V172.843L259.979 176.578L259.262 165.336L258.882 159.43L254.637 157.549C242.487 152.165 234.748 140.777 234.748 128.276C234.748 117.409 238.468 106.829 245.367 98.0595Z" fill="#F57D60" style="fill:#F57D60;fill:color(display-p3 0.9608 0.4902 0.3765);fill-opacity:1;"/>
<path d="M258.883 159.431L259.262 165.336C260.338 165.217 261.464 165.063 262.632 164.865C280.7 161.806 287.773 146.643 287.04 138.832C287.04 138.832 280.948 157.62 258.883 159.431Z" fill="#F1694C" style="fill:#F1694C;fill:color(display-p3 0.9451 0.4118 0.2980);fill-opacity:1;"/>
<path d="M293.13 125.187C292.374 125.719 291.676 126.424 291.426 127.302C291.426 127.302 292.935 127.77 293.072 129.34C293.209 130.91 291.426 131.589 291.426 131.589C291.426 131.589 292.797 133.711 295.083 132.565C297.369 131.42 296.99 127.419 294.717 126.581C294.717 126.581 298.329 126.199 299.655 127.43C299.655 127.43 299.957 126.196 298.448 125.103C296.892 123.978 294.702 124.083 293.13 125.187Z" fill="#F1694C" style="fill:#F1694C;fill:color(display-p3 0.9451 0.4118 0.2980);fill-opacity:1;"/>
<path d="M245.368 98.0594C245.368 98.0594 250.838 106.803 257.909 109.632C264.978 112.462 272.536 108.343 279.605 112.1C286.675 115.857 282.164 122.899 283.749 126.281C285.334 129.665 287.091 130.118 287.091 130.118C287.091 130.118 288.042 120.498 290.162 118.687C290.162 118.687 296.511 118.636 298.486 120.355C298.486 120.355 302.033 113.707 302.643 108.501C303.252 103.294 297.035 101.597 297.035 101.597C297.035 101.597 295.573 89.1475 279.117 84.5071C262.662 79.8668 250.107 87.2233 243.525 84.5071C236.942 81.791 230.971 85.8661 230.605 92.0342C230.239 98.2013 234.749 100.465 234.749 100.465C234.749 100.465 231.701 102.851 232.921 106.524C234.139 110.198 237.965 111.046 237.965 111.046C237.965 111.046 242.468 101.732 245.368 98.0594Z" fill="#361F16" style="fill:#361F16;fill:color(display-p3 0.2118 0.1216 0.0863);fill-opacity:1;"/>
<path d="M248.645 142.806L265.4 142.043C265.4 142.043 261.519 147.646 256.001 147.591C250.915 147.541 248.645 142.806 248.645 142.806Z" fill="white" style="fill:white;fill-opacity:1;"/>
<path d="M267.902 117.469C267.691 117.469 267.479 117.404 267.303 117.27C263.767 114.564 260.29 116.862 260.254 116.886C259.833 117.173 259.242 117.086 258.936 116.696C258.628 116.306 258.72 115.757 259.141 115.471C260.75 114.38 264.779 113.068 268.503 115.916C268.906 116.224 268.962 116.777 268.631 117.15C268.445 117.36 268.174 117.469 267.902 117.469Z" fill="#361F16" style="fill:#361F16;fill:color(display-p3 0.2118 0.1216 0.0863);fill-opacity:1;"/>
<path d="M247.066 117.469C246.855 117.469 246.643 117.404 246.467 117.27C242.931 114.564 239.453 116.862 239.418 116.886C238.997 117.173 238.406 117.086 238.099 116.696C237.793 116.306 237.884 115.757 238.305 115.471C239.915 114.38 243.942 113.068 247.667 115.916C248.069 116.224 248.126 116.777 247.795 117.15C247.609 117.36 247.339 117.469 247.066 117.469Z" fill="#361F16" style="fill:#361F16;fill:color(display-p3 0.2118 0.1216 0.0863);fill-opacity:1;"/>
<path d="M294.597 168.431L289.294 162.028L268.234 168.919L264.825 174.413L262.518 169.477L259.319 166.234L256 172.177C256 172.177 256.099 178.137 264.223 179.72C272.346 181.303 290.098 175.157 294.597 168.431Z" fill="#FBC17E" style="fill:#FBC17E;fill:color(display-p3 0.9843 0.7569 0.4941);fill-opacity:1;"/>
<path d="M298.485 120.355C298.485 120.355 295.212 119.193 292.103 121.848C288.994 124.501 290.047 127.108 290.047 127.108C290.047 127.108 291.483 123.965 294.56 124.308C297.637 124.65 299.875 132.369 295.764 133.813C291.652 135.256 286.404 133.057 286.587 127.108C286.77 121.161 289.12 117.796 292.993 117.285C296.867 116.772 298.399 119.793 298.485 120.355Z" fill="#094067" style="fill:#094067;fill:color(display-p3 0.0353 0.2510 0.4039);fill-opacity:1;"/>
<path d="M269.411 150.253C269.014 150.253 268.659 149.992 268.582 149.617C268.494 149.191 268.792 148.78 269.252 148.698C285.18 145.853 290.576 131.926 290.629 131.787C290.782 131.377 291.26 131.16 291.704 131.302C292.145 131.444 292.379 131.891 292.226 132.3C292.169 132.449 286.478 147.22 269.571 150.239C269.517 150.248 269.463 150.253 269.411 150.253Z" fill="#094067" style="fill:#094067;fill:color(display-p3 0.0353 0.2510 0.4039);fill-opacity:1;"/>
<path d="M265.857 149.738C265.857 151.565 267.454 153.047 269.422 153.047C271.391 153.047 272.987 151.565 272.987 149.738C272.987 147.909 271.391 146.428 269.422 146.428C267.454 146.428 265.857 147.909 265.857 149.738Z" fill="#094067" style="fill:#094067;fill:color(display-p3 0.0353 0.2510 0.4039);fill-opacity:1;"/>
<path d="M294.158 125.734C294.158 125.734 293.708 129.39 294.573 131.346C295.438 133.301 296.792 132.288 297.055 129.913C297.318 127.539 294.761 124.208 294.158 125.734Z" fill="#094067" style="fill:#094067;fill:color(display-p3 0.0353 0.2510 0.4039);fill-opacity:1;"/>
<path d="M260.268 124.507C260.268 124.507 260.274 127.919 265.085 128.485C269.895 129.051 270.771 124.507 270.771 124.507C270.771 124.507 268.04 122.129 264.507 122.058C260.975 121.989 260.268 124.507 260.268 124.507Z" fill="white" style="fill:white;fill-opacity:1;"/>
<path d="M238.291 124.507C238.291 124.507 238.298 127.919 243.005 128.485C247.711 129.051 248.342 124.51 248.342 124.51C248.342 124.51 245.895 122.129 242.439 122.058C238.984 121.989 238.291 124.507 238.291 124.507Z" fill="white" style="fill:white;fill-opacity:1;"/>
<path d="M248.342 124.51C248.342 124.51 245.821 121.939 243.122 121.477C240.424 121.015 238.572 122.236 238.291 124.51C238.291 124.51 238.826 122.63 241.525 122.4C244.222 122.169 248.342 124.51 248.342 124.51Z" fill="#361F16" style="fill:#361F16;fill:color(display-p3 0.2118 0.1216 0.0863);fill-opacity:1;"/>
<path d="M270.771 124.507C270.771 124.507 268.136 121.819 265.317 121.337C262.497 120.855 260.561 122.13 260.268 124.507C260.268 124.507 260.827 122.543 263.647 122.301C266.467 122.061 270.771 124.507 270.771 124.507Z" fill="#361F16" style="fill:#361F16;fill:color(display-p3 0.2118 0.1216 0.0863);fill-opacity:1;"/>
<path d="M252.963 124.604L250.744 137.039C250.744 137.039 248.978 137.165 246.533 136.241C246.533 136.241 252.328 126.001 252.963 124.604Z" fill="#F1694C" style="fill:#F1694C;fill:color(display-p3 0.9451 0.4118 0.2980);fill-opacity:1;"/>
<path d="M186.946 316.353C186.946 316.353 186.585 306.424 198.629 303.314C210.672 300.202 225.343 309.299 227.697 316.353H186.946Z" fill="#094067" style="fill:#094067;fill:color(display-p3 0.0353 0.2510 0.4039);fill-opacity:1;"/>
<path d="M267.903 125.38C267.903 127.338 266.553 128.925 264.887 128.925C263.22 128.925 261.869 127.338 261.869 125.38C261.869 123.422 263.22 121.836 264.887 121.836C266.553 121.836 267.903 123.422 267.903 125.38Z" fill="#361F16" style="fill:#361F16;fill:color(display-p3 0.2118 0.1216 0.0863);fill-opacity:1;"/>
<path d="M246.743 125.491C246.743 127.388 245.425 128.925 243.801 128.925C242.175 128.925 240.857 127.388 240.857 125.491C240.857 123.594 242.175 122.057 243.801 122.057C245.425 122.057 246.743 123.594 246.743 125.491Z" fill="#361F16" style="fill:#361F16;fill:color(display-p3 0.2118 0.1216 0.0863);fill-opacity:1;"/>
<path d="M278.228 134.246C278.228 135.792 276.257 137.045 273.825 137.045C271.394 137.045 269.422 135.792 269.422 134.246C269.422 132.7 271.394 131.447 273.825 131.447C276.257 131.447 278.228 132.7 278.228 134.246Z" fill="#F1694C" style="fill:#F1694C;fill:color(display-p3 0.9451 0.4118 0.2980);fill-opacity:1;"/>
<path d="M242.275 132.905C242.275 134.45 240.304 135.703 237.874 135.703C235.442 135.703 233.471 134.45 233.471 132.905C233.471 131.359 235.442 130.106 237.874 130.106C240.304 130.106 242.275 131.359 242.275 132.905Z" fill="#F1694C" style="fill:#F1694C;fill:color(display-p3 0.9451 0.4118 0.2980);fill-opacity:1;"/>
<path d="M357.718 284.746C354.67 293.262 349.094 299.703 342.487 304.259C337.986 307.352 333.012 309.568 328.05 310.961C307.327 316.797 230.58 316.35 230.58 316.35L233.468 294.822L319.406 276.887C319.406 276.887 308.29 244.143 308.781 217.692C309.224 193.071 317.132 182.925 326.04 187.718C326.71 188.086 327.379 188.524 328.05 189.049C328.05 189.049 341.619 207.826 355.624 246.387C361.351 262.158 361.247 274.845 357.718 284.746Z" fill="#F1AE72" style="fill:#F1AE72;fill:color(display-p3 0.9451 0.6824 0.4471);fill-opacity:1;"/>
<path d="M224.737 297.681L206.505 294.597C206.505 294.597 203.155 294.063 199.804 295.408C196.453 296.753 192.65 303.313 192.65 303.313C192.65 303.313 195.729 303.356 197.813 301.61C199.895 299.865 200.167 298.352 200.167 298.352L206.857 298.836L206.977 300.277C204.743 300.731 198.381 302.078 195.276 303.313C191.473 304.826 189.48 309.451 189.48 309.451C189.48 309.451 194.461 308.778 196.997 305.92L207.353 304.828L207.428 305.726C205.294 305.861 201.481 306.305 197.903 307.769C192.56 309.955 190.929 312.898 190.929 312.898C190.929 312.898 196.272 312.898 200.031 310.207L202.561 310.012C200.061 311.501 197.903 315.084 197.903 315.084C197.903 315.084 198.989 315.337 201.435 314.327C203.88 313.319 204.513 312.168 204.513 312.168L211.639 312.663C215.338 313.154 220.935 313.636 224.134 312.646L230.948 313.618L233.086 297.681H224.737Z" fill="#F57D60" style="fill:#F57D60;fill:color(display-p3 0.9608 0.4902 0.3765);fill-opacity:1;"/>
<path d="M376.518 326.772H33.6884C30.5901 326.772 28.0781 324.44 28.0781 321.563C28.0781 318.686 30.5901 316.353 33.6884 316.353H376.518C379.617 316.353 382.128 318.686 382.128 321.563C382.128 324.44 379.617 326.772 376.518 326.772Z" fill="#094067" style="fill:#094067;fill:color(display-p3 0.0353 0.2510 0.4039);fill-opacity:1;"/>
<path d="M245.099 326.772H31.4446C29.5855 326.772 28.0781 324.44 28.0781 321.563C28.0781 318.686 29.5855 316.353 31.4446 316.353H138.272H245.099C246.958 316.353 248.467 318.686 248.467 321.563C248.467 324.44 246.958 326.772 245.099 326.772Z" fill="#094067" style="fill:#094067;fill:color(display-p3 0.0353 0.2510 0.4039);fill-opacity:1;"/>
<path d="M180.491 296.278H62.4251C58.4433 296.278 54.9965 293.706 54.1405 290.095L38.8797 225.741C38.131 222.584 40.719 219.595 44.1999 219.595H163.596C167.125 219.595 170.179 221.874 170.938 225.073L186.247 289.628C187.056 293.044 184.256 296.278 180.491 296.278Z" fill="#094067" style="fill:#094067;fill:color(display-p3 0.0353 0.2510 0.4039);fill-opacity:1;"/>
<path d="M81.786 285.378C80.7999 289.988 75.0039 292.806 68.8395 291.671C62.6761 290.534 58.4778 285.875 59.4639 281.263C60.4499 276.652 66.2459 273.834 72.4103 274.97C78.5747 276.107 82.772 280.766 81.786 285.378Z" fill="#094067" style="fill:#094067;fill:color(display-p3 0.0353 0.2510 0.4039);fill-opacity:1;"/>
<path d="M186.248 289.628L170.939 225.073C170.18 221.874 167.126 219.595 163.597 219.595H156.715C160.244 219.595 163.297 221.874 164.056 225.073L179.365 289.628C180.175 293.044 177.375 296.278 173.609 296.278H180.492C184.257 296.278 187.057 293.044 186.248 289.628Z" fill="#094067" style="fill:#094067;fill:color(display-p3 0.0353 0.2510 0.4039);fill-opacity:1;"/>
<path d="M165.814 313.768C165.814 315.196 164.572 316.349 163.034 316.349H65.024C63.4521 316.349 62.0242 315.754 60.9925 314.797C59.9529 313.839 59.3184 312.52 59.3184 311.053C59.3184 310.009 59.657 308.989 60.2825 308.118L84.5399 274.372C85.233 273.424 86.3819 272.85 87.6162 272.85H130.028C131.549 272.85 132.505 274.381 131.736 275.605L111.257 308.455C110.495 309.671 111.443 311.186 112.947 311.186H163.034C163.802 311.186 164.495 311.477 165.003 311.948C165.501 312.411 165.814 313.054 165.814 313.768Z" fill="#094067" style="fill:#094067;fill:color(display-p3 0.0353 0.2510 0.4039);fill-opacity:1;"/>
<path d="M136.716 257.488H76.5864C75.8863 257.488 75.3184 256.961 75.3184 256.311C75.3184 255.661 75.8863 255.133 76.5864 255.133H136.716C137.416 255.133 137.984 255.661 137.984 256.311C137.984 256.961 137.416 257.488 136.716 257.488Z" fill="#094067" style="fill:#094067;fill:color(display-p3 0.0353 0.2510 0.4039);fill-opacity:1;"/>
<path d="M139.616 264.551H79.4868C78.7857 264.551 78.2188 264.023 78.2188 263.373C78.2188 262.723 78.7857 262.197 79.4868 262.197H139.616C140.316 262.197 140.884 262.723 140.884 263.373C140.884 264.023 140.316 264.551 139.616 264.551Z" fill="#094067" style="fill:#094067;fill:color(display-p3 0.0353 0.2510 0.4039);fill-opacity:1;"/>
<path d="M40.1247 223.406H167.456C168.492 223.406 169.487 223.584 170.405 223.901C169.259 221.332 166.541 219.595 163.46 219.595H44.0643C41.4144 219.595 39.286 221.329 38.75 223.549C39.1887 223.457 39.6483 223.406 40.1247 223.406Z" fill="#094067" style="fill:#094067;fill:color(display-p3 0.0353 0.2510 0.4039);fill-opacity:1;"/>
<path d="M170.936 285.378C169.95 289.988 164.154 292.806 157.99 291.671C151.826 290.534 147.628 285.875 148.614 281.263C149.599 276.652 155.396 273.834 161.56 274.97C167.724 276.107 171.921 280.766 170.936 285.378Z" fill="#094067" style="fill:#094067;fill:color(display-p3 0.0353 0.2510 0.4039);fill-opacity:1;"/>
<path d="M165.807 313.957C165.702 315.331 164.368 316.349 162.885 316.349H107.106C104.854 316.349 103.029 314.655 103.029 312.564C103.029 311.848 103.248 311.148 103.659 310.543L129.285 272.85H130.028C131.55 272.85 132.505 274.381 131.736 275.605L111.257 308.455C110.495 309.671 111.443 311.186 112.947 311.186H163.034C163.802 311.186 164.495 311.477 165.003 311.948C165.545 312.451 165.867 313.168 165.807 313.957Z" fill="#094067" style="fill:#094067;fill:color(display-p3 0.0353 0.2510 0.4039);fill-opacity:1;"/>
<path d="M328.05 310.961C307.327 316.797 230.58 316.35 230.58 316.35L329.74 291.851C340.109 289.289 346.712 279.868 345.027 270.03C340.668 244.594 332.233 198.957 326.04 187.718C326.71 188.086 327.379 188.524 328.05 189.049C328.05 189.049 341.619 207.826 355.624 246.387C369.626 284.956 348.781 305.135 328.05 310.961Z" fill="#DC9C6A" style="fill:#DC9C6A;fill:color(display-p3 0.8627 0.6118 0.4157);fill-opacity:1;"/>
<path d="M322.201 277.789C322.201 277.789 336.38 277.604 347.894 287.366" stroke="#FBC17E" style="stroke:#FBC17E;stroke:color(display-p3 0.9843 0.7569 0.4941);stroke-opacity:1;" stroke-width="1.33333" stroke-miterlimit="10" stroke-linecap="round" stroke-linejoin="round"/>
<path d="M292.535 170.729C292.535 170.729 311.192 176.62 320.379 186.719" stroke="#F1AE72" style="stroke:#F1AE72;stroke:color(display-p3 0.9451 0.6824 0.4471);stroke-opacity:1;" stroke-width="1.33333" stroke-miterlimit="10" stroke-linecap="round" stroke-linejoin="round"/>
<path d="M199.662 244.556C199.662 244.556 209.964 256.949 211.284 271.217" stroke="#FBC17E" style="stroke:#FBC17E;stroke:color(display-p3 0.9843 0.7569 0.4941);stroke-opacity:1;" stroke-width="1.33333" stroke-miterlimit="10" stroke-linecap="round" stroke-linejoin="round"/>
<path d="M252.956 172.268C252.956 172.268 249.038 182.473 265.4 183.725C281.76 184.976 299.693 170.073 299.693 170.073" stroke="#F1AE72" style="stroke:#F1AE72;stroke:color(display-p3 0.9451 0.6824 0.4471);stroke-opacity:1;" stroke-width="1.33333" stroke-miterlimit="10" stroke-linecap="round" stroke-linejoin="round"/>
<path d="M230.579 297.681L226.748 313.019L230.948 313.618L233.086 297.681H230.579Z" fill="#F1694C" style="fill:#F1694C;fill:color(display-p3 0.9451 0.4118 0.2980);fill-opacity:1;"/>
<path d="M264.223 179.72C264.223 179.72 259.372 192.555 256 225.746" stroke="#F1AE72" style="stroke:#F1AE72;stroke:color(display-p3 0.9451 0.6824 0.4471);stroke-opacity:1;" stroke-width="1.33333" stroke-miterlimit="10" stroke-linecap="round" stroke-linejoin="round"/>
<path d="M295.554 101.738C295.554 101.738 287.912 100.059 280.998 102.529" stroke="#4B2E23" style="stroke:#4B2E23;stroke:color(display-p3 0.2941 0.1804 0.1373);stroke-opacity:1;" stroke-width="1.33333" stroke-miterlimit="10" stroke-linecap="round" stroke-linejoin="round"/>
<path d="M245.367 98.0596C245.367 98.0596 244.595 108.449 258.753 109.935" stroke="#4B2E23" style="stroke:#4B2E23;stroke:color(display-p3 0.2941 0.1804 0.1373);stroke-opacity:1;" stroke-width="1.33333" stroke-miterlimit="10" stroke-linecap="round" stroke-linejoin="round"/>
<path d="M296.812 94.8897C296.812 94.8897 298.461 99.0193 297.034 101.597" stroke="#4B2E23" style="stroke:#4B2E23;stroke:color(display-p3 0.2941 0.1804 0.1373);stroke-opacity:1;" stroke-width="1.33333" stroke-miterlimit="10" stroke-linecap="round" stroke-linejoin="round"/>
<path d="M232.695 90.6743C232.695 90.6743 232.056 97.0562 239.079 99.5649" stroke="#4B2E23" style="stroke:#4B2E23;stroke:color(display-p3 0.2941 0.1804 0.1373);stroke-opacity:1;" stroke-width="1.33333" stroke-miterlimit="10" stroke-linecap="round" stroke-linejoin="round"/>
<path d="M235.249 102.529C235.249 102.529 233.946 107.305 238.8 109.362" stroke="#4B2E23" style="stroke:#4B2E23;stroke:color(display-p3 0.2941 0.1804 0.1373);stroke-opacity:1;" stroke-width="1.33333" stroke-miterlimit="10" stroke-linecap="round" stroke-linejoin="round"/>
<path d="M257.91 86.2296C257.91 86.2296 266.965 82.5426 279.826 87.9085C291.426 92.7489 292.533 98.775 292.533 98.775" stroke="#4B2E23" style="stroke:#4B2E23;stroke:color(display-p3 0.2941 0.1804 0.1373);stroke-opacity:1;" stroke-width="1.33333" stroke-miterlimit="10" stroke-linecap="round" stroke-linejoin="round"/>
<path d="M296.812 104.307C296.812 104.307 299.367 105.426 299.367 108.785C299.367 112.144 297.616 115.568 297.616 115.568" stroke="#4B2E23" style="stroke:#4B2E23;stroke:color(display-p3 0.2941 0.1804 0.1373);stroke-opacity:1;" stroke-width="1.33333" stroke-miterlimit="10" stroke-linecap="round" stroke-linejoin="round"/>
<path d="M254.293 103.121C254.293 103.121 256.099 107.567 266.634 108.061C277.167 108.554 280.572 108.554 283.444 111.716C286.316 114.876 285.359 118.334 285.359 118.334" stroke="#4B2E23" style="stroke:#4B2E23;stroke:color(display-p3 0.2941 0.1804 0.1373);stroke-opacity:1;" stroke-width="1.33333" stroke-miterlimit="10" stroke-linecap="round" stroke-linejoin="round"/>
<path d="M250.349 4.27473e-06H154.484C148.933 4.27473e-06 144.432 4.17938 144.432 9.33419V24.5737C144.432 29.7285 148.933 33.9069 154.484 33.9069H167.181L164.227 43.3803C163.677 45.1441 165.77 46.6017 167.44 45.618L187.318 33.9069H250.349C255.901 33.9069 260.402 29.7285 260.402 24.5737V9.33419C260.402 4.17938 255.901 4.27473e-06 250.349 4.27473e-06Z" fill="#EF4565" style="fill:#EF4565;fill:color(display-p3 0.9373 0.2706 0.3961);fill-opacity:1;"/>
<path d="M157.469 9.12305H247.924" stroke="white" style="stroke:white;stroke-opacity:1;" stroke-width="1.33333" stroke-miterlimit="10" stroke-linecap="round" stroke-linejoin="round"/>
<path d="M157.469 16.249H247.924" stroke="white" style="stroke:white;stroke-opacity:1;" stroke-width="1.33333" stroke-miterlimit="10" stroke-linecap="round" stroke-linejoin="round"/>
<path d="M157.469 23.3751H247.924" stroke="white" style="stroke:white;stroke-opacity:1;" stroke-width="1.33333" stroke-miterlimit="10" stroke-linecap="round" stroke-linejoin="round"/>
<path d="M123.57 157.805C114.465 161.362 104.462 163.325 93.9679 163.325C93.2698 163.325 92.5807 163.316 91.8925 163.298C91.4676 163.29 91.0436 163.272 90.6186 163.246C90.3167 163.246 90.0238 163.237 89.7219 163.211C89.2691 163.193 88.8163 163.167 88.3725 163.132C88.1838 163.123 87.9951 163.115 87.8065 163.088C87.2683 163.062 86.74 163.009 86.2117 162.965C85.5981 162.905 84.9944 162.843 84.3906 162.773L103.292 137.39L123.57 157.805Z" fill="#094067" style="fill:#094067;fill:color(display-p3 0.0353 0.2510 0.4039);fill-opacity:1;"/>
<path d="M126.502 96.9024C126.502 96.9024 140.819 121.199 146.279 141.572L131.517 149.554C131.517 149.554 125.65 138.664 123.63 121.954C121.609 105.245 126.502 96.9024 126.502 96.9024Z" fill="#EF4565" style="fill:#EF4565;fill:color(display-p3 0.9373 0.2706 0.3961);fill-opacity:1;"/>
<path d="M63.0433 93.9106C63.0433 93.9106 55.7289 96.6074 53.08 114.381C50.4309 132.155 53.2589 141.572 53.2589 141.572L67.8205 125.521C67.8205 125.521 72.8053 100.915 63.0433 93.9106Z" fill="#EF4565" style="fill:#EF4565;fill:color(display-p3 0.9373 0.2706 0.3961);fill-opacity:1;"/>
<path d="M92.1092 69.6522L86.8256 79.8687C86.6369 80.2366 86.1365 80.3417 85.787 80.0965L85.5695 79.9388L90.9107 69.2751L74.0391 56.5444L74.1801 56.3074C74.3787 55.958 74.8781 55.8695 75.2088 56.124L91.9305 68.8897C92.1668 69.0741 92.2413 69.3895 92.1092 69.6522Z" fill="#D2D4D1" style="fill:#D2D4D1;fill:color(display-p3 0.8235 0.8314 0.8196);fill-opacity:1;"/>
<path d="M74.0395 58.5875L73.3066 59.9253L76.9469 62.647L77.781 61.3562L74.0395 58.5875Z" fill="#D2D4D1" style="fill:#D2D4D1;fill:color(display-p3 0.8235 0.8314 0.8196);fill-opacity:1;"/>
</svg>
