<svg width="60" height="60" viewBox="0 0 60 60" fill="none" xmlns="http://www.w3.org/2000/svg">
<g clip-path="url(#clip0_743_3)">
<path d="M30 59.9766C46.5621 59.9766 59.9883 46.5504 59.9883 29.9883C59.9883 13.4262 46.5621 0 30 0C13.4379 0 0.0117188 13.4262 0.0117188 29.9883C0.0117188 46.5504 13.4379 59.9766 30 59.9766Z" fill="#094067" style="fill:#094067;fill:color(display-p3 0.0353 0.2510 0.4039);fill-opacity:1;"/>
<path d="M19.1055 35.6579C20.722 32.7763 23.2991 29.426 20.6986 24.3421C15.5209 5.73994 34.5213 3.11597 37.1922 10.4022C41.5264 12.1359 41.4327 21.6244 39.1836 26.6146C39.0898 28.6529 37.4733 30.3631 41.1281 35.6345C31.4522 37.2511 25.8294 36.7122 19.1055 35.6579Z" fill="#596366" style="fill:#596366;fill:color(display-p3 0.3490 0.3882 0.4000);fill-opacity:1;"/>
<path d="M27.0712 30.3163C26.9072 33.4791 25.7826 34.4631 24.2129 35.2831C23.4163 35.9859 17.7935 36.4076 15.7318 38.9848C13.9513 41.2105 12.5221 48.6841 11.7256 53.7915C13.389 55.0566 15.1696 56.1577 17.0672 57.0715L17.9341 47.747C17.9341 47.747 18.5667 52.3624 19.1524 52.9949C19.4804 53.3698 19.5741 55.4549 19.5975 57.4932L22.0809 58.9223C24.6112 59.6251 27.2586 59.9766 30.0231 59.9766C32.6237 59.9766 35.1305 59.6486 37.5202 59.0394L40.191 57.4932C40.2145 55.4783 40.1676 53.5103 40.6362 52.9949C41.1047 52.4795 41.8544 47.747 41.8544 47.747L42.5807 57.2354C44.5253 56.3452 46.3527 55.244 48.0395 53.9789C47.4538 49.059 46.423 41.7259 44.9704 39.2659C43.1899 36.2671 37.3328 35.9625 36.6065 35.3534C35.0836 34.5099 33.9825 33.4557 33.8185 30.2928C33.8185 30.2928 31.546 32.05 30.1403 31.7923C28.7346 31.5111 27.118 30.2928 27.118 30.2928L27.0712 30.3163Z" fill="#FFD190" style="fill:#FFD190;fill:color(display-p3 1.0000 0.8196 0.5647);fill-opacity:1;"/>
<path d="M26.1106 33.7837C25.6186 34.4631 24.986 34.9083 24.2363 35.2831C23.4398 35.986 17.817 36.4077 15.7553 38.9848C13.9747 41.2105 12.569 48.7076 11.7725 53.8149C13.5062 55.1503 15.4039 56.2983 17.3953 57.2355L17.9341 47.7704C17.9341 47.7704 18.7073 52.5498 19.1524 53.0184C19.4804 53.3698 19.5272 55.9235 19.5507 58.1257C22.8072 59.344 26.3215 60 29.9997 60C33.5843 60 37.0282 59.3675 40.2145 58.2195C40.2379 56.0172 40.2848 53.3698 40.6128 53.0184C41.0579 52.5498 41.831 47.7704 41.831 47.7704L42.4636 57.3058C44.5487 56.3452 46.4933 55.1738 48.2973 53.7915C47.6178 48.9184 46.3761 41.7493 44.947 39.3128C43.1664 36.314 37.3094 36.0094 36.5831 35.4002C35.9271 35.0254 35.3648 34.6271 34.8962 34.0414L30.6791 42.1008L26.0872 33.7837H26.1106Z" fill="#E4E7ED" style="fill:#E4E7ED;fill:color(display-p3 0.8941 0.9059 0.9294);fill-opacity:1;"/>
<path d="M27.001 31.3003C27.821 31.7923 29.2032 33.3385 30.5152 33.362C31.8038 33.3854 33.6312 31.4643 33.8889 31.3237C33.8655 31.1363 33.8421 30.9488 33.8421 30.7614L33.8186 30.7848C33.7483 30.8317 31.5226 32.5888 30.1404 32.3077C28.7581 32.05 27.2118 30.8551 27.1181 30.7848L27.0947 30.7614C27.0713 30.9488 27.0713 31.1363 27.0478 31.3003H27.001Z" fill="#F0B97D" style="fill:#F0B97D;fill:color(display-p3 0.9412 0.7255 0.4902);fill-opacity:1;"/>
<path d="M23.4169 25.2558C24.8226 28.2546 25.338 29.426 27.0717 30.7849C27.0717 30.7849 28.6883 32.0266 30.094 32.3077C31.4997 32.5888 33.7722 30.7849 33.7722 30.7849C35.5059 29.426 36.0448 28.2546 37.427 25.2558C37.7785 25.4432 38.1299 25.6775 38.411 25.3729C38.6922 25.0449 40.0276 20.8981 39.7699 20.3358C39.5356 19.7735 39.0436 20.1718 38.9499 20.3827C38.8796 20.4764 38.8093 20.8981 38.7156 20.8981C38.6219 20.8981 38.5984 20.7107 38.4579 20.3124C38.0596 19.1644 37.2162 17.993 36.9116 14.1742C30.5625 20.4764 24.6117 17.5947 22.55 18.0164C22.0112 18.1336 21.9643 19.4455 22.0112 20.2187C22.0112 20.3124 22.1517 20.6638 22.1049 20.6872C22.0346 20.6872 21.8238 20.3358 21.7769 20.3124C19.7152 18.977 22.3626 25.3026 22.4095 25.3729C22.6906 25.7009 23.042 25.4432 23.3935 25.2558H23.4169Z" fill="#FFD190" style="fill:#FFD190;fill:color(display-p3 1.0000 0.8196 0.5647);fill-opacity:1;"/>
<path d="M19.4105 58.0554C19.3871 55.9235 19.3402 53.4635 19.3168 53.2526C17.7705 51.5658 17.794 47.747 17.794 47.747C17.794 47.747 19.5745 45.6853 20.9568 43.0847C23.1591 42.827 29.9299 43.0379 29.9299 43.0379C29.9299 43.0379 36.6772 42.827 38.9029 43.0847C39.4183 44.8184 42.0657 47.747 42.0657 47.747C42.136 48.3092 41.5972 52.5732 40.6132 53.0886C40.5663 53.2526 40.5195 55.9 40.4726 58.1257C37.2395 59.3206 33.7252 59.9766 30.0704 59.9766C26.3453 59.9766 22.7608 59.2971 19.4574 58.0554H19.4105Z" fill="#5D718F" style="fill:#5D718F;fill:color(display-p3 0.3647 0.4431 0.5608);fill-opacity:1;"/>
<path d="M23.7443 35.4705L22.9244 46.599C22.9009 46.9504 22.4558 47.3955 21.3312 47.3721C20.2067 47.3253 20.3707 46.3881 20.3707 46.3881L21.4484 36.1734L23.7678 35.4939L23.7443 35.4705Z" fill="#6B7F9E" style="fill:#6B7F9E;fill:color(display-p3 0.4196 0.4980 0.6196);fill-opacity:1;"/>
<path d="M37.4502 35.6345L37.4033 46.4584C37.4033 46.8098 37.8719 47.3721 39.0199 47.3253C40.1444 47.2784 40.1913 46.271 40.1913 46.271L39.8164 36.2436L37.4502 35.6111V35.6345Z" fill="#6B7F9E" style="fill:#6B7F9E;fill:color(display-p3 0.4196 0.4980 0.6196);fill-opacity:1;"/>
<path d="M21.5896 45.287C21.9878 45.287 22.3158 45.615 22.3158 46.0133C22.3158 46.4115 21.9878 46.7395 21.5896 46.7395C21.1913 46.7395 20.8633 46.4115 20.8633 46.0133C20.8633 45.615 21.1913 45.287 21.5896 45.287Z" fill="#FFE356" style="fill:#FFE356;fill:color(display-p3 1.0000 0.8902 0.3373);fill-opacity:1;"/>
<path d="M38.7624 45.287C39.1607 45.287 39.4887 45.615 39.4887 46.0133C39.4887 46.4115 39.1607 46.7395 38.7624 46.7395C38.3641 46.7395 38.0361 46.4115 38.0361 46.0133C38.0361 45.615 38.3641 45.287 38.7624 45.287Z" fill="#FFE356" style="fill:#FFE356;fill:color(display-p3 1.0000 0.8902 0.3373);fill-opacity:1;"/>
<path d="M26.0636 33.7134L28.7344 38.5631C28.7344 38.5631 26.1105 38.3053 25.595 39.219C25.0796 40.1327 23.9082 41.2339 23.9082 41.2339L25.431 34.4865L26.0636 33.7134Z" fill="white" style="fill:white;fill-opacity:1;"/>
<path d="M34.9668 33.8305L32.5068 38.5865C32.5068 38.5865 35.0371 38.2819 35.5525 39.1956C36.0679 40.1093 37.1691 40.9059 37.1691 40.9059L35.7399 34.4865L34.9668 33.8305Z" fill="white" style="fill:white;fill-opacity:1;"/>
<path d="M40.5427 13.7524V21.2261H39.1604V13.7524C39.1604 10.4959 36.841 8.41076 33.889 7.49706C32.7176 7.1222 31.429 6.95821 30.1405 6.95821C28.8519 6.95821 27.5634 7.14563 26.3919 7.49706C23.44 8.41076 21.1206 10.4959 21.1206 13.7524V21.2261H19.7383V13.7524C19.7383 9.86332 22.456 7.37992 25.9468 6.27878C27.2822 5.85707 28.7113 5.66965 30.1405 5.66965C31.5696 5.66965 32.9987 5.8805 34.3341 6.27878C37.825 7.35649 40.5427 9.83989 40.5427 13.7524Z" fill="white" style="fill:white;fill-opacity:1;"/>
<path d="M21.3782 19.6095H20.7222C20.1131 19.6095 19.5977 20.125 19.5977 20.7341V25.1152C19.5977 25.7243 20.1131 26.2398 20.7222 26.2398H21.3782C21.9873 26.2398 22.5028 25.7243 22.5028 25.1152V20.7341C22.5028 20.125 21.9873 19.6095 21.3782 19.6095Z" fill="#6B7F9E" style="fill:#6B7F9E;fill:color(display-p3 0.4196 0.4980 0.6196);fill-opacity:1;"/>
<path d="M20.8626 19.2347H19.5038C19.3164 19.2347 19.1758 19.3987 19.1758 19.5627V26.2632C19.1758 26.4506 19.3398 26.5912 19.5038 26.5912H20.8626C21.0501 26.5912 21.1906 26.4272 21.1906 26.2632V19.5627C21.1906 19.3753 21.0266 19.2347 20.8626 19.2347Z" fill="#FFE356" style="fill:#FFE356;fill:color(display-p3 1.0000 0.8902 0.3373);fill-opacity:1;"/>
<path d="M38.9732 19.6095H39.6292C40.2383 19.6095 40.7537 20.125 40.7537 20.7341V25.1152C40.7537 25.7243 40.2383 26.2398 39.6292 26.2398H38.9732C38.3641 26.2398 37.8486 25.7243 37.8486 25.1152V20.7341C37.8486 20.125 38.3641 19.6095 38.9732 19.6095Z" fill="#6B7F9E" style="fill:#6B7F9E;fill:color(display-p3 0.4196 0.4980 0.6196);fill-opacity:1;"/>
<path d="M39.4882 19.2347H40.847C41.0344 19.2347 41.175 19.3987 41.175 19.5627V26.2632C41.175 26.4506 41.011 26.5912 40.847 26.5912H39.4882C39.3007 26.5912 39.1602 26.4272 39.1602 26.2632V19.5627C39.1602 19.3753 39.3242 19.2347 39.4882 19.2347Z" fill="#FFE356" style="fill:#FFE356;fill:color(display-p3 1.0000 0.8902 0.3373);fill-opacity:1;"/>
<path d="M28.3131 32.1905C27.3057 32.1671 26.3217 32.0265 25.408 31.7454C22.948 30.9723 21.0269 29.2386 21.0269 26.5443V25.3495C21.0503 24.9043 20.0429 24.67 19.8789 25.3495V26.5443C19.8789 29.7774 22.1515 31.8626 25.0566 32.7528C26.0874 33.0808 27.212 33.2448 28.3365 33.2683V32.214L28.3131 32.1905Z" fill="white" style="fill:white;fill-opacity:1;"/>
<path d="M28.3601 31.0191H31.1715C31.4995 31.0191 31.7807 31.3003 31.7807 31.6283V33.526C31.7807 33.854 31.4995 34.1351 31.1715 34.1351H28.3601C28.0321 34.1351 27.751 33.854 27.751 33.526V31.6283C27.751 31.3003 28.0321 31.0191 28.3601 31.0191Z" fill="#596366" style="fill:#596366;fill:color(display-p3 0.3490 0.3882 0.4000);fill-opacity:1;"/>
<path d="M27.8915 31.4877H31.6401C31.7104 31.4877 31.7807 31.558 31.7807 31.6283V33.5025C31.7807 33.5728 31.7104 33.6431 31.6401 33.6431H27.8915C27.8213 33.6431 27.751 33.5728 27.751 33.5025V31.6283C27.751 31.558 27.8213 31.4877 27.8915 31.4877Z" fill="#6C7678" style="fill:#6C7678;fill:color(display-p3 0.4235 0.4627 0.4706);fill-opacity:1;"/>
</g>
<defs>
<clipPath id="clip0_743_3">
<rect width="60" height="60" fill="white" style="fill:white;fill-opacity:1;"/>
</clipPath>
</defs>
</svg>
