<svg width="57" height="57" viewBox="0 0 57 57" fill="none" xmlns="http://www.w3.org/2000/svg">
<g clip-path="url(#clip0_586_12)">
<path d="M29.0815 0.570068C13.354 0.570068 0.604755 12.5837 0.604755 27.4039C0.604755 32.2277 1.96242 36.7508 4.32683 40.6622L0.635744 53.237C0.462371 53.8282 1.03861 54.3719 1.66593 54.2078L15.0106 50.7296C19.1624 52.9584 23.9624 54.2378 29.0815 54.2378C44.809 54.2378 57.5582 42.2241 57.5582 27.4039C57.5582 12.5837 44.809 0.570068 29.0815 0.570068Z" fill="white" style="fill:white;fill-opacity:1;"/>
<path d="M29.0813 5.3053C16.1294 5.3053 5.62988 15.1991 5.62988 27.4038C5.62988 32.2354 7.27986 36.7009 10.0714 40.3377L8.0504 47.2213L15.3564 45.3169C19.2158 47.9474 23.9547 49.5022 29.0813 49.5022C42.0332 49.5022 52.5327 39.6084 52.5327 27.4038C52.5327 15.1991 42.0332 5.3053 29.0813 5.3053Z" fill="#60BE92" style="fill:#60BE92;fill:color(display-p3 0.3765 0.7451 0.5725);fill-opacity:1;"/>
<path d="M22.2937 16.3145C21.7844 15.2293 21.2467 15.208 20.7593 15.1922C20.3614 15.1764 19.9083 15.1764 19.4544 15.1764C19.0063 15.1764 18.2675 15.3366 17.6461 15.9885C17.0188 16.6349 15.2607 18.2062 15.2607 21.4026C15.2607 24.5935 17.7022 27.6825 18.0381 28.115C18.3798 28.5428 22.7468 35.3089 29.6557 37.9118C35.4005 40.0711 36.5706 39.6433 37.8135 39.5368C39.0623 39.4247 41.8396 37.9654 42.4049 36.4477C42.9703 34.9356 42.9703 33.6365 42.8028 33.3642C42.6344 33.0919 42.1813 32.9309 41.4979 32.605C40.8203 32.279 37.4776 30.7132 36.8503 30.4938C36.2288 30.2799 35.7749 30.1734 35.3218 30.8197C34.8686 31.4661 33.5637 32.9309 33.1659 33.3634C32.7681 33.7967 32.3761 33.8496 31.6935 33.5292C31.0159 33.2032 28.8266 32.519 26.2285 30.3067C24.2075 28.5862 22.8414 26.464 22.4436 25.8121C22.0457 25.1657 22.3992 24.8129 22.7401 24.4869C23.0483 24.1981 23.4235 23.7277 23.7644 23.3489C24.1003 22.9693 24.2125 22.7025 24.442 22.2692C24.6656 21.8359 24.5542 21.4571 24.3859 21.1311C24.22 20.8036 22.8984 17.597 22.2937 16.3145Z" fill="white" style="fill:white;fill-opacity:1;"/>
<path d="M1.43427 55.0277C0.997904 55.0277 0.579129 54.8667 0.258347 54.5636C-0.174667 54.1564 -0.334639 53.5818 -0.172154 53.027L3.42764 40.7655C1.03141 36.6883 -0.233295 32.0753 -0.233295 27.4038C-0.233295 12.1725 12.9171 -0.219238 29.081 -0.219238C45.2449 -0.219238 58.3953 12.1725 58.3953 27.4038C58.3953 42.6352 45.2449 55.0269 29.081 55.0269C24.1235 55.0269 19.228 53.8352 14.9013 51.5772L1.88906 54.9693C1.7383 55.0088 1.58503 55.0277 1.43427 55.0277ZM15.011 49.9411C15.155 49.9411 15.2982 49.9758 15.4256 50.0445C19.5739 52.2717 24.2961 53.4485 29.081 53.4485C44.3211 53.4485 56.7202 41.7647 56.7202 27.4038C56.7202 13.043 44.3211 1.35922 29.081 1.35922C13.8409 1.35922 1.44181 13.043 1.44181 27.4038C1.44181 31.9127 2.69059 36.3624 5.05416 40.2715C5.16472 40.4538 5.1932 40.67 5.13373 40.8729L1.44264 53.4485L14.7882 49.9703C14.8611 49.9498 14.9364 49.9411 15.011 49.9411Z" fill="#1F212B" style="fill:#1F212B;fill:color(display-p3 0.1216 0.1294 0.1686);fill-opacity:1;"/>
<path d="M36.4248 40.0378C35.2422 40.0378 33.4012 39.7434 29.5016 38.2786C25.3239 36.7049 21.1847 33.2504 17.8487 28.5529C17.7767 28.4527 17.729 28.384 17.7038 28.3524C16.8286 27.2254 14.8428 24.3518 14.8428 21.4025C14.8428 18.244 16.5045 16.5645 17.2147 15.8471L17.337 15.7224C18.1461 14.8732 19.0875 14.7816 19.4543 14.7816C19.915 14.7816 20.374 14.7816 20.7768 14.7982C21.4234 14.8195 22.106 14.9426 22.6764 16.1557C23.0349 16.9157 23.6312 18.3189 24.1103 19.446C24.4143 20.161 24.7016 20.8366 24.7644 20.9589C24.9403 21.3015 25.1371 21.8279 24.8197 22.4419L24.7167 22.64C24.5408 22.9794 24.4017 23.2477 24.0868 23.6021C23.9738 23.7275 23.8598 23.8609 23.7443 23.9943C23.5056 24.2721 23.2585 24.5594 23.0357 24.767C22.7007 25.0874 22.5725 25.2342 22.807 25.6146C23.2828 26.3951 24.5944 28.384 26.5099 30.0138C28.6272 31.8172 30.4355 32.5685 31.407 32.9718C31.6064 33.0539 31.7672 33.1218 31.8844 33.1786C32.4548 33.4469 32.6156 33.3609 32.8501 33.106C33.2655 32.653 34.542 31.2173 34.9725 30.6025C35.6358 29.6555 36.4533 29.938 36.9935 30.1235C37.6786 30.3626 41.1561 31.9979 41.688 32.2536L42.0582 32.4264C42.5841 32.6687 42.9644 32.8432 43.1637 33.166C43.4368 33.6103 43.3555 35.0885 42.7986 36.5794C42.1511 38.3157 39.1611 39.8129 37.852 39.9305C37.7339 39.9407 37.6191 39.9526 37.5002 39.9668C37.1853 39.9999 36.8461 40.0378 36.4248 40.0378ZM19.4795 15.5701C19.2692 15.5701 18.5858 15.5929 17.9585 16.2512L17.8278 16.3845C17.1301 17.0893 15.6803 18.5549 15.6803 21.4025C15.6803 24.119 17.5531 26.8221 18.358 27.8592C18.4024 27.9144 18.4602 27.9949 18.5447 28.1133C21.7877 32.6806 25.7896 36.0301 29.8123 37.5454C34.903 39.4585 36.2899 39.3046 37.4039 39.1815C37.5295 39.1665 37.6526 39.1539 37.7758 39.1428C38.8579 39.0457 41.5029 37.6756 42.0104 36.3158C42.533 34.9173 42.5255 33.7555 42.4351 33.5503C42.3697 33.4461 42.0565 33.3017 41.6921 33.1352L41.3094 32.956C40.5187 32.5756 37.2858 31.065 36.7054 30.863C36.1015 30.6562 35.9449 30.6483 35.6718 31.0366C35.1827 31.7351 33.8007 33.2772 33.4841 33.6213C32.8074 34.3577 32.0712 34.1478 31.5084 33.8818C31.397 33.8289 31.2504 33.7681 31.0703 33.6932C30.1281 33.3017 28.1674 32.488 25.9504 30.5986C23.9453 28.8923 22.5784 26.8198 22.0834 26.0084C21.5206 25.0929 22.1219 24.5176 22.4444 24.2098C22.6446 24.0219 22.8707 23.7583 23.096 23.4963C23.2149 23.3582 23.333 23.2201 23.4478 23.093C23.6957 22.8136 23.8037 22.606 23.9662 22.2919L24.0709 22.0915C24.194 21.8531 24.1773 21.6227 24.0123 21.3015C23.9403 21.161 23.7191 20.6432 23.3347 19.7388C22.8581 18.6173 22.2643 17.2219 21.9125 16.4745V16.4729C21.5072 15.6103 21.1713 15.6 20.7458 15.5858C20.3564 15.5701 19.9192 15.5701 19.4795 15.5701Z" fill="#1F212B" style="fill:#1F212B;fill:color(display-p3 0.1216 0.1294 0.1686);fill-opacity:1;"/>
<path d="M29.0813 49.5022C24.3098 49.5022 19.7217 48.1574 15.7994 45.6105L8.16264 47.601C8.01523 47.6404 7.86112 47.6002 7.75475 47.4999C7.64838 47.3997 7.6065 47.2529 7.64754 47.1156L9.75901 39.9202C7.05707 36.2242 5.62988 31.9008 5.62988 27.4038C5.62988 15.2188 16.1504 5.3053 29.0813 5.3053C31.2372 5.3053 33.3897 5.58705 35.4769 6.14425C35.6996 6.20344 35.8295 6.42206 35.7666 6.63121C35.7038 6.84035 35.4693 6.96268 35.2499 6.90428C33.2356 6.36681 31.1601 6.09453 29.0813 6.09453C16.6119 6.09453 6.46743 15.6537 6.46743 27.4038C6.46743 31.7998 7.88122 36.0245 10.558 39.6203C10.6301 39.7165 10.6518 39.8381 10.6183 39.9525L8.65009 46.6555L15.7642 44.8008C15.884 44.7676 16.0138 44.7905 16.1169 44.8576C19.9336 47.3808 24.417 48.713 29.0813 48.713C41.5508 48.713 51.6952 39.1538 51.6952 27.4038C51.6952 21.7363 49.3593 16.4011 45.1171 12.38C44.9546 12.2253 44.9546 11.9751 45.1187 11.822C45.2829 11.6689 45.5484 11.6689 45.7109 11.8236C50.1097 15.9939 52.5327 21.5271 52.5327 27.4038C52.5327 39.5887 42.0123 49.5022 29.0813 49.5022Z" fill="#1F212B" style="fill:#1F212B;fill:color(display-p3 0.1216 0.1294 0.1686);fill-opacity:1;"/>
<path d="M40.3883 8.89235C40.318 8.89235 40.2476 8.87578 40.1823 8.84184C39.3757 8.41171 38.5457 8.03051 37.7157 7.70693C37.5021 7.62406 37.4008 7.3936 37.4887 7.19156C37.5758 6.99109 37.8221 6.89323 38.0356 6.97768C38.8966 7.31389 39.7585 7.71008 40.5944 8.15442C40.7954 8.26176 40.8666 8.50247 40.7527 8.69268C40.6764 8.81974 40.5341 8.89235 40.3883 8.89235ZM43.7385 11.0556C43.6447 11.0556 43.5501 11.0264 43.4722 10.9657C42.9537 10.5616 42.4001 10.1709 41.8272 9.80233C41.6363 9.67921 41.5877 9.43376 41.7175 9.25382C41.8482 9.07387 42.1095 9.02968 42.2996 9.15043C42.8926 9.53163 43.4672 9.93808 44.0049 10.3564C44.1833 10.4953 44.2084 10.7439 44.061 10.912C43.9789 11.0075 43.8591 11.0556 43.7385 11.0556Z" fill="#1F212B" style="fill:#1F212B;fill:color(display-p3 0.1216 0.1294 0.1686);fill-opacity:1;"/>
</g>
<defs>
<clipPath id="clip0_586_12">
<rect width="57" height="57" fill="white" style="fill:white;fill-opacity:1;"/>
</clipPath>
</defs>
</svg>
